<?xml version="1.0" encoding="UTF-8"?>
<svg width="136px" height="54px" viewBox="0 0 136 54" version="1.1" xmlns="http://www.w3.org/2000/svg" xmlns:xlink="http://www.w3.org/1999/xlink">
    <!-- Generator: Sketch 57.1 (83088) - https://sketch.com -->
    <title>eramKids</title>
    <desc>Created with Sketch.</desc>
    <g id="Welcome" stroke="none" stroke-width="1" fill="none" fill-rule="evenodd">
        <g id="Desktop-HD" transform="translate(-476.000000, -2173.000000)">
            <g id="eramKids" transform="translate(476.000000, 2173.000000)">
                <g id="Group-4-Copy" fill="#FEFEFE">
                    <path d="M54.236196,1.49517763 C48.2722146,1.49517763 43.4199518,6.33035507 43.4199518,12.2733365 C43.4199518,18.216318 48.2722146,23.0514954 54.236196,23.0514954 C54.5541096,23.0514954 54.8876905,23.0345824 55.2565225,22.9994553 C60.4913262,22.4764521 64.6659826,18.1265488 64.9662707,12.8809049 L64.9662707,11.6293401 C64.7501938,7.87464557 62.526104,4.44390081 59.1615725,2.68949834 C58.8762989,2.5418345 58.5955948,2.41368571 58.3103212,2.29529444 C58.1164396,2.21658377 57.9166828,2.14632961 57.7162732,2.07802695 C57.7162732,2.07802695 57.4721259,1.98955875 57.4114155,1.97069421 C56.3832554,1.655201 55.3139689,1.49517763 54.236196,1.49517763 M54.236196,24.5437458 C52.5735143,24.5437458 50.9591397,24.217194 49.4374627,23.5725471 C44.8397919,21.6568203 41.868246,17.2171477 41.868246,12.262278 C41.868246,5.5042182 47.3857121,0.00552926251 54.1683048,0.00552926251 L54.236196,0.00292725662 C54.3256296,0.00292725662 54.4137576,0.00878176987 54.5018856,0.0146362831 L54.7414633,0.0269958111 C54.8929129,0.0328503243 55.0443625,0.0387048376 55.1938537,0.0510643655 C55.4549737,0.0712299112 55.7141354,0.102453982 55.9719914,0.138882064 L56.0673002,0.153843598 C59.852235,0.719779879 63.1110129,2.982224 64.9662707,6.27961596 L64.9662707,0.470637815 L66.4350708,0.470637815 L66.4350708,0.48169634 L66.5173236,0.48169634 L66.5173236,11.6338936 L66.5297268,11.8166845 C66.5401716,11.9682513 66.5499636,12.1198182 66.5499636,12.2733365 C66.5499636,12.4268549 66.5401716,12.5784217 66.5297268,12.7293381 L66.5173236,12.9257895 L66.5173236,23.9309734 L65.0204531,23.9309734 L65.0204531,23.9199149 L64.9662707,23.6759768 L64.9662707,18.2657561 C62.7976688,22.1102198 58.6902508,24.5437458 54.236196,24.5437458" id="Fill-35"></path>
                    <path d="M23.1052055,11.5270812 C22.8277654,7.46079653 20.2289684,3.85116386 16.4251024,2.28410582 C15.1332111,1.76045213 13.7675533,1.49504753 12.36795,1.49504753 C6.65529665,1.49504753 1.96427539,5.88137896 1.57716495,11.5270812 L23.1052055,11.5270812 Z M12.36795,24.5436157 C10.705921,24.5436157 9.09219929,24.2170639 7.57052234,23.5730675 C2.97219869,21.6573407 -1.27897692e-13,17.2176681 -1.27897692e-13,12.2621479 C-1.27897692e-13,5.5040881 5.51811894,0.00604966369 12.299406,0.00604966369 L12.36795,0.00279715633 C19.1577235,0.00279715633 24.6817176,5.50734061 24.6817176,12.2732064 L24.6817176,13.0193316 L1.57716495,13.0193316 C1.96427539,18.6650339 6.65529665,23.0513653 12.36795,23.0513653 C12.5696652,23.0513653 12.7700748,23.0448603 12.9691789,23.0338018 C16.1339536,22.8445058 19.0487059,21.2787488 20.9640212,18.7385406 L21.1109013,18.5433901 L21.1468053,18.5700607 L21.3641877,18.6923549 L22.365583,19.4423831 L22.218703,19.6375336 C19.8673171,22.7553871 16.2769168,24.5436157 12.36795,24.5436157 L12.36795,24.5436157 Z" id="Fill-37"></path>
                    <path d="M75.3454653,23.9352017 L75.3454653,23.9312987 L75.2364477,23.9312987 L75.2364477,0.481371089 L76.733971,0.481371089 L76.733971,0.4859246 L76.8142654,0.4859246 L76.8142654,4.25818264 C78.343776,1.88385226 80.857709,0.333056754 83.7006533,0.0526906192 L83.7678917,0.045535103 C84.0485957,0.0201655456 84.3306053,0.00260200589 84.6178374,0.00260200589 L84.6857286,2.48689958e-14 C84.841095,2.48689958e-14 84.994503,0.00975752208 85.147911,0.0208160471 L85.3874887,0.0351270795 C88.834273,0.292725662 91.8417229,2.44718654 93.209339,5.58650664 C94.5443151,2.52264471 97.4675538,0.375339349 100.818377,0.0507391148 C101.136943,0.0201655456 101.426133,0.00260200589 101.719893,0.00260200589 L101.787785,2.48689958e-14 C106.916182,2.48689958e-14 111.087574,4.15670441 111.087574,9.26704397 L111.086922,23.9312987 L109.590051,23.9312987 L109.590051,23.9202401 L109.535869,23.6763021 L109.535869,9.25598544 C109.535869,6.12772387 107.665596,3.313004 104.771081,2.08485722 C103.821257,1.69195433 102.81725,1.49225038 101.787785,1.49225038 C97.4975826,1.49225038 93.9979215,4.97113225 93.9868239,9.24687842 L93.9881295,23.9312987 L92.4906061,23.9312987 L92.4906061,23.9195896 L92.4364237,23.6763021 L92.4344653,9.25663595 C92.4344653,6.12837437 90.5635404,3.3136545 87.6690249,2.08550772 C86.7198536,1.69195433 85.7158471,1.49225038 84.6857286,1.49225038 C80.3837762,1.49225038 76.8834622,4.97958877 76.8834622,9.26704397 L76.8828094,23.9312987 L76.5694654,23.9352017 L75.3454653,23.9352017 Z" id="Fill-39"></path>
                    <path d="M31.272844,23.9311035 L31.272844,23.920045 L31.2186616,23.6761069 L31.2186616,0.470767915 L32.6874617,0.470767915 L32.6874617,0.48182644 L32.7703674,0.48182644 L32.7703674,4.64243385 C34.1471227,1.97602832 36.3320445,0.362134169 39.0170112,0.059650985 C39.3936768,0.0186693922 39.6685056,0.00305735692 39.9335425,0.00305735692 L40.1783425,0.00305735692 L40.2468865,0.243742902 L40.2468865,1.49205523 L40.0020865,1.49205523 C35.6093948,1.49205523 32.7703674,5.53557238 32.7703674,11.794047 L32.7703674,23.9311035 L31.272844,23.9311035 Z" id="Fill-41"></path>
                </g>
                <path d="M82.2283468,41.5646889 L81.1629771,42.7965226 L81.1629771,51.8188723 C81.1629771,52.3182643 81.3294411,52.6178995 81.7622475,52.6511923 L83.3270093,52.8176564 L83.3270093,53.1505844 L74.1049028,53.1505844 L74.1049028,52.8176564 L75.7029573,52.6511923 C76.1357638,52.6178995 76.3022278,52.3182643 76.3022278,51.8188723 L76.3022278,31.8431903 C76.3022278,31.3437983 76.1357638,31.044163 75.7029573,31.0108702 L74.1049028,30.8444062 L74.1049028,30.5114782 L83.3270093,30.5114782 L83.3270093,30.8444062 L81.7622475,31.0108702 C81.3294411,31.044163 81.1629771,31.3437983 81.1629771,31.8431903 L81.1629771,42.1639593 L88.5872722,33.2747808 C88.953493,32.8086816 88.9202002,32.1095327 88.287637,31.8098975 L86.2900688,30.8444062 L86.2900688,30.5114782 L94.4468056,30.5114782 L94.4468056,30.8444062 L91.9165525,31.6767263 C90.8511828,32.0429471 89.4195923,32.7753888 88.7204434,33.6410017 L85.4577487,37.6028453 L93.7809495,51.6524082 C94.0472919,52.1185075 94.5133912,52.5513139 95.0127832,52.6511923 L96.1447385,52.8176564 L96.1447385,53.1505844 L86.4898256,53.1505844 L86.4898256,52.8176564 L87.4553169,52.6511923 C87.9547089,52.5846067 87.9880017,52.1185075 87.6883665,51.519237 L82.2283468,41.5646889 Z M98.77487,31.8098975 C98.77487,30.3450142 99.8735325,29.4794013 101.238537,29.4794013 C102.636835,29.4794013 103.735498,30.3450142 103.735498,31.8098975 C103.735498,33.2747808 102.636835,34.1736865 101.238537,34.1736865 C99.8735325,34.1736865 98.77487,33.2747808 98.77487,31.8098975 Z M103.40257,39.4339494 L103.40257,51.8188723 C103.40257,52.3182643 103.569034,52.5846067 104.00184,52.6511923 L105.300259,52.8176564 L105.300259,53.1505844 L97.1768154,53.1505844 L97.1768154,52.8176564 L98.5085276,52.6511923 C98.9080412,52.5846067 99.0745052,52.3182643 99.0745052,51.8188723 L99.0745052,38.0356517 C99.0745052,37.5362597 98.9080412,37.3697956 98.5085276,37.3697956 L97.1768154,37.3697956 L97.1768154,37.0368676 L103.40257,36.1712547 L103.535741,36.3377187 C103.469155,36.9036964 103.40257,38.1022373 103.40257,39.4339494 Z M121.280805,32.7753888 L121.280805,51.8188723 C121.280805,52.3182643 121.480562,52.5846067 121.880075,52.6511923 L123.278373,52.8176564 L123.278373,53.1505844 C121.480562,53.3170484 119.516286,53.4835124 118.384331,53.4835124 C117.785061,53.4835124 116.986033,53.3170484 116.986033,52.2183859 L116.986033,49.321912 L116.919448,49.321912 C116.187006,52.4181427 114.222731,53.4835124 112.524798,53.4835124 C108.796004,53.4835124 106.532093,50.1542321 106.532093,44.8273836 C106.532093,39.8334631 109.262103,36.1712547 113.090775,36.1712547 C114.322609,36.1712547 115.554443,36.6040612 116.919448,37.7693093 L116.986033,37.7693093 L116.986033,31.3770911 C116.986033,30.877699 116.819569,30.711235 116.386763,30.711235 L115.055051,30.711235 L115.055051,30.378307 L121.280805,29.5126941 L121.447269,29.6791581 C121.347391,30.2451357 121.280805,31.4436767 121.280805,32.7753888 Z M116.986033,46.6251949 L116.986033,38.1688229 C116.453349,37.8358949 115.52115,37.6028453 114.68883,37.6028453 C112.79114,37.6028453 111.093207,39.334071 111.093207,44.8273836 C111.093207,49.8545969 112.458212,51.3860658 114.222731,51.3860658 C115.354686,51.3860658 116.986033,50.1875249 116.986033,46.6251949 Z M129.903641,53.4835124 C128.47205,53.4835124 127.107046,53.2837556 124.976306,52.7510707 L124.643378,48.2565423 L124.943013,48.2565423 C126.108261,51.019845 127.373388,53.1505844 129.604006,53.1505844 C131.068889,53.1505844 132.100966,52.0519219 132.100966,50.2541105 C132.100966,48.4562991 131.035596,47.3909294 128.738393,46.2922669 C126.041676,44.9938476 124.676671,43.6621355 124.676671,40.9987112 C124.676671,38.3352869 126.574361,36.1712547 130.303155,36.1712547 C131.601574,36.1712547 132.533772,36.3710115 134.797683,36.9036964 L134.930854,41.3982248 L134.631219,41.3982248 C133.465971,38.4684581 132.700236,36.5041828 130.60279,36.5041828 C129.104614,36.5041828 128.338879,37.7027237 128.338879,39.1010214 C128.338879,41.0985896 129.703884,41.8310313 130.869132,42.3970089 C134.264998,44.0616491 135.896346,45.2934828 135.896346,48.2565423 C135.896346,51.4193586 133.266214,53.4835124 129.903641,53.4835124 Z" id="Kids" fill="#D66E48" fill-rule="nonzero"></path>
            </g>
        </g>
    </g>
</svg>