<?xml version="1.0" encoding="UTF-8"?>
<svg width="238px" height="55px" viewBox="0 0 238 55" version="1.1" xmlns="http://www.w3.org/2000/svg" xmlns:xlink="http://www.w3.org/1999/xlink">
    <!-- Generator: Sketch 57.1 (83088) - https://sketch.com -->
    <title>eramKids Copy</title>
    <desc>Created with Sketch.</desc>
    <g id="Welcome" stroke="none" stroke-width="1" fill="none" fill-rule="evenodd">
        <g id="Desktop-HD" transform="translate(-767.000000, -2173.000000)">
            <g id="eramKids-Copy" transform="translate(767.000000, 2173.000000)">
                <g id="Group-4-Copy" fill="#FEFEFE">
                    <path d="M54.236196,1.49517763 C48.2722146,1.49517763 43.4199518,6.33035507 43.4199518,12.2733365 C43.4199518,18.216318 48.2722146,23.0514954 54.236196,23.0514954 C54.5541096,23.0514954 54.8876905,23.0345824 55.2565225,22.9994553 C60.4913262,22.4764521 64.6659826,18.1265488 64.9662707,12.8809049 L64.9662707,11.6293401 C64.7501938,7.87464557 62.526104,4.44390081 59.1615725,2.68949834 C58.8762989,2.5418345 58.5955948,2.41368571 58.3103212,2.29529444 C58.1164396,2.21658377 57.9166828,2.14632961 57.7162732,2.07802695 C57.7162732,2.07802695 57.4721259,1.98955875 57.4114155,1.97069421 C56.3832554,1.655201 55.3139689,1.49517763 54.236196,1.49517763 M54.236196,24.5437458 C52.5735143,24.5437458 50.9591397,24.217194 49.4374627,23.5725471 C44.8397919,21.6568203 41.868246,17.2171477 41.868246,12.262278 C41.868246,5.5042182 47.3857121,0.00552926251 54.1683048,0.00552926251 L54.236196,0.00292725662 C54.3256296,0.00292725662 54.4137576,0.00878176987 54.5018856,0.0146362831 L54.7414633,0.0269958111 C54.8929129,0.0328503243 55.0443625,0.0387048376 55.1938537,0.0510643655 C55.4549737,0.0712299112 55.7141354,0.102453982 55.9719914,0.138882064 L56.0673002,0.153843598 C59.852235,0.719779879 63.1110129,2.982224 64.9662707,6.27961596 L64.9662707,0.470637815 L66.4350708,0.470637815 L66.4350708,0.48169634 L66.5173236,0.48169634 L66.5173236,11.6338936 L66.5297268,11.8166845 C66.5401716,11.9682513 66.5499636,12.1198182 66.5499636,12.2733365 C66.5499636,12.4268549 66.5401716,12.5784217 66.5297268,12.7293381 L66.5173236,12.9257895 L66.5173236,23.9309734 L65.0204531,23.9309734 L65.0204531,23.9199149 L64.9662707,23.6759768 L64.9662707,18.2657561 C62.7976688,22.1102198 58.6902508,24.5437458 54.236196,24.5437458" id="Fill-35"></path>
                    <path d="M23.1052055,11.5270812 C22.8277654,7.46079653 20.2289684,3.85116386 16.4251024,2.28410582 C15.1332111,1.76045213 13.7675533,1.49504753 12.36795,1.49504753 C6.65529665,1.49504753 1.96427539,5.88137896 1.57716495,11.5270812 L23.1052055,11.5270812 Z M12.36795,24.5436157 C10.705921,24.5436157 9.09219929,24.2170639 7.57052234,23.5730675 C2.97219869,21.6573407 -1.27897692e-13,17.2176681 -1.27897692e-13,12.2621479 C-1.27897692e-13,5.5040881 5.51811894,0.00604966369 12.299406,0.00604966369 L12.36795,0.00279715633 C19.1577235,0.00279715633 24.6817176,5.50734061 24.6817176,12.2732064 L24.6817176,13.0193316 L1.57716495,13.0193316 C1.96427539,18.6650339 6.65529665,23.0513653 12.36795,23.0513653 C12.5696652,23.0513653 12.7700748,23.0448603 12.9691789,23.0338018 C16.1339536,22.8445058 19.0487059,21.2787488 20.9640212,18.7385406 L21.1109013,18.5433901 L21.1468053,18.5700607 L21.3641877,18.6923549 L22.365583,19.4423831 L22.218703,19.6375336 C19.8673171,22.7553871 16.2769168,24.5436157 12.36795,24.5436157 L12.36795,24.5436157 Z" id="Fill-37"></path>
                    <path d="M75.3454653,23.9352017 L75.3454653,23.9312987 L75.2364477,23.9312987 L75.2364477,0.481371089 L76.733971,0.481371089 L76.733971,0.4859246 L76.8142654,0.4859246 L76.8142654,4.25818264 C78.343776,1.88385226 80.857709,0.333056754 83.7006533,0.0526906192 L83.7678917,0.045535103 C84.0485957,0.0201655456 84.3306053,0.00260200589 84.6178374,0.00260200589 L84.6857286,2.48689958e-14 C84.841095,2.48689958e-14 84.994503,0.00975752208 85.147911,0.0208160471 L85.3874887,0.0351270795 C88.834273,0.292725662 91.8417229,2.44718654 93.209339,5.58650664 C94.5443151,2.52264471 97.4675538,0.375339349 100.818377,0.0507391148 C101.136943,0.0201655456 101.426133,0.00260200589 101.719893,0.00260200589 L101.787785,2.48689958e-14 C106.916182,2.48689958e-14 111.087574,4.15670441 111.087574,9.26704397 L111.086922,23.9312987 L109.590051,23.9312987 L109.590051,23.9202401 L109.535869,23.6763021 L109.535869,9.25598544 C109.535869,6.12772387 107.665596,3.313004 104.771081,2.08485722 C103.821257,1.69195433 102.81725,1.49225038 101.787785,1.49225038 C97.4975826,1.49225038 93.9979215,4.97113225 93.9868239,9.24687842 L93.9881295,23.9312987 L92.4906061,23.9312987 L92.4906061,23.9195896 L92.4364237,23.6763021 L92.4344653,9.25663595 C92.4344653,6.12837437 90.5635404,3.3136545 87.6690249,2.08550772 C86.7198536,1.69195433 85.7158471,1.49225038 84.6857286,1.49225038 C80.3837762,1.49225038 76.8834622,4.97958877 76.8834622,9.26704397 L76.8828094,23.9312987 L76.5694654,23.9352017 L75.3454653,23.9352017 Z" id="Fill-39"></path>
                    <path d="M31.272844,23.9311035 L31.272844,23.920045 L31.2186616,23.6761069 L31.2186616,0.470767915 L32.6874617,0.470767915 L32.6874617,0.48182644 L32.7703674,0.48182644 L32.7703674,4.64243385 C34.1471227,1.97602832 36.3320445,0.362134169 39.0170112,0.059650985 C39.3936768,0.0186693922 39.6685056,0.00305735692 39.9335425,0.00305735692 L40.1783425,0.00305735692 L40.2468865,0.243742902 L40.2468865,1.49205523 L40.0020865,1.49205523 C35.6093948,1.49205523 32.7703674,5.53557238 32.7703674,11.794047 L32.7703674,23.9311035 L31.272844,23.9311035 Z" id="Fill-41"></path>
                </g>
                <text id="Orthodontics" font-family="VelinoCondensedDisplay-Bold, Velino Condensed Display" font-size="33.2928032" font-style="condensed" font-weight="bold" fill="#D66E48">
                    <tspan x="53.1463717" y="53.1505844">Orthodontics</tspan>
                </text>
            </g>
        </g>
    </g>
</svg>