<?xml version="1.0" encoding="UTF-8"?>
<svg width="190px" height="60px" viewBox="0 0 190 60" version="1.1" xmlns="http://www.w3.org/2000/svg" xmlns:xlink="http://www.w3.org/1999/xlink">
    <!-- Generator: Sketch 57.1 (83088) - https://sketch.com -->
    <title>eramImplants</title>
    <desc>Created with Sketch.</desc>
    <g id="Welcome" stroke="none" stroke-width="1" fill="none" fill-rule="evenodd">
        <g id="Desktop-HD" transform="translate(-498.000000, -1880.000000)">
            <g id="implants" transform="translate(442.000000, 1623.000000)">
                <g id="eramImplants" transform="translate(56.000000, 257.000000)">
                    <g id="Group-4" fill="#FEFEFE">
                        <path d="M54.236196,1.49212505 C48.2722146,1.49212505 43.4199518,6.31743091 43.4199518,12.2482791 C43.4199518,18.1791272 48.2722146,23.0044331 54.236196,23.0044331 C54.5541096,23.0044331 54.8876905,22.9875546 55.2565225,22.9524992 C60.4913262,22.4305638 64.6659826,18.0895413 64.9662707,12.854607 L64.9662707,11.6055974 C64.7501938,7.85856855 62.526104,4.43482806 59.1615725,2.68400741 C58.8762989,2.53664505 58.5955948,2.40875789 58.3103212,2.29060833 C58.1164396,2.21205835 57.9166828,2.14194762 57.7162732,2.07378442 C57.7162732,2.07378442 57.4721259,1.98549683 57.4114155,1.96667081 C56.3832554,1.65182171 55.3139689,1.49212505 54.236196,1.49212505 M54.236196,24.4936368 C52.5735143,24.4936368 50.9591397,24.1677518 49.4374627,23.524421 C44.8397919,21.6126053 41.868246,17.1819969 41.868246,12.2372431 C41.868246,5.4929807 47.3857121,0.00551797387 54.1683048,0.00551797387 L54.236196,0.00292128029 C54.3256296,0.00292128029 54.4137576,0.00876384086 54.5018856,0.0146064014 L54.7414633,0.026940696 C54.8929129,0.0327832565 55.0443625,0.0386258171 55.1938537,0.0509601116 C55.4549737,0.0710844869 55.7141354,0.10224481 55.9719914,0.13859852 L56.0673002,0.153529508 C59.852235,0.718310363 63.1110129,2.97613544 64.9662707,6.26679538 L64.9662707,0.469676953 L66.4350708,0.469676953 L66.4350708,0.4807129 L66.5173236,0.4807129 L66.5173236,11.6101416 L66.5297268,11.7925593 C66.5401716,11.9438167 66.5499636,12.0950741 66.5499636,12.2482791 C66.5499636,12.401484 66.5401716,12.5527414 66.5297268,12.7033496 L66.5173236,12.8994 L66.5173236,23.8821155 L65.0204531,23.8821155 L65.0204531,23.8710796 L64.9662707,23.6276395 L64.9662707,18.2284644 C62.7976688,22.0650792 58.6902508,24.4936368 54.236196,24.4936368" id="Fill-35"></path>
                        <path d="M23.1052055,11.5035473 C22.8277654,7.44556444 20.2289684,3.84330126 16.4251024,2.27944255 C15.1332111,1.75685796 13.7675533,1.49199522 12.36795,1.49199522 C6.65529665,1.49199522 1.96427539,5.86937143 1.57716495,11.5035473 L23.1052055,11.5035473 Z M12.36795,24.493507 C10.705921,24.493507 9.09219929,24.167622 7.57052234,23.5249403 C2.97219869,21.6131246 -1.27897692e-13,17.1825162 -1.27897692e-13,12.2371133 C-1.27897692e-13,5.49285086 5.51811894,0.00603731259 12.299406,0.00603731259 L12.36795,0.00279144561 C19.1577235,0.00279144561 24.6817176,5.49609673 24.6817176,12.2481492 L24.6817176,12.9927511 L1.57716495,12.9927511 C1.96427539,18.626927 6.65529665,23.0043032 12.36795,23.0043032 C12.5696652,23.0043032 12.7700748,22.9978115 12.9691789,22.9867756 C16.1339536,22.7978661 19.0487059,21.2353057 20.9640212,18.7002836 L21.1109013,18.5055316 L21.1468053,18.5321477 L21.3641877,18.6541923 L22.365583,19.4026892 L22.218703,19.5974413 C19.8673171,22.7089293 16.2769168,24.493507 12.36795,24.493507 L12.36795,24.493507 Z" id="Fill-37"></path>
                        <path d="M75.3454653,23.8863351 L75.3454653,23.8824401 L75.2364477,23.8824401 L75.2364477,0.480388314 L76.733971,0.480388314 L76.733971,0.484932527 L76.8142654,0.484932527 L76.8142654,4.24948905 C78.343776,1.88000616 80.857709,0.332376779 83.7006533,0.0525830451 L83.7678917,0.0454421378 C84.0485957,0.0201243753 84.3306053,0.00259669359 84.6178374,0.00259669359 L84.6857286,2.48689958e-14 C84.841095,2.48689958e-14 84.994503,0.00973760095 85.147911,0.0207735487 L85.3874887,0.0350553634 C88.834273,0.292128029 91.8417229,2.44219032 93.209339,5.57510113 C94.5443151,2.51749443 97.4675538,0.37457305 100.818377,0.0506355249 C101.136943,0.0201243753 101.426133,0.00259669359 101.719893,0.00259669359 L101.787785,2.48689958e-14 C106.916182,2.48689958e-14 111.087574,4.148218 111.087574,9.24812421 L111.086922,23.8824401 L109.590051,23.8824401 L109.590051,23.8714041 L109.535869,23.6279641 L109.535869,9.23708826 C109.535869,6.1152134 107.665596,3.30624011 104.771081,2.08060074 C103.821257,1.6885 102.81725,1.48920377 101.787785,1.48920377 C97.4975826,1.48920377 93.9979215,4.9609831 93.9868239,9.22799983 L93.9881295,23.8824401 L92.4906061,23.8824401 L92.4906061,23.870755 L92.4364237,23.6279641 L92.4344653,9.23773743 C92.4344653,6.11586257 90.5635404,3.30688928 87.6690249,2.08124991 C86.7198536,1.6885 85.7158471,1.48920377 84.6857286,1.48920377 C80.3837762,1.48920377 76.8834622,4.96942235 76.8834622,9.24812421 L76.8828094,23.8824401 L76.5694654,23.8863351 L75.3454653,23.8863351 Z" id="Fill-39"></path>
                        <path d="M31.272844,23.8822453 L31.272844,23.8712094 L31.2186616,23.6277694 L31.2186616,0.469806787 L32.6874617,0.469806787 L32.6874617,0.480842735 L32.7703674,0.480842735 L32.7703674,4.63295578 C34.1471227,1.97199403 36.3320445,0.36139483 39.0170112,0.0595292005 C39.3936768,0.0186312765 39.6685056,0.00305111496 39.9335425,0.00305111496 L40.1783425,0.00305111496 L40.2468865,0.243245272 L40.2468865,1.48900902 L40.0020865,1.48900902 C35.6093948,1.48900902 32.7703674,5.52427085 32.7703674,11.7699681 L32.7703674,23.8822453 L31.272844,23.8822453 Z" id="Fill-41"></path>
                    </g>
                    <path d="M73.5317256,31.7583599 L73.5317256,51.7340418 C73.5317256,52.2334339 73.6981896,52.5330691 74.130996,52.5663619 L75.6957578,52.7328259 L75.6957578,53.065754 L66.4736513,53.065754 L66.4736513,52.7328259 L68.0717058,52.5663619 C68.5045123,52.5330691 68.6709763,52.2334339 68.6709763,51.7340418 L68.6709763,31.7583599 C68.6709763,31.2589678 68.5045123,30.9593326 68.0717058,30.9260398 L66.4736513,30.7595758 L66.4736513,30.4266478 L75.6957578,30.4266478 L75.6957578,30.7595758 L74.130996,30.9260398 C73.6981896,30.9593326 73.5317256,31.2589678 73.5317256,31.7583599 Z M83.5195666,40.9138808 L83.5861522,40.9138808 C84.7181075,37.2516724 86.5825044,36.0864243 88.7798295,36.0864243 C90.9771545,36.0864243 92.7416731,37.4847221 92.9747227,40.9138808 L93.0413083,40.9138808 C94.1732636,37.2516724 96.0709534,36.0864243 98.2682784,36.0864243 C100.432311,36.0864243 102.463172,37.6844789 102.463172,41.3466872 L102.463172,51.7340418 C102.463172,52.2334339 102.629636,52.4997763 103.062442,52.5663619 L104.427447,52.7328259 L104.427447,53.065754 L96.803395,53.065754 L96.803395,52.7328259 L97.7023007,52.5663619 C98.1018144,52.4664835 98.1351072,52.2334339 98.1351072,51.7340418 L98.1351072,41.2801016 C98.1351072,39.7153399 97.5691295,38.5500918 96.1042462,38.5500918 C94.2398492,38.5500918 92.9747227,40.9471736 92.9747227,43.410841 L92.9747227,51.7340418 C92.9747227,52.2334339 93.1744795,52.4997763 93.5739931,52.5663619 L94.9722909,52.7328259 L94.9722909,53.065754 L87.3482389,53.065754 L87.3482389,52.7328259 L88.2138518,52.5663619 C88.6466583,52.4664835 88.6799511,52.2334339 88.6799511,51.7340418 L88.6799511,41.2801016 C88.6799511,39.7153399 88.0806806,38.5500918 86.6157973,38.5500918 C84.7514003,38.5500918 83.5195666,40.9471736 83.5195666,43.410841 L83.5195666,51.7340418 C83.5195666,52.2334339 83.6860306,52.4997763 84.118837,52.5663619 L85.4172563,52.7328259 L85.4172563,53.065754 L77.2938123,53.065754 L77.2938123,52.7328259 L78.6255245,52.5663619 C79.0250381,52.4997763 79.1915021,52.2334339 79.1915021,51.7340418 L79.1915021,37.9508213 C79.1915021,37.4514293 79.0250381,37.2849652 78.6255245,37.2849652 L77.2938123,37.2849652 L77.2938123,36.9520372 L83.5195666,36.0864243 L83.6527378,36.2528883 C83.5861522,36.818866 83.5195666,38.0174069 83.5195666,39.349119 L83.5195666,40.9138808 Z M107.024286,58.3926025 L107.024286,37.9508213 C107.024286,37.4514293 106.857822,37.2849652 106.425015,37.2849652 L105.093303,37.2849652 L105.093303,36.9520372 L111.319057,36.0864243 L111.485521,36.2528883 C111.385643,36.818866 111.319057,38.0174069 111.319057,39.349119 L111.319057,40.2813175 L111.385643,40.2813175 C112.118085,37.1850868 114.115653,36.0864243 115.813586,36.0864243 C119.54238,36.0864243 121.706412,39.4157046 121.706412,44.7425532 C121.706412,49.7364737 119.07628,53.398682 115.214315,53.398682 C114.015774,53.398682 112.750648,52.9658756 111.385643,51.8006275 L111.319057,51.8006275 L111.319057,58.3926025 C111.319057,58.8919945 111.518814,59.1916298 111.918328,59.2249226 L113.84931,59.3913866 L113.84931,59.7243146 L105.093303,59.7243146 L105.093303,59.3913866 L106.425015,59.2249226 C106.857822,59.158337 107.024286,58.8919945 107.024286,58.3926025 Z M111.319057,42.9447418 L111.319057,51.4011138 C111.885035,51.7340418 112.817233,51.9670915 113.649553,51.9670915 C115.547243,51.9670915 117.145298,50.2358657 117.145298,44.7425532 C117.145298,39.7153399 115.880171,38.1838709 114.115653,38.1838709 C113.01699,38.1838709 111.319057,39.3824118 111.319057,42.9447418 Z M129.530221,32.6905584 L129.530221,51.7340418 C129.530221,52.2334339 129.696685,52.4997763 130.129491,52.5663619 L131.42791,52.7328259 L131.42791,53.065754 L123.304466,53.065754 L123.304466,52.7328259 L124.636179,52.5663619 C125.035692,52.4997763 125.202156,52.2334339 125.202156,51.7340418 L125.202156,31.2922607 C125.202156,30.7928686 125.035692,30.6264046 124.636179,30.6264046 L123.304466,30.6264046 L123.304466,30.2934766 L129.530221,29.4278637 L129.663392,29.5943277 C129.596806,30.1603053 129.530221,31.3588463 129.530221,32.6905584 Z M141.082823,46.806707 L141.082823,43.8769403 L139.551354,44.5095035 C137.9533,45.275238 137.220858,46.6069501 137.220858,48.3381759 C137.220858,49.9695233 137.786836,50.868429 138.885498,50.868429 C140.21721,50.868429 141.082823,49.4701312 141.082823,46.806707 Z M145.377595,41.37998 L145.377595,51.7340418 C145.377595,52.2334339 145.577352,52.4997763 145.976865,52.5663619 L147.375163,52.7328259 L147.375163,53.065754 C145.510766,53.232218 143.679662,53.398682 142.481121,53.398682 C141.881851,53.398682 141.082823,53.232218 141.082823,52.1335555 L141.082823,49.503424 L141.016238,49.503424 C140.250503,52.2667267 138.55257,53.398682 136.388538,53.398682 C134.091335,53.398682 132.659744,51.700749 132.659744,49.4368384 C132.659744,46.973171 134.324384,45.6747517 136.921223,44.8424316 L141.082823,43.5440122 L141.082823,41.5131512 C141.082823,39.4157046 139.651233,38.3836277 138.086471,38.3836277 C136.654881,38.3836277 135.423047,38.6166774 134.024749,39.6154615 L133.891578,39.4489974 C134.723898,38.1505781 136.588295,36.0864243 139.85099,36.0864243 C142.547707,36.0864243 145.377595,37.7510645 145.377595,41.37998 Z M154.533116,36.0864243 L154.666287,36.2528883 C154.599701,36.818866 154.533116,38.0174069 154.533116,39.349119 L154.533116,40.9138808 L154.599701,40.9138808 C155.731657,37.2516724 157.629347,36.0864243 159.793379,36.0864243 C161.990704,36.0864243 163.988272,37.6844789 163.988272,41.3466872 L163.988272,51.7340418 C163.988272,52.2334339 164.188029,52.4997763 164.587542,52.5663619 L165.98584,52.7328259 L165.98584,53.065754 L158.361788,53.065754 L158.361788,52.7328259 L159.227401,52.5663619 C159.660208,52.4664835 159.6935,52.2334339 159.6935,51.7340418 L159.6935,41.2801016 C159.6935,39.7153399 159.127523,38.5500918 157.629347,38.5500918 C155.798242,38.5500918 154.533116,40.9471736 154.533116,43.410841 L154.533116,51.7340418 C154.533116,52.2334339 154.69958,52.4997763 155.132386,52.5663619 L156.430806,52.7328259 L156.430806,53.065754 L148.307362,53.065754 L148.307362,52.7328259 L149.639074,52.5663619 C150.038587,52.4997763 150.205051,52.2334339 150.205051,51.7340418 L150.205051,37.9508213 C150.205051,37.4514293 150.038587,37.2849652 149.639074,37.2849652 L148.307362,37.2849652 L148.307362,36.9520372 L154.533116,36.0864243 Z M166.618403,36.5858164 L168.283044,36.3860595 C169.015485,36.3194739 169.448292,35.9865459 169.947684,35.4205683 L172.544522,32.424216 L172.777572,32.424216 L172.777572,36.4193524 L176.240024,36.4193524 L176.240024,36.818866 L172.777572,36.818866 L172.777572,50.0028161 C172.777572,52.2001411 173.643185,52.4664835 174.575383,52.4664835 C175.174654,52.4664835 175.707339,52.2667267 176.406488,51.9337987 L176.473073,52.2334339 C175.307825,52.89929 173.776356,53.398682 172.04513,53.398682 C169.747927,53.398682 168.449508,52.5996547 168.449508,49.8696449 L168.449508,36.818866 L166.618403,36.818866 L166.618403,36.5858164 Z M183.298098,53.398682 C181.866507,53.398682 180.501502,53.1989252 178.370763,52.6662403 L178.037835,48.1717119 L178.33747,48.1717119 C179.502718,50.9350146 180.767845,53.065754 182.998463,53.065754 C184.463346,53.065754 185.495423,51.9670915 185.495423,50.1692801 C185.495423,48.3714687 184.430053,47.306099 182.13285,46.2074365 C179.436133,44.9090172 178.071128,43.5773051 178.071128,40.9138808 C178.071128,38.2504565 179.968818,36.0864243 183.697612,36.0864243 C184.996031,36.0864243 185.928229,36.2861811 188.19214,36.818866 L188.325311,41.3133944 L188.025676,41.3133944 C186.860428,38.3836277 186.094693,36.4193524 183.997247,36.4193524 C182.499071,36.4193524 181.733336,37.6178933 181.733336,39.016191 C181.733336,41.0137592 183.098341,41.7462009 184.263589,42.3121785 C187.659455,43.9768187 189.290802,45.2086524 189.290802,48.1717119 C189.290802,51.3345282 186.660671,53.398682 183.298098,53.398682 Z" id="Implants" fill="#D66E48" fill-rule="nonzero"></path>
                </g>
            </g>
        </g>
    </g>
</svg>