<?xml version="1.0" encoding="UTF-8"?>
<svg width="183px" height="60px" viewBox="0 0 183 60" version="1.1" xmlns="http://www.w3.org/2000/svg" xmlns:xlink="http://www.w3.org/1999/xlink">
    <!-- Generator: Sketch 57.1 (83088) - https://sketch.com -->
    <title>eramHygiene</title>
    <desc>Created with Sketch.</desc>
    <g id="Welcome" stroke="none" stroke-width="1" fill="none" fill-rule="evenodd">
        <g id="Desktop-HD" transform="translate(-946.000000, -1865.000000)">
            <g id="hygiene" transform="translate(742.000000, 1623.000000)">
                <g id="eramHygiene" transform="translate(204.000000, 242.000000)">
                    <g id="Group-4-Copy-2" fill="#FEFEFE">
                        <path d="M54.236196,1.49212505 C48.2722146,1.49212505 43.4199518,6.31743091 43.4199518,12.2482791 C43.4199518,18.1791272 48.2722146,23.0044331 54.236196,23.0044331 C54.5541096,23.0044331 54.8876905,22.9875546 55.2565225,22.9524992 C60.4913262,22.4305638 64.6659826,18.0895413 64.9662707,12.854607 L64.9662707,11.6055974 C64.7501938,7.85856855 62.526104,4.43482806 59.1615725,2.68400741 C58.8762989,2.53664505 58.5955948,2.40875789 58.3103212,2.29060833 C58.1164396,2.21205835 57.9166828,2.14194762 57.7162732,2.07378442 C57.7162732,2.07378442 57.4721259,1.98549683 57.4114155,1.96667081 C56.3832554,1.65182171 55.3139689,1.49212505 54.236196,1.49212505 M54.236196,24.4936368 C52.5735143,24.4936368 50.9591397,24.1677518 49.4374627,23.524421 C44.8397919,21.6126053 41.868246,17.1819969 41.868246,12.2372431 C41.868246,5.4929807 47.3857121,0.00551797387 54.1683048,0.00551797387 L54.236196,0.00292128029 C54.3256296,0.00292128029 54.4137576,0.00876384086 54.5018856,0.0146064014 L54.7414633,0.026940696 C54.8929129,0.0327832565 55.0443625,0.0386258171 55.1938537,0.0509601116 C55.4549737,0.0710844869 55.7141354,0.10224481 55.9719914,0.13859852 L56.0673002,0.153529508 C59.852235,0.718310363 63.1110129,2.97613544 64.9662707,6.26679538 L64.9662707,0.469676953 L66.4350708,0.469676953 L66.4350708,0.4807129 L66.5173236,0.4807129 L66.5173236,11.6101416 L66.5297268,11.7925593 C66.5401716,11.9438167 66.5499636,12.0950741 66.5499636,12.2482791 C66.5499636,12.401484 66.5401716,12.5527414 66.5297268,12.7033496 L66.5173236,12.8994 L66.5173236,23.8821155 L65.0204531,23.8821155 L65.0204531,23.8710796 L64.9662707,23.6276395 L64.9662707,18.2284644 C62.7976688,22.0650792 58.6902508,24.4936368 54.236196,24.4936368" id="Fill-35"></path>
                        <path d="M23.1052055,11.5035473 C22.8277654,7.44556444 20.2289684,3.84330126 16.4251024,2.27944255 C15.1332111,1.75685796 13.7675533,1.49199522 12.36795,1.49199522 C6.65529665,1.49199522 1.96427539,5.86937143 1.57716495,11.5035473 L23.1052055,11.5035473 Z M12.36795,24.493507 C10.705921,24.493507 9.09219929,24.167622 7.57052234,23.5249403 C2.97219869,21.6131246 -1.27897692e-13,17.1825162 -1.27897692e-13,12.2371133 C-1.27897692e-13,5.49285086 5.51811894,0.00603731259 12.299406,0.00603731259 L12.36795,0.00279144561 C19.1577235,0.00279144561 24.6817176,5.49609673 24.6817176,12.2481492 L24.6817176,12.9927511 L1.57716495,12.9927511 C1.96427539,18.626927 6.65529665,23.0043032 12.36795,23.0043032 C12.5696652,23.0043032 12.7700748,22.9978115 12.9691789,22.9867756 C16.1339536,22.7978661 19.0487059,21.2353057 20.9640212,18.7002836 L21.1109013,18.5055316 L21.1468053,18.5321477 L21.3641877,18.6541923 L22.365583,19.4026892 L22.218703,19.5974413 C19.8673171,22.7089293 16.2769168,24.493507 12.36795,24.493507 L12.36795,24.493507 Z" id="Fill-37"></path>
                        <path d="M75.3454653,23.8863351 L75.3454653,23.8824401 L75.2364477,23.8824401 L75.2364477,0.480388314 L76.733971,0.480388314 L76.733971,0.484932527 L76.8142654,0.484932527 L76.8142654,4.24948905 C78.343776,1.88000616 80.857709,0.332376779 83.7006533,0.0525830451 L83.7678917,0.0454421378 C84.0485957,0.0201243753 84.3306053,0.00259669359 84.6178374,0.00259669359 L84.6857286,2.48689958e-14 C84.841095,2.48689958e-14 84.994503,0.00973760095 85.147911,0.0207735487 L85.3874887,0.0350553634 C88.834273,0.292128029 91.8417229,2.44219032 93.209339,5.57510113 C94.5443151,2.51749443 97.4675538,0.37457305 100.818377,0.0506355249 C101.136943,0.0201243753 101.426133,0.00259669359 101.719893,0.00259669359 L101.787785,2.48689958e-14 C106.916182,2.48689958e-14 111.087574,4.148218 111.087574,9.24812421 L111.086922,23.8824401 L109.590051,23.8824401 L109.590051,23.8714041 L109.535869,23.6279641 L109.535869,9.23708826 C109.535869,6.1152134 107.665596,3.30624011 104.771081,2.08060074 C103.821257,1.6885 102.81725,1.48920377 101.787785,1.48920377 C97.4975826,1.48920377 93.9979215,4.9609831 93.9868239,9.22799983 L93.9881295,23.8824401 L92.4906061,23.8824401 L92.4906061,23.870755 L92.4364237,23.6279641 L92.4344653,9.23773743 C92.4344653,6.11586257 90.5635404,3.30688928 87.6690249,2.08124991 C86.7198536,1.6885 85.7158471,1.48920377 84.6857286,1.48920377 C80.3837762,1.48920377 76.8834622,4.96942235 76.8834622,9.24812421 L76.8828094,23.8824401 L76.5694654,23.8863351 L75.3454653,23.8863351 Z" id="Fill-39"></path>
                        <path d="M31.272844,23.8822453 L31.272844,23.8712094 L31.2186616,23.6277694 L31.2186616,0.469806787 L32.6874617,0.469806787 L32.6874617,0.480842735 L32.7703674,0.480842735 L32.7703674,4.63295578 C34.1471227,1.97199403 36.3320445,0.36139483 39.0170112,0.0595292005 C39.3936768,0.0186312765 39.6685056,0.00305111496 39.9335425,0.00305111496 L40.1783425,0.00305111496 L40.2468865,0.243245272 L40.2468865,1.48900902 L40.0020865,1.48900902 C35.6093948,1.48900902 32.7703674,5.52427085 32.7703674,11.7699681 L32.7703674,23.8822453 L31.272844,23.8822453 Z" id="Fill-41"></path>
                    </g>
                    <path d="M74.029812,41.7462009 L74.029812,51.7340418 C74.029812,52.2334339 74.196276,52.5330691 74.6290825,52.5663619 L76.1938442,52.7328259 L76.1938442,53.065754 L66.9717377,53.065754 L66.9717377,52.7328259 L68.5697923,52.5663619 C69.0025987,52.5330691 69.1690628,52.2334339 69.1690628,51.7340418 L69.1690628,31.7583599 C69.1690628,31.2589678 69.0025987,30.9593326 68.5697923,30.9260398 L66.9717377,30.7595758 L66.9717377,30.4266478 L76.1938442,30.4266478 L76.1938442,30.7595758 L74.6290825,30.9260398 C74.196276,30.9593326 74.029812,31.2589678 74.029812,31.7583599 L74.029812,41.4132728 L81.6871568,41.4132728 L81.6871568,31.7583599 C81.6871568,31.2589678 81.5206928,30.9593326 81.1211791,30.9260398 L79.5231246,30.7595758 L79.5231246,30.4266478 L88.7452311,30.4266478 L88.7452311,30.7595758 L87.1471765,30.9260398 C86.7476629,30.9593326 86.547906,31.2589678 86.547906,31.7583599 L86.547906,51.7340418 C86.547906,52.2334339 86.7476629,52.5330691 87.1471765,52.5663619 L88.7452311,52.7328259 L88.7452311,53.065754 L79.5231246,53.065754 L79.5231246,52.7328259 L81.1211791,52.5663619 C81.5206928,52.5330691 81.6871568,52.2334339 81.6871568,51.7340418 L81.6871568,41.7462009 L74.029812,41.7462009 Z M98.5000224,56.1286919 L91.5418265,37.8842357 C91.3420697,37.3848436 91.1423129,37.0186228 90.7095065,36.9187444 L89.943772,36.7522804 L89.943772,36.4193524 L98.3335584,36.4193524 L98.3335584,36.7522804 L97.0351391,36.9187444 C96.2694046,37.0186228 96.369283,37.6844789 96.535747,38.1505781 L100.597469,49.5367168 L100.664055,49.5367168 L103.6937,38.9496054 C103.893457,38.3170421 103.560529,37.7510645 102.86138,37.4514293 L101.163447,36.7522804 L101.163447,36.4193524 L107.322615,36.4193524 L107.322615,36.7522804 L105.491511,37.4514293 C104.858948,37.6844789 104.226385,38.4169205 104.026628,39.0827766 L100.164663,52.5663619 C98.9661217,56.6946695 98.067216,59.7243146 94.4715932,59.7243146 C93.0732955,59.7243146 91.7415834,59.2582154 91.7415834,57.9265033 C91.7415834,56.4616199 93.4728091,56.1619847 94.338422,57.5269896 C94.7712284,58.0929673 95.4037917,58.7921161 96.1695262,58.7921161 C97.0684319,58.7921161 97.8341663,57.9597961 98.5000224,56.1286919 Z M117.243871,54.0978309 L111.983608,53.8314885 C111.550801,54.3308805 111.317752,55.1964934 111.317752,55.9955207 C111.317752,57.4936968 112.016901,59.3913866 115.113131,59.3913866 C118.808632,59.3913866 120.073759,58.1928457 120.073759,56.1286919 C120.073759,54.5639301 118.508997,54.1644165 117.243871,54.0978309 Z M113.381905,47.5724414 L113.381905,47.5058558 C110.318968,46.5736573 109.220305,44.1099899 109.220305,41.9126649 C109.220305,38.5833846 111.550801,36.0864243 115.379474,36.0864243 C116.478136,36.0864243 117.443627,36.2861811 118.275948,36.6856948 C118.77534,36.4193524 120.406687,35.5537395 121.638521,35.5537395 C122.903647,35.5537395 123.336454,36.2861811 123.336454,36.9520372 C123.336454,37.9175285 122.304377,38.2171637 121.605228,37.8509429 C120.373394,37.1850868 119.507781,36.818866 118.675461,36.8521588 L118.675461,36.9187444 C120.506565,37.9508213 121.538642,39.8485111 121.538642,41.9126649 C121.538642,45.2419452 119.174853,47.7389055 115.379474,47.7389055 C113.748126,47.7389055 112.549585,47.8054911 112.549585,48.9041536 C112.549585,49.8030593 113.415198,49.9695233 114.347397,50.0028161 L118.176069,50.1692801 C121.372178,50.3024513 123.53621,51.4676994 123.53621,54.3308805 C123.53621,58.1928457 118.941804,59.7243146 115.079838,59.7243146 C111.883729,59.7243146 108.487863,59.2582154 108.487863,56.5947911 C108.487863,54.5972229 110.518724,53.9313669 111.65068,53.73161 L111.65068,53.6650244 C110.385553,53.1989252 109.686404,52.4997763 109.686404,51.0016002 C109.686404,49.3036672 111.284459,47.9386623 113.381905,47.5724414 Z M115.379474,47.4059774 C117.110699,47.4059774 117.510213,45.2419452 117.510213,41.9126649 C117.510213,38.5833846 117.110699,36.4193524 115.379474,36.4193524 C113.648248,36.4193524 113.215441,38.5833846 113.215441,41.9126649 C113.215441,45.2419452 113.648248,47.4059774 115.379474,47.4059774 Z M125.966585,31.7250671 C125.966585,30.2601838 127.065248,29.3945709 128.430253,29.3945709 C129.82855,29.3945709 130.927213,30.2601838 130.927213,31.7250671 C130.927213,33.1899504 129.82855,34.0888561 128.430253,34.0888561 C127.065248,34.0888561 125.966585,33.1899504 125.966585,31.7250671 Z M130.594285,39.349119 L130.594285,51.7340418 C130.594285,52.2334339 130.760749,52.4997763 131.193555,52.5663619 L132.491975,52.7328259 L132.491975,53.065754 L124.368531,53.065754 L124.368531,52.7328259 L125.700243,52.5663619 C126.099756,52.4997763 126.26622,52.2334339 126.26622,51.7340418 L126.26622,37.9508213 C126.26622,37.4514293 126.099756,37.2849652 125.700243,37.2849652 L124.368531,37.2849652 L124.368531,36.9520372 L130.594285,36.0864243 L130.727456,36.2528883 C130.66087,36.818866 130.594285,38.0174069 130.594285,39.349119 Z M141.614203,36.4193524 C139.583342,36.4193524 138.484679,39.2159478 138.284922,43.0446202 L143.84482,43.0446202 C144.410798,38.7165558 143.511892,36.4193524 141.614203,36.4193524 Z M147.6402,43.410841 L138.284922,43.410841 C138.118458,48.4380543 140.049441,51.534285 143.412014,51.534285 C144.876897,51.534285 146.142024,50.9350146 147.307272,49.7697665 L147.473736,49.9029377 C146.441659,51.6341634 144.277627,53.398682 141.381153,53.398682 C137.286138,53.398682 133.723808,50.4356225 133.723808,44.8757244 C133.723808,39.016191 137.918701,36.0864243 141.614203,36.0864243 C144.843605,36.0864243 148.505813,37.5513077 147.6402,43.410841 Z M155.630473,36.0864243 L155.763644,36.2528883 C155.697058,36.818866 155.630473,38.0174069 155.630473,39.349119 L155.630473,40.9138808 L155.697058,40.9138808 C156.829014,37.2516724 158.726703,36.0864243 160.890736,36.0864243 C163.088061,36.0864243 165.085629,37.6844789 165.085629,41.3466872 L165.085629,51.7340418 C165.085629,52.2334339 165.285386,52.4997763 165.684899,52.5663619 L167.083197,52.7328259 L167.083197,53.065754 L159.459145,53.065754 L159.459145,52.7328259 L160.324758,52.5663619 C160.757564,52.4664835 160.790857,52.2334339 160.790857,51.7340418 L160.790857,41.2801016 C160.790857,39.7153399 160.22488,38.5500918 158.726703,38.5500918 C156.895599,38.5500918 155.630473,40.9471736 155.630473,43.410841 L155.630473,51.7340418 C155.630473,52.2334339 155.796937,52.4997763 156.229743,52.5663619 L157.528163,52.7328259 L157.528163,53.065754 L149.404719,53.065754 L149.404719,52.7328259 L150.736431,52.5663619 C151.135944,52.4997763 151.302408,52.2334339 151.302408,51.7340418 L151.302408,37.9508213 C151.302408,37.4514293 151.135944,37.2849652 150.736431,37.2849652 L149.404719,37.2849652 L149.404719,36.9520372 L155.630473,36.0864243 Z M176.172132,36.4193524 C174.141271,36.4193524 173.042609,39.2159478 172.842852,43.0446202 L178.40275,43.0446202 C178.968728,38.7165558 178.069822,36.4193524 176.172132,36.4193524 Z M182.19813,43.410841 L172.842852,43.410841 C172.676388,48.4380543 174.607371,51.534285 177.969944,51.534285 C179.434827,51.534285 180.699954,50.9350146 181.865202,49.7697665 L182.031666,49.9029377 C180.999589,51.6341634 178.835557,53.398682 175.939083,53.398682 C171.844068,53.398682 168.281738,50.4356225 168.281738,44.8757244 C168.281738,39.016191 172.476631,36.0864243 176.172132,36.0864243 C179.401534,36.0864243 183.063743,37.5513077 182.19813,43.410841 Z" id="Hygiene" fill="#D66E48" fill-rule="nonzero"></path>
                </g>
            </g>
        </g>
    </g>
</svg>