<?xml version="1.0" encoding="UTF-8"?>
<svg width="134px" height="103px" viewBox="0 0 134 103" version="1.1" xmlns="http://www.w3.org/2000/svg" xmlns:xlink="http://www.w3.org/1999/xlink">
    <!-- Generator: Sketch 57.1 (83088) - https://sketch.com -->
    <title>Logo</title>
    <desc>Created with Sketch.</desc>
    <defs>
        <polygon id="path-1" points="0 103 134 103 134 0 0 0"></polygon>
    </defs>
    <g id="Welcome" stroke="none" stroke-width="1" fill="none" fill-rule="evenodd">
        <g id="Desktop-HD" transform="translate(-652.000000, -36.000000)">
            <g id="Logo" transform="translate(652.000000, 36.000000)">
                <path d="M17.0979942,62.5763614 C19.5895555,62.5763614 20.5971547,60.5246521 20.5971547,58.5 C20.5971547,56.170761 19.5346823,54.4236386 16.9620041,54.4236386 L15.5456393,54.4236386 L15.5456393,62.5763614 L17.0979942,62.5763614 Z M13,63 L13,62.6559869 L13.9662455,62.5763614 C14.1706283,62.5632194 14.2390209,62.4441677 14.2390209,62.2454905 L14.2390209,54.7545095 C14.2390209,54.5558323 14.1706283,54.4367806 13.9662455,54.4236386 L13,54.3440131 L13,54 L17.2069453,54 C20.1478307,54 22,55.6806391 22,58.5 C22,61.1469679 20.1343112,63 17.2069453,63 L13,63 Z" id="Fill-1" fill="#FEFEFE"></path>
                <path d="M26.3133078,58.7330113 L29.8729174,58.7330113 C30.0626789,57.2257666 29.4269779,56.4041334 28.3437559,56.4041334 C27.2202097,56.4041334 26.4485129,57.4404133 26.3133078,58.7330113 L26.3133078,58.7330113 Z M26.2998663,59.1229922 C26.1915441,61.1153544 27.2470925,62.3136022 28.7904862,62.3136022 C29.5890658,62.3136022 30.1844426,61.9503538 30.6722878,61.5328541 L30.8754907,61.7883859 C30.401087,62.3945861 29.5353001,63 28.316873,63 C26.2729835,63 25,61.5462204 25,59.5137594 C25,57.2658654 26.6785987,56 28.3706388,56 C29.738503,56 31.281106,56.7949006 30.9561394,59.1229922 L26.2998663,59.1229922 Z" id="Fill-3" fill="#FEFEFE"></path>
                <path d="M36.5154556,56.1098385 C36.44721,56.3848356 36.4054597,56.7961287 36.4054597,57.262742 L36.4054597,57.9626618 L36.4327579,57.9626618 C37.010839,56.5219333 37.9317543,56 38.9482136,56 C39.9108792,56 40.8044962,56.6037109 40.8044962,58.1141908 L40.8044962,62.2183026 C40.8044962,62.4235483 40.8727419,62.5333868 41.0790847,62.5614477 L42,62.6432253 L42,63 L38.6736251,63 L38.6736251,62.6432253 L39.3472501,62.5614477 C39.5399438,62.5333868 39.5945403,62.4235483 39.5945403,62.2183026 L39.5945403,58.2649181 C39.5945403,57.4415302 39.2918507,56.8514489 38.3436371,56.8514489 C37.0517864,56.8514489 36.4054597,58.2921773 36.4054597,59.4314512 L36.4054597,62.2183026 C36.4054597,62.4235483 36.4745082,62.5333868 36.6808511,62.5614477 L37.6017664,62.6432253 L37.6017664,63 L34,63 L34,62.6432253 L34.9209153,62.5614477 C35.1272581,62.5478181 35.1955038,62.4235483 35.1955038,62.2183026 L35.1955038,56.9332264 C35.1955038,56.7279808 35.1272581,56.659031 34.9209153,56.659031 L34,56.659031 L34,56.3022563 L36.4054597,56 L36.5154556,56.1098385 Z" id="Fill-5" fill="#FEFEFE"></path>
                <path d="M44.8180631,56.536807 C45.0479567,56.5115891 45.1755925,56.3714074 45.2778503,56.1815316 L45.8406419,55 L46.1212913,55 L46.1212913,56.524198 L47.8723642,56.524198 L47.8723642,56.9306508 L46.1212913,56.9306508 L46.1212913,61.5781569 C46.1212913,62.3272761 46.4407539,62.4667161 46.9781676,62.4667161 C47.2207501,62.4667161 47.5782795,62.3903208 47.92312,62.2256629 L48,62.5557204 C47.5909685,62.7967736 46.9781676,63 46.3773092,63 C45.5465572,63 44.997201,62.7841647 44.997201,61.7554237 L44.997201,56.9306508 L44,56.9306508 L44,56.6384202 L44.8180631,56.536807 Z" id="Fill-7" fill="#FEFEFE"></path>
                <path d="M54.7801926,59.3116927 L53.4102247,59.7291924 C52.446283,60.0389756 52.2054828,60.5767719 52.2054828,61.1696058 C52.2054828,61.8827362 52.572981,62.2593508 53.2583354,62.2593508 C54.1585577,62.2593508 54.7801926,61.4251376 54.7801926,60.2811412 L54.7801926,59.3116927 Z M55.8967646,62.1115354 C55.8967646,62.3136022 55.9597431,62.4346849 56.1501605,62.4480512 L57,62.5156689 L57,62.8655509 C56.2901951,62.9323823 55.8204495,63 55.3640405,63 C54.9580143,63 54.7801926,62.8521847 54.7801926,62.4889363 L54.7801926,61.5328541 L54.7550012,61.5328541 C54.3741665,62.5290352 53.6006421,63 52.7122746,63 C51.6342307,63 51,62.2868696 51,61.398405 C51,60.3888577 51.5838479,59.8101763 53.0301309,59.4060429 L54.7801926,58.9350781 L54.7801926,58.0190947 C54.7801926,57.2792317 54.3741665,56.7005504 53.4361571,56.7005504 C52.738207,56.7005504 52.116572,56.9694485 51.6090393,57.3193306 L51.4312176,57.0905313 C51.7105458,56.7272829 52.572981,56 53.8414423,56 C55.0469252,56 55.8967646,56.6596653 55.8967646,57.8445468 L55.8967646,62.1115354 Z" id="Fill-9" fill="#FEFEFE"></path>
                <path d="M61.6720178,62.1971043 C61.6720178,62.4085225 61.7478261,62.5212241 61.9770346,62.5491938 L63,62.6339256 L63,63 L59,63 L59,62.6339256 L60.0229654,62.5491938 C60.2521739,62.535209 60.3279822,62.4085225 60.3279822,62.1971043 L60.3279822,53.9583745 C60.3279822,53.7469562 60.2521739,53.6762093 60.0229654,53.6762093 L59,53.6762093 L59,53.3101349 L61.6720178,53 L61.7942029,53.1127015 C61.7175028,53.3948667 61.6720178,53.8168806 61.6720178,54.2964791 L61.6720178,62.1971043 Z" id="Fill-11" fill="#FEFEFE"></path>
                <path d="M72.6340902,62.2454905 C72.6340902,62.4573097 72.7040145,62.5632194 72.9154327,62.5763614 L73.9157618,62.6559869 L73.9157618,63 L70,63 L70,62.6559869 L71.0003291,62.5763614 C71.2117473,62.5632194 71.2816716,62.4441677 71.2816716,62.2454905 L71.2816716,54.7545095 C71.2816716,54.5558323 71.2117473,54.4367806 71.0003291,54.4236386 L70,54.3440131 L70,54 L73.9157618,54 L73.9157618,54.3440131 L72.9154327,54.4236386 C72.7040145,54.4367806 72.6340902,54.5426903 72.6340902,54.7545095 L72.6340902,58.2085552 L77.3659098,58.2085552 L77.3659098,54.7545095 C77.3659098,54.5558323 77.2959855,54.4367806 77.0845673,54.4236386 L76.0842382,54.3440131 L76.0842382,54 L80,54 L80,54.3440131 L78.9996709,54.4236386 C78.7882527,54.4367806 78.7183284,54.5426903 78.7183284,54.7545095 L78.7183284,62.2454905 C78.7183284,62.4573097 78.7882527,62.5632194 78.9996709,62.5763614 L80,62.6559869 L80,63 L76.0842382,63 L76.0842382,62.6559869 L77.0845673,62.5763614 C77.2959855,62.5632194 77.3659098,62.4441677 77.3659098,62.2454905 L77.3659098,58.6584779 L72.6340902,58.6584779 L72.6340902,62.2454905 Z" id="Fill-13" fill="#FEFEFE"></path>
                <path d="M84.3133117,58.7330113 L87.8729321,58.7330113 C88.0626942,57.2257666 87.4269912,56.4041334 86.343766,56.4041334 C85.2202163,56.4041334 84.4485172,57.4404133 84.3133117,58.7330113 L84.3133117,58.7330113 Z M84.2998703,59.1229922 C84.1915477,61.1153544 85.2470993,62.3136022 86.7904976,62.3136022 C87.5890797,62.3136022 88.1844582,61.9503538 88.6723049,61.5328541 L88.8755084,61.7883859 C88.4011032,62.3945861 87.5353137,63 86.316883,63 C84.2721966,63 83,61.5462204 83,59.5137594 C83,57.2658654 84.6786037,56 86.370649,56 C87.7377266,56 89.2811249,56.7949006 88.9561573,59.1229922 L84.2998703,59.1229922 Z" id="Fill-15" fill="#FEFEFE"></path>
                <path d="M95.7801926,59.3116927 L94.4102247,59.7291924 C93.446283,60.0389756 93.2054828,60.5767719 93.2054828,61.1696058 C93.2054828,61.8827362 93.572981,62.2593508 94.2583354,62.2593508 C95.1585577,62.2593508 95.7801926,61.4251376 95.7801926,60.2811412 L95.7801926,59.3116927 Z M96.8967646,62.1115354 C96.8967646,62.3136022 96.9597431,62.4346849 97.1501605,62.4480512 L98,62.5156689 L98,62.8655509 C97.2901951,62.9323823 96.8204495,63 96.3640405,63 C95.9580143,63 95.7801926,62.8521847 95.7801926,62.4889363 L95.7801926,61.5328541 L95.7550012,61.5328541 C95.3741665,62.5290352 94.6006421,63 93.7122746,63 C92.6342307,63 92,62.2868696 92,61.398405 C92,60.3888577 92.5838479,59.8101763 94.0301309,59.4060429 L95.7801926,58.9350781 L95.7801926,58.0190947 C95.7801926,57.2792317 95.3741665,56.7005504 94.4361571,56.7005504 C93.738207,56.7005504 93.116572,56.9694485 92.6090393,57.3193306 L92.4312176,57.0905313 C92.7105458,56.7272829 93.572981,56 94.8414423,56 C96.0469252,56 96.8967646,56.6596653 96.8967646,57.8445468 L96.8967646,62.1115354 Z" id="Fill-17" fill="#FEFEFE"></path>
                <path d="M102.672018,62.1971043 C102.672018,62.4085225 102.747826,62.5212241 102.977035,62.5491938 L104,62.6339256 L104,63 L100,63 L100,62.6339256 L101.022965,62.5491938 C101.252174,62.535209 101.327982,62.4085225 101.327982,62.1971043 L101.327982,53.9583745 C101.327982,53.7469562 101.252174,53.6762093 101.022965,53.6762093 L100,53.6762093 L100,53.3101349 L102.672018,53 L102.794203,53.1127015 C102.717503,53.3948667 102.672018,53.8168806 102.672018,54.2964791 L102.672018,62.1971043 Z" id="Fill-19" fill="#FEFEFE"></path>
                <path d="M106.818063,56.536807 C107.047957,56.5115891 107.175592,56.3714074 107.27785,56.1815316 L107.840642,55 L108.121291,55 L108.121291,56.524198 L109.872364,56.524198 L109.872364,56.9306508 L108.121291,56.9306508 L108.121291,61.5781569 C108.121291,62.3272761 108.440754,62.4667161 108.978168,62.4667161 C109.22075,62.4667161 109.57828,62.3903208 109.92312,62.2256629 L110,62.5557204 C109.590968,62.7967736 108.978168,63 108.377309,63 C107.546557,63 106.997201,62.7841647 106.997201,61.7554237 L106.997201,56.9306508 L106,56.9306508 L106,56.6384202 L106.818063,56.536807 Z" id="Fill-21" fill="#FEFEFE"></path>
                <path d="M115.515456,53.1127015 C115.44721,53.3948667 115.40546,53.8168806 115.40546,54.2956565 L115.40546,57.8305364 L115.432758,57.8305364 C116.010036,56.352254 116.931754,55.816716 117.948214,55.816716 C118.910879,55.816716 119.804496,56.4369859 119.804496,57.9860151 L119.804496,62.1971043 C119.804496,62.4085225 119.872742,62.5212241 120.079085,62.5491938 L121,62.633103 L121,63 L117.673625,63 L117.673625,62.633103 L118.34725,62.5491938 C118.539944,62.5212241 118.59454,62.4085225 118.59454,62.1971043 L118.59454,58.1406713 C118.59454,57.295821 118.291851,56.6903587 117.343637,56.6903587 C116.051786,56.6903587 115.40546,58.168641 115.40546,59.3376111 L115.40546,62.1971043 C115.40546,62.4085225 115.474508,62.5212241 115.680851,62.5491938 L116.601766,62.633103 L116.601766,63 L113,63 L113,62.633103 L113.920915,62.5491938 C114.127258,62.535209 114.195504,62.4085225 114.195504,62.1971043 L114.195504,53.9575518 C114.195504,53.7469562 114.127258,53.6762093 113.920915,53.6762093 L113,53.6762093 L113,53.3101349 L115.40546,53 L115.515456,53.1127015 Z" id="Fill-23" fill="#FEFEFE"></path>
                <mask id="mask-2" fill="white">
                    <use xlink:href="#path-1"></use>
                </mask>
                <g id="Clip-26"></g>
                <polygon id="Fill-25" fill="#FEFEFE" mask="url(#mask-2)" points="1 77 35 77 35 76 1 76"></polygon>
                <polygon id="Fill-27" fill="#FEFEFE" mask="url(#mask-2)" points="98 77 133 77 133 76 98 76"></polygon>
                <path d="M53,78.2484608 C52.499795,80.3570886 50.9581796,81 49.5141451,81 C46.8335383,81 45,79.122881 45,76.4996205 C45,73.8900228 46.9721197,72 49.6109061,72 C51,72 52.0832308,72.3734503 52.7220172,72.6945264 L52.7220172,74.7257316 L52.3612136,74.7257316 C51.9585896,72.8615164 50.9860599,72.385595 49.6666667,72.385595 C47.7913079,72.385595 46.4309143,73.8513115 46.4309143,76.4996205 C46.4309143,79.1608333 47.8060681,80.5749346 49.6109061,80.5749346 C50.8614186,80.5749346 52.1529315,79.9327823 52.5694957,78.1452307 L53,78.2484608 Z" id="Fill-28" fill="#FEFEFE" mask="url(#mask-2)"></path>
                <path d="M57.0036052,79.2777547 C57.0036052,79.4678586 57.0610635,79.5688981 57.2327625,79.5943451 L58,79.6706861 L58,80 L55,80 L55,79.6706861 L55.7672375,79.5943451 C55.9389365,79.5816216 55.9963948,79.4678586 55.9963948,79.2777547 L55.9963948,71.8622037 C55.9963948,71.6720998 55.9389365,71.6084823 55.7672375,71.6084823 L55,71.6084823 L55,71.27842 L57.0036052,71 L57.0955385,71.1010395 C57.0380802,71.3547609 57.0036052,71.7349688 57.0036052,72.1660707 L57.0036052,79.2777547 Z" id="Fill-29" fill="#FEFEFE" mask="url(#mask-2)"></path>
                <path d="M62.5,71 C62.8548896,71 63.1300135,71.2595712 63.1300135,71.661562 C63.1300135,72.0635528 62.8548896,72.3353752 62.5,72.3353752 C62.1451104,72.3353752 61.8591708,72.0635528 61.8591708,71.661562 C61.8591708,71.2595712 62.1451104,71 62.5,71 L62.5,71 Z M63.0036052,79.2611026 C63.0036052,79.4555896 63.0610635,79.5589587 63.2327625,79.5849923 L64,79.6630934 L64,80 L61,80 L61,79.6630934 L61.7672375,79.5849923 C61.9389365,79.5727412 61.9963948,79.4555896 61.9963948,79.2611026 L61.9963948,74.2679939 C61.9963948,74.0735069 61.9389365,74.0084227 61.7672375,74.0084227 L61,74.0084227 L61,73.6715161 L63.0036052,73.3859112 L63.0955385,73.4900459 C63.0380802,73.7496172 63.0036052,74.1385911 63.0036052,74.5796325 L63.0036052,79.2611026 Z" id="Fill-30" fill="#FEFEFE" mask="url(#mask-2)"></path>
                <path d="M69.5157233,74.109413 C69.4467438,74.3841612 69.4053561,74.7958782 69.4053561,75.262707 L69.4053561,75.9621396 L69.4329479,75.9621396 C70.0107527,74.52113 70.931832,74 71.9486711,74 C72.9111382,74 73.8038142,74.6037976 73.8038142,76.1136969 L73.8038142,80.2178997 C73.8038142,80.4237582 73.8727937,80.5339817 74.0789207,80.5607271 L75,80.6433947 L75,81 L71.6735646,81 L71.6735646,80.6433947 L72.3471292,80.5607271 C72.5394603,80.5339817 72.5946439,80.4237582 72.5946439,80.2178997 L72.5946439,76.2644437 C72.5946439,75.4410096 72.2919456,74.8509899 71.3432745,74.8509899 C70.0521404,74.8509899 69.4053561,76.2919995 69.4053561,77.4315156 L69.4053561,80.2178997 C69.4053561,80.4237582 69.4743356,80.5339817 69.6804626,80.5607271 L70.6015419,80.6433947 L70.6015419,81 L67,81 L67,80.6433947 L67.9210793,80.5607271 C68.1272063,80.5477596 68.1961858,80.4237582 68.1961858,80.2178997 L68.1961858,74.9328471 C68.1961858,74.7269885 68.1272063,74.6580989 67.9210793,74.6580989 L67,74.6580989 L67,74.3014936 L69.4053561,74 L69.5157233,74.109413 Z" id="Fill-31" fill="#FEFEFE" mask="url(#mask-2)"></path>
                <path d="M78.5,71 C78.8548896,71 79.1300135,71.2595712 79.1300135,71.661562 C79.1300135,72.0635528 78.8548896,72.3353752 78.5,72.3353752 C78.1451104,72.3353752 77.8591708,72.0635528 77.8591708,71.661562 C77.8591708,71.2595712 78.1451104,71 78.5,71 L78.5,71 Z M79.0036052,79.2611026 C79.0036052,79.4555896 79.0610635,79.5589587 79.2327625,79.5849923 L80,79.6630934 L80,80 L77,80 L77,79.6630934 L77.7672375,79.5849923 C77.9389365,79.5727412 77.9963948,79.4555896 77.9963948,79.2611026 L77.9963948,74.2679939 C77.9963948,74.0735069 77.9389365,74.0084227 77.7672375,74.0084227 L77,74.0084227 L77,73.6715161 L79.0036052,73.3859112 L79.0955385,73.4900459 C79.0380802,73.7496172 79.0036052,74.1385911 79.0036052,74.5796325 L79.0036052,79.2611026 Z" id="Fill-32" fill="#FEFEFE" mask="url(#mask-2)"></path>
                <path d="M83,77.5135104 C83,75.2254768 84.7695552,74 86.5391103,74 C87.9487145,74 88.958373,74.5118074 88.958373,75.0101045 C88.958373,75.5076067 88.3911033,75.6427112 88.1290981,75.3597866 C87.700585,74.9425522 87.3822609,74.4037239 86.511359,74.4037239 C85.0185009,74.4037239 84.3132907,75.75 84.3132907,77.1765441 C84.3132907,79.2770209 85.3360087,80.3133515 86.8704938,80.3133515 C87.7136444,80.3133515 88.3086655,79.9366485 88.7926813,79.5329246 L89,79.7880336 C88.5159842,80.380109 87.6450823,81 86.386478,81 C84.2855394,81 83,79.5329246 83,77.5135104" id="Fill-33" fill="#FEFEFE" mask="url(#mask-2)"></path>
                <polygon id="Fill-34" fill="#FEFEFE" mask="url(#mask-2)" points="1 42 133 42 133 41 1 41"></polygon>
                <path d="M65.0329287,1.82420612 C57.783861,1.82420612 51.8860589,7.73498383 51.8860589,15 C51.8860589,22.2650162 57.783861,28.1757939 65.0329287,28.1757939 C65.4193446,28.1757939 65.8248036,28.1551185 66.2731096,28.1121773 C72.6358803,27.4728304 77.710069,22.1552775 78.0750615,15.7427239 L78.0750615,14.2127445 C77.8124256,9.62280655 75.109101,5.42888194 71.0195985,3.28420718 C70.6728557,3.10369506 70.3316671,2.94703918 69.9849242,2.8023114 C69.749266,2.70609129 69.5064667,2.62020887 69.2628739,2.53671208 C69.2628739,2.53671208 68.9661192,2.42856386 68.8923272,2.40550284 C67.6426248,2.01982717 66.3429342,1.82420612 65.0329287,1.82420612 M65.0329287,30 C63.0119813,30 61.0497501,29.6008058 59.2001904,28.8127551 C53.6118385,26.4708689 50,21.0435774 50,14.9864815 C50,6.72507024 56.7063398,0.0031808302 64.9504086,0.0031808302 L65.0329287,0 C65.1416329,0 65.2487503,0.00715686794 65.3558677,0.0143137359 L65.6470682,0.0294226793 C65.8311513,0.0365795473 66.0152345,0.0437364152 66.1969372,0.0588453586 C66.514322,0.0834967927 66.8293264,0.121666755 67.1427438,0.166198378 L67.2585892,0.184488151 C71.8590812,0.876318719 75.8200428,3.64205058 78.0750615,7.67295764 L78.0750615,0.571754228 L79.8603507,0.571754228 L79.8603507,0.585272756 L79.9603269,0.585272756 L79.9603269,14.218311 L79.9754027,14.4417643 C79.9880981,14.6270477 80,14.812331 80,15 C80,15.187669 79.9880981,15.3729523 79.9754027,15.5574405 L79.9603269,15.7975932 L79.9603269,29.2509145 L78.1409188,29.2509145 L78.1409188,29.237396 L78.0750615,28.9391931 L78.0750615,22.3254519 C75.4391811,27.0251286 70.446719,30 65.0329287,30" id="Fill-35" fill="#FEFEFE" mask="url(#mask-2)"></path>
                <path d="M65.0322882,27.6265724 C58.0852719,27.6265724 52.432895,21.9620023 52.432895,15 C52.432895,8.03799771 58.0852719,2.37342759 65.0322882,2.37342759 C66.2880261,2.37342759 67.5328717,2.56133694 68.7325916,2.93091797 C68.7963899,2.95197006 68.8640784,2.97614097 68.9309889,3.00109159 L69.0827044,3.05567107 C69.3192251,3.13676058 69.5518556,3.2186298 69.7798179,3.31141491 C70.135377,3.46033891 70.4551467,3.60926292 70.7531316,3.76442458 C74.6868435,5.82752885 77.2784564,9.84691756 77.5297596,14.2616176 L77.5289816,15.7453997 C77.1796468,21.8575216 72.3161908,26.9536854 66.2172256,27.566535 C65.7908659,27.6070797 65.4018517,27.6265724 65.0322882,27.6265724 M65.0322882,0 L65.0105034,0 L64.9521512,0.00389853415 L64.9513732,0.00389853415 C56.7073835,0.00389853415 50,6.72497141 50,14.986745 C50,21.0442873 53.6123862,26.4718266 59.2017428,28.8140659 C61.0487824,29.6007901 63.0109702,30 65.0322882,30 C70.0933634,30 74.7848751,27.4012371 77.5289816,23.2243476 L77.5289816,28.667481 L77.5289816,29.2522611 L77.5935579,29.2522611 L78.1770793,29.2662959 L79.3775772,29.2662959 L79.9610986,29.2662959 L79.9610986,28.6815158 L79.9610986,15.7664518 L79.9751031,15.5668469 C79.9883296,15.3789375 80,15.1910282 80,15 C80,14.8089718 79.9883296,14.6210625 79.9751031,14.4331531 L79.9603205,14.2023599 L79.9610986,1.15864435 L79.9610986,0.573864227 L79.863067,0.573864227 L79.2795456,0.560609211 L78.1125029,0.560609211 L77.5289816,0.560609211 L77.5289816,1.14538933 L77.5289816,6.77097411 C75.2112347,3.2311051 71.5070412,0.823370413 67.2582277,0.184010812 L67.2037657,0.175434037 L67.1485256,0.167636968 C66.7921886,0.116176318 66.4825333,0.0810895103 66.1946627,0.0592577191 C66.0149381,0.0436635825 65.8297674,0.036646221 65.6453746,0.0296288595 L65.5543453,0.0265100322 C65.491325,0.0241709117 65.4306388,0.0194926708 65.3691745,0.0155941366 C65.2579164,0.0077970683 65.1458803,0 65.0322882,0 M65.0322882,28.2113525 C65.4524236,28.2113525 65.8663347,28.1871816 66.2755777,28.1481963 C72.6834202,27.5041584 77.7421614,22.2442562 78.1125029,15.7453997 L78.1125029,14.2280902 C77.840193,9.45706414 75.0416245,5.3534671 71.03789,3.2537166 C71.0332218,3.25137748 71.0277756,3.24903836 71.0231074,3.24591953 C70.6901113,3.07282462 70.3485568,2.91610355 70,2.77029837 C69.7619233,2.67283501 69.5184004,2.58706726 69.2740994,2.50363863 C69.1503929,2.46075476 69.0290205,2.41163323 68.9045359,2.37186818 C67.6791411,1.99449007 66.3790555,1.78864747 65.0322882,1.78864747 C57.7631681,1.78864747 51.8493737,7.71519909 51.8493737,15 C51.8493737,22.2848009 57.7631681,28.2113525 65.0322882,28.2113525 M65.0322882,0.584780123 C65.2011204,0.584780123 65.3645063,0.604272793 65.5317825,0.610510448 C65.73796,0.618307516 65.9449156,0.624545171 66.1495371,0.641698721 C66.4560803,0.665869633 66.7587334,0.702515854 67.0598304,0.74539973 L67.1718665,0.76255328 C72.050105,1.49625741 76.1285303,4.68369893 78.1125029,9.03758187 L78.1125029,1.14538933 L79.2795456,1.14538933 L79.2795456,1.15864435 L79.3775772,1.15864435 L79.3775772,14.2335482 C79.3915817,14.489292 79.4164786,14.741917 79.4164786,15 C79.4164786,15.2588627 79.3915817,15.510708 79.3775772,15.7664518 L79.3775772,28.6815158 L78.1770793,28.6815158 L78.1770793,28.667481 L78.1125029,28.667481 L78.1125029,20.9631978 C75.8437719,25.9408462 70.8402708,29.4152199 65.0322882,29.4152199 C63.0452035,29.4152199 61.1507041,29.0082129 59.427371,28.2752885 C54.2394772,26.1006861 50.5835214,20.9647573 50.5835214,14.986745 C50.5835214,7.04777004 57.0287093,0.588678657 64.9513732,0.588678657 C64.9537073,0.588678657 64.9560414,0.588678657 64.9591535,0.588678657 C64.9840504,0.588678657 65.0073913,0.584780123 65.0322882,0.584780123" id="Fill-36" fill="#FEFEFE" mask="url(#mask-2)"></path>
                <path d="M28.0837896,14.0878969 C27.7465683,9.11705455 24.5877966,4.70444786 19.9642942,2.78879287 C18.3940332,2.1486508 16.7341109,1.82420612 15.0329287,1.82420612 C8.08934381,1.82420612 2.38752678,7.18629062 1.91700389,14.0878969 L28.0837896,14.0878969 Z M15.0329287,30 C13.0127747,30 11.051337,29.6008058 9.20177735,28.8135503 C3.61263191,26.4716641 0,21.0443726 0,14.9864815 C0,6.72507024 6.70713322,0.00397603775 14.9496152,0.00397603775 L15.0329287,0 C23.2857256,0 30,6.72904628 30,15 L30,15.9121031 L1.91700389,15.9121031 C2.38752678,22.8137094 8.08934381,28.1757939 15.0329287,28.1757939 C15.2781084,28.1757939 15.5217012,28.1678418 15.7637071,28.1543233 C19.6104102,27.9229179 23.1532175,26.0088533 25.4812346,22.9035678 L25.6597635,22.6650056 L25.703404,22.6976091 L25.9676268,22.8471081 L27.1847973,23.7639824 L27.0062683,24.0025447 C24.1482187,27.8139744 19.7841784,30 15.0329287,30 L15.0329287,30 Z" id="Fill-37" fill="#FEFEFE" mask="url(#mask-2)"></path>
                <path d="M2.48742155,13.8132862 C3.08574096,7.35029629 8.48306447,2.37342759 15.032678,2.37342759 C16.66269,2.37342759 18.2530214,2.68453062 19.7593236,3.29815989 C24.0899424,5.09304502 27.0815395,9.1779291 27.5133565,13.8132862 L2.48742155,13.8132862 Z M15.032678,0 L15.0101146,0 L14.9533171,0.00389853415 L14.9509829,0.00389853415 C6.7067794,0.00389853415 0,6.72497141 0,14.986745 C0,21.0442873 3.6124799,26.4718266 9.20275948,28.8148456 C11.049847,29.6007901 13.0120857,30 15.032678,30 C19.7834431,30 24.147518,27.813702 27.0060688,24.0024951 L27.3561907,23.534671 L26.8901395,23.1838029 L25.9292494,22.460235 L25.4600861,22.1070278 L25.4367446,22.138216 L25.39473,22.1062481 L25.0446081,22.5732924 C22.8131646,25.5502131 19.4177603,27.3848633 15.7298096,27.6063 C15.5010633,27.6187753 15.2676487,27.6265724 15.032678,27.6265724 C8.48306447,27.6265724 3.08574096,22.6497037 2.48742155,16.1867138 L29.4164635,16.1867138 L30,16.1867138 L30,15.6019337 L30,15 C30,6.72886994 23.2854401,0 15.032678,0 L15.032678,0 Z M1.86264848,14.3980663 L28.1381296,14.3980663 C27.9070491,9.14050317 24.5987862,4.67122362 19.9787333,2.75626364 C18.4506458,2.13405759 16.7817314,1.78864747 15.032678,1.78864747 C7.96410602,1.78864747 2.17775818,7.39162075 1.86264848,14.3980663 L1.86264848,14.3980663 Z M15.032678,0.584780123 C22.964106,0.584780123 29.4164635,7.05166857 29.4164635,15 L29.4164635,15.6019337 L1.86264848,15.6019337 C2.17775818,22.6083792 7.96410602,28.2113525 15.032678,28.2113525 C15.2777634,28.2113525 15.5212926,28.2035555 15.7640438,28.1903004 C19.63717,27.9571681 23.1547279,26.0679385 25.5106593,22.9249402 L25.555008,22.9584676 C25.5627885,22.9475517 25.5713471,22.9381952 25.5791275,22.928059 L26.5392396,23.6508473 C23.7927278,27.31391 19.5982675,29.4152199 15.032678,29.4152199 C13.0447637,29.4152199 11.1509933,29.0082129 9.42761554,28.2752885 C4.23958712,26.1014658 0.58353649,20.9647573 0.58353649,14.986745 C0.58353649,7.04777004 7.02811349,0.588678657 14.9509829,0.588678657 C14.952539,0.588678657 14.9556512,0.588678657 14.9579854,0.588678657 C14.9828829,0.588678657 15.0070024,0.584780123 15.032678,0.584780123 L15.032678,0.584780123 Z" id="Fill-38" fill="#FEFEFE" mask="url(#mask-2)"></path>
                <path d="M91.1307562,29 L91.1307562,28.9952711 L91,28.9952711 L91,0.583231417 L92.7961361,0.583231417 L92.7961361,0.588748471 L92.8924416,0.588748471 L92.8924416,5.15923359 C94.7269433,2.28248403 97.7421657,0.403533089 101.152006,0.0638401957 L101.232652,0.0551705395 C101.569329,0.0244326675 101.907573,0.00315260226 102.25208,0.00315260226 L102.333509,0 C102.519857,0 102.703855,0.0118222585 102.887853,0.025220818 L103.175203,0.0425601305 C107.309292,0.354667754 110.916441,2.96502242 112.556765,6.76863704 C114.157942,3.05644789 117.664087,0.454762875 121.683079,0.061475744 C122.065169,0.0244326675 122.412025,0.00315260226 122.764362,0.00315260226 L122.845791,0 C128.996813,0 134,5.0362821 134,11.2279929 L133.999217,28.9952711 L132.203864,28.9952711 L132.203864,28.9818725 L132.138877,28.6863161 L132.138877,11.2145944 C132.138877,7.42437831 129.895665,4.01405082 126.42397,2.52602256 C125.284747,2.04997962 124.080537,1.80801739 122.845791,1.80801739 C117.700104,1.80801739 113.502595,6.02304661 113.489284,11.2035603 L113.49085,28.9952711 L111.694714,28.9952711 L111.694714,28.9810844 L111.629727,28.6863161 L111.627379,11.2153825 C111.627379,7.42516646 109.383383,4.01483897 105.911688,2.52681071 C104.773248,2.04997962 103.569038,1.80801739 102.333509,1.80801739 C97.1737286,1.80801739 92.9754366,6.03329257 92.9754366,11.2279929 L92.9746536,28.9952711 L92.5988274,29 L91.1307562,29 Z" id="Fill-39" fill="#FEFEFE" mask="url(#mask-2)"></path>
                <path d="M122.444348,0 C122.416684,0 122.38902,0.00154481289 122.361356,0.00308962578 C122.030179,0.00386203223 121.67687,0.0216273805 121.28167,0.0579304834 L121.275346,0.0579304834 L121.240569,0.0617925156 C117.291729,0.437182048 113.820292,2.81001465 112.057699,6.23949927 C110.252425,2.72427753 106.676654,0.340631243 102.606884,0.0424823545 C102.578429,0.0401651352 102.545232,0.0386203223 102.512036,0.0370755094 L102.472516,0.0355306965 L102.316807,0.0254894127 C102.124739,0.0123585031 101.932672,0 101.737443,0 C101.709779,0 101.681325,0.00154481289 101.654451,0.00308962578 C101.334339,0.00386203223 100.99921,0.0200825676 100.599267,0.0556132641 L100.548681,0.0610201092 C97.3080405,0.374617126 94.427822,1.96654681 92.5031975,4.42897856 L92.5031975,1.15629245 L92.5031975,0.576987615 L92.4059783,0.576987615 L91.8131781,0.572353176 L90.5928002,0.572353176 L90,0.572353176 L90,1.15165801 L90,28.4160607 L90,28.9953656 L90.1319968,28.9953656 L90.724797,29 L91.9103973,29 L92.5031975,29 L92.5031975,28.9953656 L92.5861895,28.9953656 L92.5861895,28.4160607 L92.5861895,11.2933546 C92.5869799,6.36231189 96.6915283,2.35120522 101.737443,2.35120522 C102.945175,2.35120522 104.122871,2.58138234 105.238126,3.03478492 C108.628943,4.44519909 110.822303,7.68235451 110.822303,11.2802237 L110.825465,28.4029298 L110.825465,28.9822347 L110.890278,28.9822347 L111.483078,28.9953656 L112.703456,28.9953656 L113.296256,28.9953656 L113.296256,28.4160607 L113.296256,11.26941 L113.296256,11.1272873 C113.387943,6.27502996 117.461665,2.35120522 122.444348,2.35120522 C123.651289,2.35120522 124.828986,2.58060993 125.944241,3.03401252 C129.335057,4.44442669 131.529209,7.68235451 131.529209,11.2802237 L131.529209,28.4029298 L131.529209,28.9822347 L131.594021,28.9822347 L132.186821,28.9953656 L133.407199,28.9953656 L134,28.9953656 L134,28.4160607 L134,11.2933546 C134.00079,8.28174191 132.797801,5.44701025 130.612344,3.31130643 C128.426888,1.17560261 125.526119,0 122.444348,0 M122.444348,0.579304834 C128.489329,0.579304834 133.40799,5.38599015 133.40799,11.2933546 L133.407199,11.2933546 L133.407199,28.4160607 L132.186821,28.4160607 L132.186821,28.4029298 L132.122009,28.4029298 L132.122009,11.2802237 C132.122009,7.34095086 129.666235,3.95240378 126.171876,2.49950726 C125.022634,2.03220136 123.764317,1.77190039 122.444348,1.77190039 C117.079902,1.77190039 112.716102,6.03094953 112.701875,11.26941 L112.703456,11.26941 L112.703456,28.4160607 L111.483078,28.4160607 L111.483078,28.4029298 L111.418265,28.4029298 L111.415104,11.2809961 L111.415104,11.2802237 C111.415104,7.34095086 108.95933,3.95317619 105.465761,2.49950726 C104.316519,2.03220136 103.058202,1.77190039 101.737443,1.77190039 C96.3643026,1.77190039 91.9941798,6.04330803 91.9941798,11.2933546 L91.9933894,11.2933546 L91.9933894,28.4160607 L91.9103973,28.4160607 L91.9103973,28.4206952 L90.724797,28.4206952 L90.724797,28.4160607 L90.5928002,28.4160607 L90.5928002,1.15165801 L91.8131781,1.15165801 L91.8131781,1.15629245 L91.9103973,1.15629245 L91.9103973,6.43105607 C93.5678666,3.26418964 96.7879571,1.00721801 100.573974,0.64109735 C100.600057,0.638780131 100.626141,0.635690505 100.653014,0.632600879 C100.983401,0.603249434 101.31695,0.583166866 101.654451,0.583166866 L101.658403,0.583166866 C101.684486,0.583166866 101.71057,0.579304834 101.737443,0.579304834 C101.972983,0.579304834 102.202989,0.599387402 102.435367,0.614063124 C102.477258,0.616380344 102.51994,0.616380344 102.562621,0.620242376 C106.959618,0.942335864 110.633398,3.80564656 112.057699,7.71170595 C113.451965,3.87902517 117.012718,1.04583833 121.299058,0.638780131 C121.311705,0.637235318 121.324351,0.635690505 121.336998,0.634145692 C121.674499,0.603249434 122.015951,0.583166866 122.362147,0.583166866 L122.365308,0.583166866 C122.392182,0.583166866 122.417475,0.579304834 122.444348,0.579304834" id="Fill-40" fill="#FEFEFE" mask="url(#mask-2)"></path>
                <path d="M38.0660159,29 L38.0660159,28.9865974 L38,28.6909526 L38,0.566849717 L39.7895879,0.566849717 L39.7895879,0.580252284 L39.8906001,0.580252284 L39.8906001,5.62277077 C41.5680405,2.39117551 44.2301518,0.435189213 47.5015184,0.0685896042 C47.9604483,0.0189212701 48.2953001,0 48.6182213,0 L48.9164859,0 L49,0.291702914 L49,1.80461614 L48.7017354,1.80461614 C43.3496746,1.80461614 39.8906001,6.7052251 39.8906001,14.2902893 L39.8906001,29 L38.0660159,29 Z" id="Fill-41" fill="#FEFEFE" mask="url(#mask-2)"></path>
                <path d="M49,0 L48.4341564,0 C48.4047325,0 48.3753086,0.0015450598 48.3466392,0.00386264951 L48.3353224,0.00386264951 C48.0320302,0.00386264951 47.7083676,0.023948427 47.3258573,0.0656650417 L47.3213306,0.0656650417 L47.28738,0.0703002211 C44.3955418,0.404805669 42.0016461,2.02711846 40.3591907,4.70779722 L40.3591907,1.15184208 L40.3591907,0.572444658 L40.2633745,0.572444658 L39.6975309,0.559311649 L38.5658436,0.559311649 L38,0.559311649 L38,1.13870908 L38,28.4074696 L38,28.986867 L38.06262,28.986867 L38.6284636,29 L39.7933471,29 L40.3591907,29 L40.3591907,28.4206026 L40.3591907,14.2964384 C40.3591907,7.040065 43.5294239,2.35158102 48.4341564,2.35158102 L49,2.35158102 L49,1.7721836 L49,0.579397427 L49,0 Z M48.4341564,0.579397427 L48.4341564,1.7721836 C43.1853909,1.7721836 39.7933471,6.68779136 39.7933471,14.2964384 L39.7933471,14.2964384 L39.7933471,28.4206026 L38.6284636,28.4206026 L38.6284636,28.4074696 L38.5658436,28.4074696 L38.5658436,1.13870908 L39.6975309,1.13870908 L39.6975309,1.15184208 L39.7933471,1.15184208 L39.7933471,7.13972136 C41.2449246,3.42076241 43.9058985,1.04523296 47.3273663,0.648925118 C47.3469822,0.646607528 47.3658436,0.643517409 47.3854595,0.641972349 C47.7030864,0.607208503 48.0252401,0.583260076 48.3549383,0.583260076 L48.3549383,0.584032606 C48.3820988,0.584032606 48.4069959,0.579397427 48.4341564,0.579397427 L48.4341564,0.579397427 Z" id="Fill-42" fill="#FEFEFE" mask="url(#mask-2)"></path>
                <path d="M70.8919251,99.568351 L68.620039,99.568351 L68.620039,101.894311 L66.5183257,101.894311 L66.5183257,99.568351 L64.1390877,99.568351 L64.1390877,97.4666378 L66.5183257,97.4666378 L66.5183257,95.1414733 L68.620039,95.1414733 L68.620039,97.4666378 L70.8919251,97.4666378 L70.8919251,99.568351 Z M62,104 L73,104 L73,93 L62,93 L62,104 Z" id="Fill-43" fill="#E02B20" mask="url(#mask-2)"></path>
                <polygon id="Fill-44" fill="#FEFEFE" mask="url(#mask-2)" points="68.6446826 95 66.4657873 95 66.4657873 97.4102685 64 97.4102685 64 99.5889072 66.4657873 99.5889072 66.4657873 102 68.6446826 102 68.6446826 99.5889072 71 99.5889072 71 97.4102685 68.6446826 97.4102685"></polygon>
            </g>
        </g>
    </g>
</svg>