<?xml version="1.0" encoding="utf-8"?>
<!-- Generator: Adobe Illustrator 22.0.1, SVG Export Plug-In . SVG Version: 6.00 Build 0)  -->
<svg version="1.1" id="Capa_1" xmlns="http://www.w3.org/2000/svg" xmlns:xlink="http://www.w3.org/1999/xlink" x="0px" y="0px"
	 viewBox="0 0 134 103" style="enable-background:new 0 0 134 103;" xml:space="preserve">
<style type="text/css">
	.st0{fill:#333333;}
	.st1{fill:#E02B20;}
	.st2{fill:#FEFEFE;}
</style>
<title>Logo</title>
<desc>Created with Sketch.</desc>
<g id="Welcome">
	<g id="Desktop-HD" transform="translate(-652.000000, -36.000000)">
		<g id="Logo" transform="translate(652.000000, 36.000000)">
			<path id="Fill-1" class="st0" d="M17.1,62.6c2.5,0,3.5-2.1,3.5-4.1c0-2.3-1.1-4.1-3.6-4.1h-1.4v8.2
				C15.6,62.6,17.1,62.6,17.1,62.6z M13,63v-0.3l1-0.1c0.2,0,0.3-0.1,0.3-0.3v-7.5c0-0.2-0.1-0.3-0.3-0.3l-1-0.1V54h4.2
				c2.9,0,4.8,1.7,4.8,4.5c0,2.6-1.9,4.5-4.8,4.5H13z"/>
			<path id="Fill-3" class="st0" d="M26.3,58.7h3.6c0.2-1.5-0.4-2.3-1.5-2.3C27.2,56.4,26.4,57.4,26.3,58.7L26.3,58.7z M26.3,59.1
				c-0.1,2,0.9,3.2,2.5,3.2c0.8,0,1.4-0.4,1.9-0.8l0.2,0.3c-0.5,0.6-1.3,1.2-2.6,1.2c-2,0-3.3-1.5-3.3-3.5c0-2.2,1.7-3.5,3.4-3.5
				c1.4,0,2.9,0.8,2.6,3.1H26.3z"/>
			<path id="Fill-5" class="st0" d="M36.5,56.1c-0.1,0.3-0.1,0.7-0.1,1.2V58l0,0c0.6-1.4,1.5-2,2.5-2s1.9,0.6,1.9,2.1v4.1
				c0,0.2,0.1,0.3,0.3,0.3l0.9,0.1V63h-3.3v-0.4l0.7-0.1c0.2,0,0.2-0.1,0.2-0.3v-4c0-0.8-0.3-1.4-1.3-1.4c-1.3,0-1.9,1.4-1.9,2.6
				v2.8c0,0.2,0.1,0.3,0.3,0.3l0.9,0.1V63H34v-0.4l0.9-0.1c0.2,0,0.3-0.1,0.3-0.3v-5.3c0-0.2-0.1-0.3-0.3-0.3H34v-0.4l2.4-0.3
				L36.5,56.1z"/>
			<path id="Fill-7" class="st0" d="M44.8,56.5c0.2,0,0.4-0.2,0.5-0.4l0.6-1.2h0.3v1.5H48v0.4h-1.8v4.6c0,0.7,0.3,0.9,0.9,0.9
				c0.2,0,0.6-0.1,0.9-0.2l0.1,0.3c-0.4,0.2-1,0.4-1.6,0.4c-0.8,0-1.4-0.2-1.4-1.2v-4.8h-1v-0.3H44.8z"/>
			<path id="Fill-9" class="st0" d="M54.8,59.3l-1.4,0.4c-1,0.3-1.2,0.8-1.2,1.4c0,0.7,0.4,1.1,1.1,1.1c0.9,0,1.5-0.8,1.5-2
				C54.8,60.2,54.8,59.3,54.8,59.3z M55.9,62.1c0,0.2,0.1,0.3,0.3,0.3l0.8,0.1v0.3c-0.7,0.1-1.2,0.1-1.6,0.1c-0.4,0-0.6-0.1-0.6-0.5
				v-1l0,0c-0.4,1-1.2,1.5-2,1.5c-1.1,0-1.7-0.7-1.7-1.6c0-1,0.6-1.6,2-2l1.8-0.5V58c0-0.7-0.4-1.3-1.3-1.3c-0.7,0-1.3,0.3-1.8,0.6
				l-0.2-0.2c0.3-0.4,1.1-1.1,2.4-1.1c1.2,0,2.1,0.7,2.1,1.8v4.3H55.9z"/>
			<path id="Fill-11" class="st0" d="M61.7,62.2c0,0.2,0.1,0.3,0.3,0.4l1,0.1V63h-4v-0.4l1-0.1c0.2,0,0.3-0.1,0.3-0.4V54
				c0-0.2-0.1-0.3-0.3-0.3h-1v-0.4l2.7-0.3l0.1,0.1c-0.1,0.3-0.1,0.7-0.1,1.2V62.2z"/>
			<path id="Fill-13" class="st0" d="M72.6,62.2c0,0.2,0.1,0.3,0.3,0.3l1,0.1V63H70v-0.3l1-0.1c0.2,0,0.3-0.1,0.3-0.3v-7.5
				c0-0.2-0.1-0.3-0.3-0.3l-1-0.1V54h3.9v0.3l-1,0.1c-0.2,0-0.3,0.1-0.3,0.3v3.5h4.7v-3.5c0-0.2-0.1-0.3-0.3-0.3l-1-0.1V54h4v0.3
				l-1,0.1c-0.2,0-0.3,0.1-0.3,0.3v7.5c0,0.2,0.1,0.3,0.3,0.3l1,0.1V63h-3.9v-0.3l1-0.1c0.2,0,0.3-0.1,0.3-0.3v-3.6h-4.7v3.5H72.6z"
				/>
			<path id="Fill-15" class="st0" d="M84.3,58.7h3.6c0.2-1.5-0.4-2.3-1.5-2.3C85.2,56.4,84.4,57.4,84.3,58.7L84.3,58.7z M84.3,59.1
				c-0.1,2,0.9,3.2,2.5,3.2c0.8,0,1.4-0.4,1.9-0.8l0.2,0.3c-0.5,0.6-1.3,1.2-2.6,1.2c-2,0-3.3-1.5-3.3-3.5c0-2.2,1.7-3.5,3.4-3.5
				c1.4,0,2.9,0.8,2.6,3.1H84.3z"/>
			<path id="Fill-17" class="st0" d="M95.8,59.3l-1.4,0.4c-1,0.3-1.2,0.8-1.2,1.4c0,0.7,0.4,1.1,1.1,1.1c0.9,0,1.5-0.8,1.5-2V59.3z
				 M96.9,62.1c0,0.2,0.1,0.3,0.3,0.3l0.8,0.1v0.3c-0.7,0.1-1.2,0.1-1.6,0.1s-0.6-0.1-0.6-0.5v-1l0,0c-0.4,1-1.2,1.5-2,1.5
				c-1.1,0-1.7-0.7-1.7-1.6c0-1,0.6-1.6,2-2l1.8-0.5V58c0-0.7-0.4-1.3-1.3-1.3c-0.7,0-1.3,0.3-1.8,0.6l-0.2-0.2
				c0.3-0.4,1.1-1.1,2.4-1.1c1.2,0,2.1,0.7,2.1,1.8v4.3H96.9z"/>
			<path id="Fill-19" class="st0" d="M102.7,62.2c0,0.2,0.1,0.3,0.3,0.4l1,0.1V63h-4v-0.4l1-0.1c0.2,0,0.3-0.1,0.3-0.4V54
				c0-0.2-0.1-0.3-0.3-0.3h-1v-0.4l2.7-0.3l0.1,0.1c-0.1,0.3-0.1,0.7-0.1,1.2V62.2z"/>
			<path id="Fill-21" class="st0" d="M106.8,56.5c0.2,0,0.4-0.2,0.5-0.4l0.6-1.2h0.3v1.5h1.8v0.4h-1.8v4.6c0,0.7,0.3,0.9,0.9,0.9
				c0.2,0,0.6-0.1,0.9-0.2l0.1,0.3c-0.4,0.2-1,0.4-1.6,0.4c-0.8,0-1.4-0.2-1.4-1.2v-4.8h-1v-0.3H106.8z"/>
			<path id="Fill-23" class="st0" d="M115.5,53.1c-0.1,0.3-0.1,0.7-0.1,1.2v3.5l0,0c0.6-1.5,1.5-2,2.5-2s1.9,0.6,1.9,2.2v4.2
				c0,0.2,0.1,0.3,0.3,0.4l0.9,0.1V63h-3.3v-0.4l0.7-0.1c0.2,0,0.2-0.1,0.2-0.4V58c0-0.8-0.3-1.5-1.3-1.5c-1.3,0-1.9,1.5-1.9,2.6V62
				c0,0.2,0.1,0.3,0.3,0.4l0.9,0.1V63H113v-0.4l0.9-0.1c0.2,0,0.3-0.1,0.3-0.4V54c0-0.2-0.1-0.3-0.3-0.3H113v-0.4L115.5,53.1
				L115.5,53.1z"/>
			<g id="Clip-26">
			</g>
			<polygon id="Fill-25" class="st0" points="1,77 35,77 35,76 1,76 			"/>
			<polygon id="Fill-27" class="st0" points="98,77 133,77 133,76 98,76 			"/>
			<path id="Fill-28" class="st0" d="M53,78.2c-0.5,2.1-2,2.8-3.5,2.8c-2.7,0-4.5-1.9-4.5-4.5s2-4.5,4.6-4.5c1.4,0,2.5,0.4,3.1,0.7
				v2h-0.4c-0.4-1.9-1.4-2.3-2.7-2.3c-1.9,0-3.2,1.5-3.2,4.1c0,2.7,1.4,4.1,3.2,4.1c1.3,0,2.5-0.6,3-2.4L53,78.2z"/>
			<path id="Fill-29" class="st0" d="M57,79.3c0,0.2,0.1,0.3,0.2,0.3l0.8,0.1V80h-3v-0.3l0.8-0.1c0.2,0,0.2-0.1,0.2-0.3v-7.4
				c0-0.2-0.1-0.3-0.2-0.3H55v-0.3l2-0.3l0.1,0.1C57,71.4,57,71.7,57,72.2V79.3z"/>
			<path id="Fill-30" class="st0" d="M62.5,71c0.4,0,0.6,0.3,0.6,0.7c0,0.4-0.3,0.7-0.6,0.7s-0.6-0.3-0.6-0.7S62.1,71,62.5,71
				L62.5,71z M63,79.3c0,0.2,0.1,0.3,0.2,0.3l0.8,0.1V80h-3v-0.3l0.8-0.1c0.2,0,0.2-0.1,0.2-0.3v-5c0-0.2-0.1-0.3-0.2-0.3H61v-0.3
				l2-0.3l0.1,0.1C63,73.7,63,74.1,63,74.6V79.3z"/>
			<path id="Fill-31" class="st0" d="M69.5,74.1c-0.1,0.3-0.1,0.7-0.1,1.2V76l0,0c0.6-1.4,1.5-2,2.5-2s1.9,0.6,1.9,2.1v4.1
				c0,0.2,0.1,0.3,0.3,0.3l0.9,0.1V81h-3.3v-0.4l0.7-0.1c0.2,0,0.2-0.1,0.2-0.3v-4c0-0.8-0.3-1.4-1.3-1.4c-1.3,0-1.9,1.4-1.9,2.6
				v2.8c0,0.2,0.1,0.3,0.3,0.3l0.9,0.1V81H67v-0.4l0.9-0.1c0.2,0,0.3-0.1,0.3-0.3v-5.3c0-0.2-0.1-0.3-0.3-0.3H67v-0.4l2.4-0.3
				L69.5,74.1z"/>
			<path id="Fill-32" class="st0" d="M78.5,71c0.4,0,0.6,0.3,0.6,0.7c0,0.4-0.3,0.7-0.6,0.7s-0.6-0.3-0.6-0.7S78.1,71,78.5,71
				L78.5,71z M79,79.3c0,0.2,0.1,0.3,0.2,0.3l0.8,0.1V80h-3v-0.3l0.8-0.1c0.2,0,0.2-0.1,0.2-0.3v-5c0-0.2-0.1-0.3-0.2-0.3H77v-0.3
				l2-0.3l0.1,0.1C79,73.7,79,74.1,79,74.6V79.3z"/>
			<path id="Fill-33" class="st0" d="M83,77.5c0-2.3,1.8-3.5,3.5-3.5c1.4,0,2.4,0.5,2.4,1s-0.6,0.6-0.8,0.3c-0.4-0.4-0.7-1-1.6-1
				c-1.5,0-2.2,1.3-2.2,2.8c0,2.1,1,3.1,2.6,3.1c0.8,0,1.4-0.4,1.9-0.8l0.2,0.3c-0.5,0.6-1.4,1.2-2.6,1.2C84.3,81,83,79.5,83,77.5"
				/>
			<polygon id="Fill-34" class="st0" points="1,42 133,42 133,41 1,41 			"/>
			<path id="Fill-35" class="st0" d="M65,1.8c-7.2,0-13.1,5.9-13.1,13.2S57.8,28.2,65,28.2c0.4,0,0.8,0,1.2-0.1
				c6.4-0.6,11.4-6,11.8-12.4v-1.5c-0.3-4.6-3-8.8-7.1-10.9c-0.3-0.2-0.7-0.3-1-0.5c-0.2-0.1-0.5-0.2-0.7-0.3c0,0-0.3-0.1-0.4-0.1
				C67.6,2,66.3,1.8,65,1.8 M65,30c-2,0-4-0.4-5.8-1.2C53.6,26.5,50,21,50,15c0-8.3,6.7-15,15-15l0,0c0.1,0,0.2,0,0.3,0h0.3
				c0.2,0,0.4,0,0.5,0c0.3,0,0.6,0.1,0.9,0.1h0.1c4.6,0.7,8.6,3.5,10.8,7.5v-7h1.8l0,0H80v13.6v0.2c0,0.2,0,0.4,0,0.6s0,0.4,0,0.6
				v0.2v13.5h-1.8l0,0L78.1,29v-6.6C75.4,27,70.4,30,65,30"/>
			<path id="Fill-36" class="st0" d="M65,27.6c-6.9,0-12.6-5.7-12.6-12.6S58.1,2.4,65,2.4c1.3,0,2.5,0.2,3.7,0.6
				c0.1,0,0.1,0,0.2,0.1l0.2,0.1c0.2,0.1,0.5,0.2,0.7,0.3c0.4,0.1,0.7,0.3,1,0.5c3.9,2.1,6.5,6.1,6.8,10.5V16
				c-0.3,6.1-5.2,11.2-11.3,11.8C65.8,27.6,65.4,27.6,65,27.6 M65,0L65,0L65,0L65,0c-8.3,0-15,6.7-15,15c0,6.1,3.6,11.5,9.2,13.8
				C61,29.6,63,30,65,30c5.1,0,9.8-2.6,12.5-6.8v5.4v0.6h0.1h0.6h1.2H80v-0.6V15.8v-0.2c0-0.2,0-0.4,0-0.6s0-0.4,0-0.6v-0.2v-13V0.6
				h-0.1h-0.6h-1.2h-0.6v0.6v5.6c-2.3-3.5-6-5.9-10.3-6.6h-0.1H67c-0.4-0.1-0.7-0.1-1-0.1c-0.2,0-0.4,0-0.5,0h-0.1
				c-0.1,0-0.1,0-0.2,0C65.3,0,65.1,0,65,0 M65,28.2c0.4,0,0.8,0,1.2-0.1c6.4-0.6,11.5-5.9,11.8-12.4v-1.5c-0.2-4.7-3-8.8-7-10.9
				l0,0c-0.3-0.2-0.7-0.3-1-0.5c-0.2-0.1-0.5-0.2-0.7-0.3c-0.1,0-0.2-0.1-0.4-0.1C67.7,2,66.4,1.8,65,1.8c-7.3,0-13.2,5.9-13.2,13.2
				S57.8,28.2,65,28.2 M65,0.6c0.2,0,0.3,0,0.5,0s0.4,0,0.6,0c0.3,0,0.6,0.1,0.9,0.1h0.1C72,1.4,76.1,4.6,78,9V1.1h1.2l0,0h0.1v13.1
				c0,0.3,0,0.5,0,0.8s0,0.5,0,0.8v12.9h-1.2l0,0H78V21c-2.3,5-7.3,8.5-13.1,8.5c-2,0-3.9-0.4-5.6-1.1c-5.2-2.2-8.8-7.3-8.8-13.3
				C50.6,7,57,0.6,65,0.6L65,0.6L65,0.6"/>
			<path id="Fill-37" class="st0" d="M28.1,14.1c-0.3-5-3.5-9.4-8.1-11.3c-1.6-0.6-3.2-1-4.9-1c-7,0-12.7,5.4-13.2,12.3H28.1z
				 M15,30c-2,0-4-0.4-5.8-1.2C3.6,26.5,0,21,0,15C0,6.7,6.7,0,14.9,0H15c8.3,0,15,6.7,15,15v0.9H1.9C2.4,22.8,8.1,28.2,15,28.2
				c0.2,0,0.5,0,0.7,0c3.8-0.2,7.4-2.1,9.7-5.3l0.2-0.2l0,0l0.3,0.1l1.2,0.9L27,24C24.1,27.8,19.8,30,15,30L15,30z"/>
			<path id="Fill-38" class="st0" d="M2.5,13.8C3.1,7.4,8.5,2.4,15,2.4c1.6,0,3.2,0.3,4.7,0.9C24,5.1,27,9.2,27.5,13.8H2.5z M15,0
				L15,0L15,0L15,0C6.7,0,0,6.7,0,15c0,6,3.6,11.5,9.2,13.8C11,29.6,13,30,15,30c4.8,0,9.1-2.2,12-6l0.4-0.5l-0.5-0.4l-1-0.7
				L25.4,22l0,0l0,0L25,22.6c-2.2,3-5.6,4.8-9.3,5c-0.2,0-0.5,0-0.7,0c-6.5,0-11.9-5-12.5-11.4h26.9H30v-0.6V15C30,6.7,23.3,0,15,0
				L15,0z M1.9,14.4h26.3C27.9,9.1,24.6,4.7,20,2.8c-1.5-0.6-3.2-1-4.9-1C8,1.8,2.2,7.4,1.9,14.4L1.9,14.4z M15,0.6
				c8,0,14.4,6.5,14.4,14.4v0.6H1.9C2.2,22.6,8,28.2,15,28.2c0.2,0,0.5,0,0.7,0c3.9-0.2,7.4-2.1,9.7-5.3l0,0l0,0l1,0.7
				c-2.7,3.7-6.9,5.8-11.5,5.8c-2,0-3.9-0.4-5.6-1.1C4.2,26.1,0.6,21,0.6,15C0.6,7,7,0.6,15,0.6L15,0.6L15,0.6L15,0.6z"/>
			<path id="Fill-39" class="st0" d="M91.1,29L91.1,29L91.1,29L91,0.6h1.8l0,0h0.1v4.6c1.8-2.9,4.8-4.8,8.3-5.1h0.1
				c0.3,0,0.7-0.1,1-0.1h0.1c0.2,0,0.4,0,0.6,0h0.3c4.1,0.3,7.7,2.9,9.4,6.7c1.6-3.7,5.1-6.3,9.1-6.7c0.4,0,0.7-0.1,1.1-0.1h0.1
				c6,0.1,11,5.1,11,11.3V29h-1.8l0,0l-0.1-0.3V11.2c0-3.8-2.2-7.2-5.7-8.7c-1.1-0.5-2.3-0.7-3.6-0.7c-5.1,0-9.3,4.2-9.4,9.4V29
				h-1.8l0,0l-0.1-0.3V11.2c0-3.8-2.2-7.2-5.7-8.7c-1.1-0.5-2.3-0.7-3.6-0.7c-5,0-9.2,4.2-9.2,9.4V29h-0.4H91.1z"/>
			<path id="Fill-40" class="st0" d="M122.4,0L122.4,0c-0.4,0-0.8,0-1.2,0.1l0,0l0,0c-3.9,0.4-7.4,2.7-9.2,6.2
				c-1.8-3.5-5.4-5.9-9.5-6.2h-0.1l0,0h-0.2c-0.2,0-0.4,0-0.6,0h-0.1c-0.3,0-0.7,0-1.1,0.1h-0.1c-3.2,0.3-6.1,1.9-8,4.4V1.2V0.6
				h-0.1h-0.6h-1.2H90v0.6v27.3V29h0.1h0.6h1.2h0.6l0,0h0.1v-0.6V11.3c0-4.9,4.1-8.9,9.2-8.9c1.2,0,2.4,0.2,3.5,0.7
				c3.4,1.4,5.6,4.6,5.6,8.2v17.1V29h0.1h0.6h1.2h0.6v-0.6V11.3v-0.1c0.1-4.9,4.2-8.8,9.1-8.8c1.2,0,2.4,0.2,3.5,0.7
				c3.4,1.4,5.6,4.6,5.6,8.2v17.1V29h0.1h0.6h1.2h0.6v-0.6V11.3c0-3-1.2-5.8-3.4-8S125.5,0,122.4,0 M122.4,0.6c6,0,11,4.8,11,10.7
				l0,0v17.1h-1.2l0,0h-0.1V11.3c0-3.9-2.5-7.3-6-8.8c-1.1-0.5-2.4-0.7-3.7-0.7c-5.4,0-9.7,4.3-9.7,9.5l0,0v17.1h-1.2l0,0h-0.1V11.3
				l0,0c0-3.9-2.5-7.3-5.9-8.8c-1.1-0.5-2.4-0.7-3.7-0.7C96.4,1.8,92,6,92,11.3l0,0v17.1h-0.1l0,0h-1.2l0,0h-0.1V1.2h1.2l0,0h0.1
				v5.3c1.7-3.2,4.9-5.4,8.7-5.8h0.1c0.3,0,0.7,0,1,0l0,0h0.1c0.2,0,0.5,0,0.7,0h0.1c4.4,0.3,8.1,3.2,9.5,7.1c1.4-3.8,5-6.7,9.2-7.1
				l0,0C121.7,0.6,122,0.6,122.4,0.6L122.4,0.6L122.4,0.6"/>
			<path id="Fill-41" class="st0" d="M38.1,29L38.1,29L38,28.7V0.6h1.8l0,0h0.1v5c1.7-3.2,4.3-5.2,7.6-5.6c0.5,0,0.8,0,1.1,0h0.3
				L49,0.3v1.5h-0.3c-5.4,0-8.8,4.9-8.8,12.5V29H38.1z"/>
			<path id="Fill-42" class="st0" d="M49,0h-0.6h-0.1l0,0c-0.3,0-0.6,0-1,0.1l0,0l0,0c-2.9,0.3-5.3,2-6.9,4.6V1.2V0.6h-0.1h-0.6
				h-1.1H38v0.6v27.3V29h0.1h0.6h1.2h0.6v-0.6V14.3c0-7.3,3.2-11.9,8.1-11.9H49V1.8V0.6V0z M48.4,0.6v1.2c-5.2,0-8.6,4.9-8.6,12.5
				l0,0v14.1h-1.2l0,0h-0.1V1.1h1.1l0,0h0.1v6c1.5-3.7,4.1-6.1,7.5-6.5c0,0,0,0,0.1,0C47.7,0.6,48,0.6,48.4,0.6L48.4,0.6L48.4,0.6
				L48.4,0.6z"/>
			<path id="Fill-43" class="st1" d="M70.9,99.6h-2.3v2.3h-2.1v-2.3h-2.4v-2.1h2.4v-2.3h2.1v2.3h2.3V99.6z M62,104h11V93H62V104z"/>
			<polygon id="Fill-44" class="st2" points="68.6,95 66.5,95 66.5,97.4 64,97.4 64,99.6 66.5,99.6 66.5,102 68.6,102 68.6,99.6 
				71,99.6 71,97.4 68.6,97.4 			"/>
		</g>
	</g>
</g>
</svg>
