<?xml version="1.0" encoding="utf-8"?>
<!-- Generator: Adobe Illustrator 22.0.1, SVG Export Plug-In . SVG Version: 6.00 Build 0)  -->
<svg version="1.1" id="Capa_1" xmlns="http://www.w3.org/2000/svg" xmlns:xlink="http://www.w3.org/1999/xlink" x="0px" y="0px"
	 viewBox="0 0 134 103" style="enable-background:new 0 0 134 103;" xml:space="preserve">
<style type="text/css">
	.st0{fill:#FEFEFE;}
	.st1{filter:url(#Adobe_OpacityMaskFilter);}
	.st2{fill:#FFFFFF;}
	.st3{mask:url(#mask-2_1_);fill:#FEFEFE;}
	.st4{filter:url(#Adobe_OpacityMaskFilter_1_);}
	.st5{mask:url(#mask-2_2_);fill:#FEFEFE;}
	.st6{filter:url(#Adobe_OpacityMaskFilter_2_);}
	.st7{mask:url(#mask-2_3_);fill:#FEFEFE;}
	.st8{filter:url(#Adobe_OpacityMaskFilter_3_);}
	.st9{mask:url(#mask-2_4_);fill:#FEFEFE;}
	.st10{filter:url(#Adobe_OpacityMaskFilter_4_);}
	.st11{mask:url(#mask-2_5_);fill:#FEFEFE;}
	.st12{filter:url(#Adobe_OpacityMaskFilter_5_);}
	.st13{mask:url(#mask-2_6_);fill:#FEFEFE;}
	.st14{filter:url(#Adobe_OpacityMaskFilter_6_);}
	.st15{mask:url(#mask-2_7_);fill:#FEFEFE;}
	.st16{filter:url(#Adobe_OpacityMaskFilter_7_);}
	.st17{mask:url(#mask-2_8_);fill:#FEFEFE;}
	.st18{filter:url(#Adobe_OpacityMaskFilter_8_);}
	.st19{mask:url(#mask-2_9_);fill:#FEFEFE;}
	.st20{filter:url(#Adobe_OpacityMaskFilter_9_);}
	.st21{mask:url(#mask-2_10_);fill:#FEFEFE;}
	.st22{filter:url(#Adobe_OpacityMaskFilter_10_);}
	.st23{mask:url(#mask-2_11_);fill:#FEFEFE;}
	.st24{filter:url(#Adobe_OpacityMaskFilter_11_);}
	.st25{mask:url(#mask-2_12_);fill:#FEFEFE;}
	.st26{filter:url(#Adobe_OpacityMaskFilter_12_);}
	.st27{mask:url(#mask-2_13_);fill:#FEFEFE;}
	.st28{filter:url(#Adobe_OpacityMaskFilter_13_);}
	.st29{mask:url(#mask-2_14_);fill:#FEFEFE;}
	.st30{filter:url(#Adobe_OpacityMaskFilter_14_);}
	.st31{mask:url(#mask-2_15_);fill:#FEFEFE;}
	.st32{filter:url(#Adobe_OpacityMaskFilter_15_);}
	.st33{mask:url(#mask-2_16_);fill:#FEFEFE;}
	.st34{filter:url(#Adobe_OpacityMaskFilter_16_);}
	.st35{mask:url(#mask-2_17_);fill:#FEFEFE;}
	.st36{filter:url(#Adobe_OpacityMaskFilter_17_);}
	.st37{mask:url(#mask-2_18_);fill:#E02B20;}
	.st38{filter:url(#Adobe_OpacityMaskFilter_18_);}
	.st39{mask:url(#mask-2_19_);fill:#FEFEFE;}
</style>
<title>Logo</title>
<desc>Created with Sketch.</desc>
<g id="Welcome">
	<g id="Desktop-HD" transform="translate(-652.000000, -36.000000)">
		<g id="Logo" transform="translate(652.000000, 36.000000)">
			<path id="Fill-1" class="st0" d="M17.1,62.6c2.5,0,3.5-2.1,3.5-4.1c0-2.3-1.1-4.1-3.6-4.1h-1.4v8.2H17.1z M13,63v-0.3l1-0.1
				c0.2,0,0.3-0.1,0.3-0.3v-7.5c0-0.2-0.1-0.3-0.3-0.3l-1-0.1V54h4.2c2.9,0,4.8,1.7,4.8,4.5c0,2.6-1.9,4.5-4.8,4.5H13z"/>
			<path id="Fill-3" class="st0" d="M26.3,58.7h3.6c0.2-1.5-0.4-2.3-1.5-2.3C27.2,56.4,26.4,57.4,26.3,58.7L26.3,58.7z M26.3,59.1
				c-0.1,2,0.9,3.2,2.5,3.2c0.8,0,1.4-0.4,1.9-0.8l0.2,0.3c-0.5,0.6-1.3,1.2-2.6,1.2c-2,0-3.3-1.5-3.3-3.5c0-2.2,1.7-3.5,3.4-3.5
				c1.4,0,2.9,0.8,2.6,3.1H26.3z"/>
			<path id="Fill-5" class="st0" d="M36.5,56.1c-0.1,0.3-0.1,0.7-0.1,1.2V58h0c0.6-1.4,1.5-2,2.5-2c1,0,1.9,0.6,1.9,2.1v4.1
				c0,0.2,0.1,0.3,0.3,0.3l0.9,0.1V63h-3.3v-0.4l0.7-0.1c0.2,0,0.2-0.1,0.2-0.3v-4c0-0.8-0.3-1.4-1.3-1.4c-1.3,0-1.9,1.4-1.9,2.6
				v2.8c0,0.2,0.1,0.3,0.3,0.3l0.9,0.1V63H34v-0.4l0.9-0.1c0.2,0,0.3-0.1,0.3-0.3v-5.3c0-0.2-0.1-0.3-0.3-0.3H34v-0.4l2.4-0.3
				L36.5,56.1z"/>
			<path id="Fill-7" class="st0" d="M44.8,56.5c0.2,0,0.4-0.2,0.5-0.4l0.6-1.2h0.3v1.5h1.8v0.4h-1.8v4.6c0,0.7,0.3,0.9,0.9,0.9
				c0.2,0,0.6-0.1,0.9-0.2l0.1,0.3c-0.4,0.2-1,0.4-1.6,0.4c-0.8,0-1.4-0.2-1.4-1.2v-4.8h-1v-0.3L44.8,56.5z"/>
			<path id="Fill-9" class="st0" d="M54.8,59.3l-1.4,0.4c-1,0.3-1.2,0.8-1.2,1.4c0,0.7,0.4,1.1,1.1,1.1c0.9,0,1.5-0.8,1.5-2V59.3z
				 M55.9,62.1c0,0.2,0.1,0.3,0.3,0.3l0.8,0.1v0.3c-0.7,0.1-1.2,0.1-1.6,0.1c-0.4,0-0.6-0.1-0.6-0.5v-1h0c-0.4,1-1.2,1.5-2,1.5
				c-1.1,0-1.7-0.7-1.7-1.6c0-1,0.6-1.6,2-2l1.8-0.5V58c0-0.7-0.4-1.3-1.3-1.3c-0.7,0-1.3,0.3-1.8,0.6l-0.2-0.2
				c0.3-0.4,1.1-1.1,2.4-1.1c1.2,0,2.1,0.7,2.1,1.8V62.1z"/>
			<path id="Fill-11" class="st0" d="M61.7,62.2c0,0.2,0.1,0.3,0.3,0.4l1,0.1V63h-4v-0.4l1-0.1c0.2,0,0.3-0.1,0.3-0.4V54
				c0-0.2-0.1-0.3-0.3-0.3h-1v-0.4l2.7-0.3l0.1,0.1c-0.1,0.3-0.1,0.7-0.1,1.2V62.2z"/>
			<path id="Fill-13" class="st0" d="M72.6,62.2c0,0.2,0.1,0.3,0.3,0.3l1,0.1V63H70v-0.3l1-0.1c0.2,0,0.3-0.1,0.3-0.3v-7.5
				c0-0.2-0.1-0.3-0.3-0.3l-1-0.1V54h3.9v0.3l-1,0.1c-0.2,0-0.3,0.1-0.3,0.3v3.5h4.7v-3.5c0-0.2-0.1-0.3-0.3-0.3l-1-0.1V54H80v0.3
				l-1,0.1c-0.2,0-0.3,0.1-0.3,0.3v7.5c0,0.2,0.1,0.3,0.3,0.3l1,0.1V63h-3.9v-0.3l1-0.1c0.2,0,0.3-0.1,0.3-0.3v-3.6h-4.7V62.2z"/>
			<path id="Fill-15" class="st0" d="M84.3,58.7h3.6c0.2-1.5-0.4-2.3-1.5-2.3C85.2,56.4,84.4,57.4,84.3,58.7L84.3,58.7z M84.3,59.1
				c-0.1,2,0.9,3.2,2.5,3.2c0.8,0,1.4-0.4,1.9-0.8l0.2,0.3c-0.5,0.6-1.3,1.2-2.6,1.2c-2,0-3.3-1.5-3.3-3.5c0-2.2,1.7-3.5,3.4-3.5
				c1.4,0,2.9,0.8,2.6,3.1H84.3z"/>
			<path id="Fill-17" class="st0" d="M95.8,59.3l-1.4,0.4c-1,0.3-1.2,0.8-1.2,1.4c0,0.7,0.4,1.1,1.1,1.1c0.9,0,1.5-0.8,1.5-2V59.3z
				 M96.9,62.1c0,0.2,0.1,0.3,0.3,0.3l0.8,0.1v0.3c-0.7,0.1-1.2,0.1-1.6,0.1c-0.4,0-0.6-0.1-0.6-0.5v-1h0c-0.4,1-1.2,1.5-2,1.5
				c-1.1,0-1.7-0.7-1.7-1.6c0-1,0.6-1.6,2-2l1.8-0.5V58c0-0.7-0.4-1.3-1.3-1.3c-0.7,0-1.3,0.3-1.8,0.6l-0.2-0.2
				c0.3-0.4,1.1-1.1,2.4-1.1c1.2,0,2.1,0.7,2.1,1.8V62.1z"/>
			<path id="Fill-19" class="st0" d="M102.7,62.2c0,0.2,0.1,0.3,0.3,0.4l1,0.1V63h-4v-0.4l1-0.1c0.2,0,0.3-0.1,0.3-0.4V54
				c0-0.2-0.1-0.3-0.3-0.3h-1v-0.4l2.7-0.3l0.1,0.1c-0.1,0.3-0.1,0.7-0.1,1.2V62.2z"/>
			<path id="Fill-21" class="st0" d="M106.8,56.5c0.2,0,0.4-0.2,0.5-0.4l0.6-1.2h0.3v1.5h1.8v0.4h-1.8v4.6c0,0.7,0.3,0.9,0.9,0.9
				c0.2,0,0.6-0.1,0.9-0.2l0.1,0.3c-0.4,0.2-1,0.4-1.6,0.4c-0.8,0-1.4-0.2-1.4-1.2v-4.8h-1v-0.3L106.8,56.5z"/>
			<path id="Fill-23" class="st0" d="M115.5,53.1c-0.1,0.3-0.1,0.7-0.1,1.2v3.5h0c0.6-1.5,1.5-2,2.5-2c1,0,1.9,0.6,1.9,2.2v4.2
				c0,0.2,0.1,0.3,0.3,0.4l0.9,0.1V63h-3.3v-0.4l0.7-0.1c0.2,0,0.2-0.1,0.2-0.4v-4.1c0-0.8-0.3-1.5-1.3-1.5c-1.3,0-1.9,1.5-1.9,2.6
				v2.9c0,0.2,0.1,0.3,0.3,0.4l0.9,0.1V63H113v-0.4l0.9-0.1c0.2,0,0.3-0.1,0.3-0.4V54c0-0.2-0.1-0.3-0.3-0.3H113v-0.4l2.4-0.3
				L115.5,53.1z"/>
			<g id="Clip-26">
			</g>
			<defs>
				<filter id="Adobe_OpacityMaskFilter" filterUnits="userSpaceOnUse" x="1" y="76" width="34" height="1">
					<feColorMatrix  type="matrix" values="1 0 0 0 0  0 1 0 0 0  0 0 1 0 0  0 0 0 1 0"/>
				</filter>
			</defs>
			<mask maskUnits="userSpaceOnUse" x="1" y="76" width="34" height="1" id="mask-2_1_">
				<g class="st1">
					<polygon id="path-1_1_" class="st2" points="0,103 134,103 134,0 0,0 					"/>
				</g>
			</mask>
			<polygon id="Fill-25" class="st3" points="1,77 35,77 35,76 1,76 			"/>
			<defs>
				<filter id="Adobe_OpacityMaskFilter_1_" filterUnits="userSpaceOnUse" x="98" y="76" width="35" height="1">
					<feColorMatrix  type="matrix" values="1 0 0 0 0  0 1 0 0 0  0 0 1 0 0  0 0 0 1 0"/>
				</filter>
			</defs>
			<mask maskUnits="userSpaceOnUse" x="98" y="76" width="35" height="1" id="mask-2_2_">
				<g class="st4">
					<polygon id="path-1_2_" class="st2" points="0,103 134,103 134,0 0,0 					"/>
				</g>
			</mask>
			<polygon id="Fill-27" class="st5" points="98,77 133,77 133,76 98,76 			"/>
			<defs>
				<filter id="Adobe_OpacityMaskFilter_2_" filterUnits="userSpaceOnUse" x="45" y="72" width="8" height="9">
					<feColorMatrix  type="matrix" values="1 0 0 0 0  0 1 0 0 0  0 0 1 0 0  0 0 0 1 0"/>
				</filter>
			</defs>
			<mask maskUnits="userSpaceOnUse" x="45" y="72" width="8" height="9" id="mask-2_3_">
				<g class="st6">
					<polygon id="path-1_3_" class="st2" points="0,103 134,103 134,0 0,0 					"/>
				</g>
			</mask>
			<path id="Fill-28" class="st7" d="M53,78.2c-0.5,2.1-2,2.8-3.5,2.8c-2.7,0-4.5-1.9-4.5-4.5c0-2.6,2-4.5,4.6-4.5
				c1.4,0,2.5,0.4,3.1,0.7v2h-0.4c-0.4-1.9-1.4-2.3-2.7-2.3c-1.9,0-3.2,1.5-3.2,4.1c0,2.7,1.4,4.1,3.2,4.1c1.3,0,2.5-0.6,3-2.4
				L53,78.2z"/>
			<defs>
				<filter id="Adobe_OpacityMaskFilter_3_" filterUnits="userSpaceOnUse" x="55" y="72" width="3" height="9">
					<feColorMatrix  type="matrix" values="1 0 0 0 0  0 1 0 0 0  0 0 1 0 0  0 0 0 1 0"/>
				</filter>
			</defs>
			<mask maskUnits="userSpaceOnUse" x="55" y="72" width="3" height="9" id="mask-2_4_">
				<g class="st8">
					<polygon id="path-1_4_" class="st2" points="0,104 134,104 134,1 0,1 					"/>
				</g>
			</mask>
			<path id="Fill-29" class="st9" d="M57,80.3c0,0.2,0.1,0.3,0.2,0.3l0.8,0.1V81h-3v-0.3l0.8-0.1c0.2,0,0.2-0.1,0.2-0.3v-7.4
				c0-0.2-0.1-0.3-0.2-0.3H55v-0.3l2-0.3l0.1,0.1C57,72.4,57,72.7,57,73.2V80.3z"/>
			<defs>
				<filter id="Adobe_OpacityMaskFilter_4_" filterUnits="userSpaceOnUse" x="61" y="72" width="3" height="9">
					<feColorMatrix  type="matrix" values="1 0 0 0 0  0 1 0 0 0  0 0 1 0 0  0 0 0 1 0"/>
				</filter>
			</defs>
			<mask maskUnits="userSpaceOnUse" x="61" y="72" width="3" height="9" id="mask-2_5_">
				<g class="st10">
					<polygon id="path-1_5_" class="st2" points="0,104 134,104 134,1 0,1 					"/>
				</g>
			</mask>
			<path id="Fill-30" class="st11" d="M62.5,72c0.4,0,0.6,0.3,0.6,0.7c0,0.4-0.3,0.7-0.6,0.7s-0.6-0.3-0.6-0.7
				C61.9,72.3,62.1,72,62.5,72L62.5,72z M63,80.3c0,0.2,0.1,0.3,0.2,0.3l0.8,0.1V81h-3v-0.3l0.8-0.1c0.2,0,0.2-0.1,0.2-0.3v-5
				c0-0.2-0.1-0.3-0.2-0.3H61v-0.3l2-0.3l0.1,0.1C63,74.7,63,75.1,63,75.6V80.3z"/>
			<defs>
				<filter id="Adobe_OpacityMaskFilter_5_" filterUnits="userSpaceOnUse" x="67" y="74" width="8" height="7">
					<feColorMatrix  type="matrix" values="1 0 0 0 0  0 1 0 0 0  0 0 1 0 0  0 0 0 1 0"/>
				</filter>
			</defs>
			<mask maskUnits="userSpaceOnUse" x="67" y="74" width="8" height="7" id="mask-2_6_">
				<g class="st12">
					<polygon id="path-1_6_" class="st2" points="0,103 134,103 134,0 0,0 					"/>
				</g>
			</mask>
			<path id="Fill-31" class="st13" d="M69.5,74.1c-0.1,0.3-0.1,0.7-0.1,1.2V76h0c0.6-1.4,1.5-2,2.5-2c1,0,1.9,0.6,1.9,2.1v4.1
				c0,0.2,0.1,0.3,0.3,0.3l0.9,0.1V81h-3.3v-0.4l0.7-0.1c0.2,0,0.2-0.1,0.2-0.3v-4c0-0.8-0.3-1.4-1.3-1.4c-1.3,0-1.9,1.4-1.9,2.6
				v2.8c0,0.2,0.1,0.3,0.3,0.3l0.9,0.1V81H67v-0.4l0.9-0.1c0.2,0,0.3-0.1,0.3-0.3v-5.3c0-0.2-0.1-0.3-0.3-0.3H67v-0.4l2.4-0.3
				L69.5,74.1z"/>
			<defs>
				<filter id="Adobe_OpacityMaskFilter_6_" filterUnits="userSpaceOnUse" x="77" y="72" width="3" height="9">
					<feColorMatrix  type="matrix" values="1 0 0 0 0  0 1 0 0 0  0 0 1 0 0  0 0 0 1 0"/>
				</filter>
			</defs>
			<mask maskUnits="userSpaceOnUse" x="77" y="72" width="3" height="9" id="mask-2_7_">
				<g class="st14">
					<polygon id="path-1_7_" class="st2" points="0,104 134,104 134,1 0,1 					"/>
				</g>
			</mask>
			<path id="Fill-32" class="st15" d="M78.5,72c0.4,0,0.6,0.3,0.6,0.7c0,0.4-0.3,0.7-0.6,0.7s-0.6-0.3-0.6-0.7
				C77.9,72.3,78.1,72,78.5,72L78.5,72z M79,80.3c0,0.2,0.1,0.3,0.2,0.3l0.8,0.1V81h-3v-0.3l0.8-0.1c0.2,0,0.2-0.1,0.2-0.3v-5
				c0-0.2-0.1-0.3-0.2-0.3H77v-0.3l2-0.3l0.1,0.1C79,74.7,79,75.1,79,75.6V80.3z"/>
			<defs>
				<filter id="Adobe_OpacityMaskFilter_7_" filterUnits="userSpaceOnUse" x="83" y="74" width="6" height="7">
					<feColorMatrix  type="matrix" values="1 0 0 0 0  0 1 0 0 0  0 0 1 0 0  0 0 0 1 0"/>
				</filter>
			</defs>
			<mask maskUnits="userSpaceOnUse" x="83" y="74" width="6" height="7" id="mask-2_8_">
				<g class="st16">
					<polygon id="path-1_8_" class="st2" points="0,103 134,103 134,0 0,0 					"/>
				</g>
			</mask>
			<path id="Fill-33" class="st17" d="M83,77.5c0-2.3,1.8-3.5,3.5-3.5c1.4,0,2.4,0.5,2.4,1c0,0.5-0.6,0.6-0.8,0.3
				c-0.4-0.4-0.7-1-1.6-1c-1.5,0-2.2,1.3-2.2,2.8c0,2.1,1,3.1,2.6,3.1c0.8,0,1.4-0.4,1.9-0.8l0.2,0.3c-0.5,0.6-1.4,1.2-2.6,1.2
				C84.3,81,83,79.5,83,77.5"/>
			<defs>
				<filter id="Adobe_OpacityMaskFilter_8_" filterUnits="userSpaceOnUse" x="1" y="41" width="132" height="1">
					<feColorMatrix  type="matrix" values="1 0 0 0 0  0 1 0 0 0  0 0 1 0 0  0 0 0 1 0"/>
				</filter>
			</defs>
			<mask maskUnits="userSpaceOnUse" x="1" y="41" width="132" height="1" id="mask-2_9_">
				<g class="st18">
					<polygon id="path-1_9_" class="st2" points="0,103 134,103 134,0 0,0 					"/>
				</g>
			</mask>
			<polygon id="Fill-34" class="st19" points="1,42 133,42 133,41 1,41 			"/>
			<defs>
				<filter id="Adobe_OpacityMaskFilter_9_" filterUnits="userSpaceOnUse" x="50" y="0" width="30" height="30">
					<feColorMatrix  type="matrix" values="1 0 0 0 0  0 1 0 0 0  0 0 1 0 0  0 0 0 1 0"/>
				</filter>
			</defs>
			<mask maskUnits="userSpaceOnUse" x="50" y="0" width="30" height="30" id="mask-2_10_">
				<g class="st20">
					<polygon id="path-1_10_" class="st2" points="0,103 134,103 134,0 0,0 					"/>
				</g>
			</mask>
			<path id="Fill-35" class="st21" d="M65,1.8c-7.2,0-13.1,5.9-13.1,13.2S57.8,28.2,65,28.2c0.4,0,0.8,0,1.2-0.1
				c6.4-0.6,11.4-6,11.8-12.4v-1.5c-0.3-4.6-3-8.8-7.1-10.9c-0.3-0.2-0.7-0.3-1-0.5c-0.2-0.1-0.5-0.2-0.7-0.3c0,0-0.3-0.1-0.4-0.1
				C67.6,2,66.3,1.8,65,1.8 M65,30c-2,0-4-0.4-5.8-1.2C53.6,26.5,50,21,50,15c0-8.3,6.7-15,15-15L65,0c0.1,0,0.2,0,0.3,0l0.3,0
				c0.2,0,0.4,0,0.5,0c0.3,0,0.6,0.1,0.9,0.1l0.1,0c4.6,0.7,8.6,3.5,10.8,7.5V0.6h1.8v0H80v13.6l0,0.2c0,0.2,0,0.4,0,0.6
				s0,0.4,0,0.6l0,0.2v13.5h-1.8v0l-0.1-0.3v-6.6C75.4,27,70.4,30,65,30"/>
			<defs>
				<filter id="Adobe_OpacityMaskFilter_10_" filterUnits="userSpaceOnUse" x="50" y="0" width="30" height="30">
					<feColorMatrix  type="matrix" values="1 0 0 0 0  0 1 0 0 0  0 0 1 0 0  0 0 0 1 0"/>
				</filter>
			</defs>
			<mask maskUnits="userSpaceOnUse" x="50" y="0" width="30" height="30" id="mask-2_11_">
				<g class="st22">
					<polygon id="path-1_11_" class="st2" points="0,103 134,103 134,0 0,0 					"/>
				</g>
			</mask>
			<path id="Fill-36" class="st23" d="M65,27.6c-6.9,0-12.6-5.7-12.6-12.6S58.1,2.4,65,2.4c1.3,0,2.5,0.2,3.7,0.6
				c0.1,0,0.1,0,0.2,0.1l0.2,0.1c0.2,0.1,0.5,0.2,0.7,0.3c0.4,0.1,0.7,0.3,1,0.5c3.9,2.1,6.5,6.1,6.8,10.5l0,1.5
				c-0.3,6.1-5.2,11.2-11.3,11.8C65.8,27.6,65.4,27.6,65,27.6 M65,0L65,0L65,0L65,0c-8.3,0-15,6.7-15,15c0,6.1,3.6,11.5,9.2,13.8
				C61,29.6,63,30,65,30c5.1,0,9.8-2.6,12.5-6.8v5.4v0.6h0.1l0.6,0h1.2H80v-0.6V15.8l0-0.2c0-0.2,0-0.4,0-0.6s0-0.4,0-0.6l0-0.2
				l0-13V0.6h-0.1l-0.6,0h-1.2h-0.6v0.6v5.6c-2.3-3.5-6-5.9-10.3-6.6l-0.1,0l-0.1,0c-0.4-0.1-0.7-0.1-1-0.1c-0.2,0-0.4,0-0.5,0
				l-0.1,0c-0.1,0-0.1,0-0.2,0C65.3,0,65.1,0,65,0 M65,28.2c0.4,0,0.8,0,1.2-0.1c6.4-0.6,11.5-5.9,11.8-12.4v-1.5
				C77.8,9.5,75,5.4,71,3.3c0,0,0,0,0,0c-0.3-0.2-0.7-0.3-1-0.5c-0.2-0.1-0.5-0.2-0.7-0.3c-0.1,0-0.2-0.1-0.4-0.1
				C67.7,2,66.4,1.8,65,1.8c-7.3,0-13.2,5.9-13.2,13.2S57.8,28.2,65,28.2 M65,0.6c0.2,0,0.3,0,0.5,0c0.2,0,0.4,0,0.6,0
				c0.3,0,0.6,0.1,0.9,0.1l0.1,0c4.9,0.7,9,3.9,10.9,8.3V1.1h1.2v0h0.1v13.1c0,0.3,0,0.5,0,0.8c0,0.3,0,0.5,0,0.8v12.9h-1.2v0h-0.1
				V21c-2.3,5-7.3,8.5-13.1,8.5c-2,0-3.9-0.4-5.6-1.1c-5.2-2.2-8.8-7.3-8.8-13.3C50.6,7,57,0.6,65,0.6C65,0.6,65,0.6,65,0.6
				C65,0.6,65,0.6,65,0.6"/>
			<defs>
				<filter id="Adobe_OpacityMaskFilter_11_" filterUnits="userSpaceOnUse" x="0" y="0" width="30" height="30">
					<feColorMatrix  type="matrix" values="1 0 0 0 0  0 1 0 0 0  0 0 1 0 0  0 0 0 1 0"/>
				</filter>
			</defs>
			<mask maskUnits="userSpaceOnUse" x="0" y="0" width="30" height="30" id="mask-2_12_">
				<g class="st24">
					<polygon id="path-1_12_" class="st2" points="0,103 134,103 134,0 0,0 					"/>
				</g>
			</mask>
			<path id="Fill-37" class="st25" d="M28.1,14.1c-0.3-5-3.5-9.4-8.1-11.3c-1.6-0.6-3.2-1-4.9-1C8.1,1.8,2.4,7.2,1.9,14.1H28.1z
				 M15,30c-2,0-4-0.4-5.8-1.2C3.6,26.5,0,21,0,15C0,6.7,6.7,0,14.9,0L15,0c8.3,0,15,6.7,15,15v0.9H1.9C2.4,22.8,8.1,28.2,15,28.2
				c0.2,0,0.5,0,0.7,0c3.8-0.2,7.4-2.1,9.7-5.3l0.2-0.2l0,0l0.3,0.1l1.2,0.9L27,24C24.1,27.8,19.8,30,15,30L15,30z"/>
			<defs>
				<filter id="Adobe_OpacityMaskFilter_12_" filterUnits="userSpaceOnUse" x="0" y="0" width="30" height="30">
					<feColorMatrix  type="matrix" values="1 0 0 0 0  0 1 0 0 0  0 0 1 0 0  0 0 0 1 0"/>
				</filter>
			</defs>
			<mask maskUnits="userSpaceOnUse" x="0" y="0" width="30" height="30" id="mask-2_13_">
				<g class="st26">
					<polygon id="path-1_13_" class="st2" points="0,103 134,103 134,0 0,0 					"/>
				</g>
			</mask>
			<path id="Fill-38" class="st27" d="M2.5,13.8C3.1,7.4,8.5,2.4,15,2.4c1.6,0,3.2,0.3,4.7,0.9c4.3,1.8,7.3,5.9,7.8,10.5H2.5z M15,0
				L15,0L15,0L15,0C6.7,0,0,6.7,0,15C0,21,3.6,26.5,9.2,28.8C11,29.6,13,30,15,30c4.8,0,9.1-2.2,12-6l0.4-0.5l-0.5-0.4l-1-0.7
				l-0.5-0.4l0,0l0,0L25,22.6c-2.2,3-5.6,4.8-9.3,5c-0.2,0-0.5,0-0.7,0c-6.5,0-11.9-5-12.5-11.4h26.9H30v-0.6V15C30,6.7,23.3,0,15,0
				L15,0z M1.9,14.4h26.3C27.9,9.1,24.6,4.7,20,2.8c-1.5-0.6-3.2-1-4.9-1C8,1.8,2.2,7.4,1.9,14.4L1.9,14.4z M15,0.6
				C23,0.6,29.4,7.1,29.4,15v0.6H1.9C2.2,22.6,8,28.2,15,28.2c0.2,0,0.5,0,0.7,0c3.9-0.2,7.4-2.1,9.7-5.3l0,0c0,0,0,0,0,0l1,0.7
				c-2.7,3.7-6.9,5.8-11.5,5.8c-2,0-3.9-0.4-5.6-1.1C4.2,26.1,0.6,21,0.6,15C0.6,7,7,0.6,15,0.6C15,0.6,15,0.6,15,0.6
				C15,0.6,15,0.6,15,0.6L15,0.6z"/>
			<defs>
				<filter id="Adobe_OpacityMaskFilter_13_" filterUnits="userSpaceOnUse" x="91" y="0" width="43" height="29">
					<feColorMatrix  type="matrix" values="1 0 0 0 0  0 1 0 0 0  0 0 1 0 0  0 0 0 1 0"/>
				</filter>
			</defs>
			<mask maskUnits="userSpaceOnUse" x="91" y="0" width="43" height="29" id="mask-2_14_">
				<g class="st28">
					<polygon id="path-1_14_" class="st2" points="0,103 134,103 134,0 0,0 					"/>
				</g>
			</mask>
			<path id="Fill-39" class="st29" d="M91.1,29L91.1,29L91,29V0.6h1.8v0h0.1v4.6c1.8-2.9,4.8-4.8,8.3-5.1l0.1,0c0.3,0,0.7-0.1,1-0.1
				l0.1,0c0.2,0,0.4,0,0.6,0l0.3,0c4.1,0.3,7.7,2.9,9.4,6.7c1.6-3.7,5.1-6.3,9.1-6.7c0.4,0,0.7-0.1,1.1-0.1l0.1,0
				C129,0,134,5,134,11.2l0,17.8h-1.8v0l-0.1-0.3V11.2c0-3.8-2.2-7.2-5.7-8.7c-1.1-0.5-2.3-0.7-3.6-0.7c-5.1,0-9.3,4.2-9.4,9.4
				l0,17.8h-1.8v0l-0.1-0.3l0-17.5c0-3.8-2.2-7.2-5.7-8.7c-1.1-0.5-2.3-0.7-3.6-0.7C97.2,1.8,93,6,93,11.2L93,29l-0.4,0H91.1z"/>
			<defs>
				<filter id="Adobe_OpacityMaskFilter_14_" filterUnits="userSpaceOnUse" x="90" y="0" width="44" height="29">
					<feColorMatrix  type="matrix" values="1 0 0 0 0  0 1 0 0 0  0 0 1 0 0  0 0 0 1 0"/>
				</filter>
			</defs>
			<mask maskUnits="userSpaceOnUse" x="90" y="0" width="44" height="29" id="mask-2_15_">
				<g class="st30">
					<polygon id="path-1_15_" class="st2" points="0,103 134,103 134,0 0,0 					"/>
				</g>
			</mask>
			<path id="Fill-40" class="st31" d="M122.4,0C122.4,0,122.4,0,122.4,0c-0.4,0-0.8,0-1.2,0.1h0l0,0c-3.9,0.4-7.4,2.7-9.2,6.2
				c-1.8-3.5-5.4-5.9-9.5-6.2c0,0-0.1,0-0.1,0l0,0l-0.2,0c-0.2,0-0.4,0-0.6,0c0,0-0.1,0-0.1,0c-0.3,0-0.7,0-1.1,0.1l-0.1,0
				c-3.2,0.3-6.1,1.9-8,4.4V1.2V0.6h-0.1l-0.6,0h-1.2H90v0.6v27.3V29h0.1l0.6,0h1.2h0.6v0h0.1v-0.6V11.3c0-4.9,4.1-8.9,9.2-8.9
				c1.2,0,2.4,0.2,3.5,0.7c3.4,1.4,5.6,4.6,5.6,8.2l0,17.1V29h0.1l0.6,0h1.2h0.6v-0.6V11.3v-0.1c0.1-4.9,4.2-8.8,9.1-8.8
				c1.2,0,2.4,0.2,3.5,0.7c3.4,1.4,5.6,4.6,5.6,8.2v17.1V29h0.1l0.6,0h1.2h0.6v-0.6V11.3c0-3-1.2-5.8-3.4-8S125.5,0,122.4,0
				 M122.4,0.6c6,0,11,4.8,11,10.7h0v17.1h-1.2v0h-0.1V11.3c0-3.9-2.5-7.3-6-8.8c-1.1-0.5-2.4-0.7-3.7-0.7c-5.4,0-9.7,4.3-9.7,9.5h0
				v17.1h-1.2v0h-0.1l0-17.1v0c0-3.9-2.5-7.3-5.9-8.8c-1.1-0.5-2.4-0.7-3.7-0.7C96.4,1.8,92,6,92,11.3h0v17.1h-0.1v0h-1.2v0h-0.1
				V1.2h1.2v0h0.1v5.3c1.7-3.2,4.9-5.4,8.7-5.8c0,0,0.1,0,0.1,0c0.3,0,0.7,0,1,0h0c0,0,0.1,0,0.1,0c0.2,0,0.5,0,0.7,0
				c0,0,0.1,0,0.1,0c4.4,0.3,8.1,3.2,9.5,7.1c1.4-3.8,5-6.7,9.2-7.1c0,0,0,0,0,0C121.7,0.6,122,0.6,122.4,0.6L122.4,0.6
				C122.4,0.6,122.4,0.6,122.4,0.6"/>
			<defs>
				<filter id="Adobe_OpacityMaskFilter_15_" filterUnits="userSpaceOnUse" x="38" y="0" width="11" height="29">
					<feColorMatrix  type="matrix" values="1 0 0 0 0  0 1 0 0 0  0 0 1 0 0  0 0 0 1 0"/>
				</filter>
			</defs>
			<mask maskUnits="userSpaceOnUse" x="38" y="0" width="11" height="29" id="mask-2_16_">
				<g class="st32">
					<polygon id="path-1_16_" class="st2" points="0,103 134,103 134,0 0,0 					"/>
				</g>
			</mask>
			<path id="Fill-41" class="st33" d="M38.1,29L38.1,29L38,28.7V0.6h1.8v0h0.1v5c1.7-3.2,4.3-5.2,7.6-5.6C48,0,48.3,0,48.6,0h0.3
				L49,0.3v1.5h-0.3c-5.4,0-8.8,4.9-8.8,12.5V29H38.1z"/>
			<defs>
				<filter id="Adobe_OpacityMaskFilter_16_" filterUnits="userSpaceOnUse" x="38" y="0" width="11" height="29">
					<feColorMatrix  type="matrix" values="1 0 0 0 0  0 1 0 0 0  0 0 1 0 0  0 0 0 1 0"/>
				</filter>
			</defs>
			<mask maskUnits="userSpaceOnUse" x="38" y="0" width="11" height="29" id="mask-2_17_">
				<g class="st34">
					<polygon id="path-1_17_" class="st2" points="0,103 134,103 134,0 0,0 					"/>
				</g>
			</mask>
			<path id="Fill-42" class="st35" d="M49,0h-0.6c0,0-0.1,0-0.1,0h0c-0.3,0-0.6,0-1,0.1h0l0,0c-2.9,0.3-5.3,2-6.9,4.6V1.2V0.6h-0.1
				l-0.6,0h-1.1H38v0.6v27.3V29h0.1l0.6,0h1.2h0.6v-0.6V14.3c0-7.3,3.2-11.9,8.1-11.9H49V1.8V0.6V0z M48.4,0.6v1.2
				c-5.2,0-8.6,4.9-8.6,12.5l0,0v14.1h-1.2v0h-0.1V1.1h1.1v0h0.1v6c1.5-3.7,4.1-6.1,7.5-6.5c0,0,0,0,0.1,0C47.7,0.6,48,0.6,48.4,0.6
				L48.4,0.6C48.4,0.6,48.4,0.6,48.4,0.6L48.4,0.6z"/>
			<defs>
				<filter id="Adobe_OpacityMaskFilter_17_" filterUnits="userSpaceOnUse" x="62" y="93" width="11" height="11">
					<feColorMatrix  type="matrix" values="1 0 0 0 0  0 1 0 0 0  0 0 1 0 0  0 0 0 1 0"/>
				</filter>
			</defs>
			<mask maskUnits="userSpaceOnUse" x="62" y="93" width="11" height="11" id="mask-2_18_">
				<g class="st36">
					<polygon id="path-1_18_" class="st2" points="0,103 134,103 134,0 0,0 					"/>
				</g>
			</mask>
			<path id="Fill-43" class="st37" d="M70.9,99.6h-2.3v2.3h-2.1v-2.3h-2.4v-2.1h2.4v-2.3h2.1v2.3h2.3V99.6z M62,104h11V93H62V104z"
				/>
			<defs>
				<filter id="Adobe_OpacityMaskFilter_18_" filterUnits="userSpaceOnUse" x="64" y="95" width="7" height="7">
					<feColorMatrix  type="matrix" values="1 0 0 0 0  0 1 0 0 0  0 0 1 0 0  0 0 0 1 0"/>
				</filter>
			</defs>
			<mask maskUnits="userSpaceOnUse" x="64" y="95" width="7" height="7" id="mask-2_19_">
				<g class="st38">
					<polygon id="path-1_19_" class="st2" points="0,103 134,103 134,0 0,0 					"/>
				</g>
			</mask>
			<polygon id="Fill-44" class="st39" points="68.6,95 66.5,95 66.5,97.4 64,97.4 64,99.6 66.5,99.6 66.5,102 68.6,102 68.6,99.6 
				71,99.6 71,97.4 68.6,97.4 			"/>
		</g>
	</g>
</g>
</svg>
