<?xml version="1.0" encoding="UTF-8"?>
<svg width="248px" height="60px" viewBox="0 0 248 60" version="1.1" xmlns="http://www.w3.org/2000/svg" xmlns:xlink="http://www.w3.org/1999/xlink">
    <!-- Generator: Sketch 57.1 (83088) - https://sketch.com -->
    <title>eramSimileDesign</title>
    <desc>Created with Sketch.</desc>
    <g id="Welcome" stroke="none" stroke-width="1" fill="none" fill-rule="evenodd">
        <g id="Desktop-HD" transform="translate(-149.000000, -2092.000000)">
            <g id="eramSimileDesign" transform="translate(149.000000, 2092.000000)">
                <g id="Group-4" fill="#FEFEFE">
                    <path d="M54.236196,1.49347122 C48.2722146,1.49347122 43.4199518,6.32313039 43.4199518,12.2593292 C43.4199518,18.1955281 48.2722146,23.0251873 54.236196,23.0251873 C54.5541096,23.0251873 54.8876905,23.0082935 55.2565225,22.9732065 C60.4913262,22.4508003 64.6659826,18.1058614 64.9662707,12.8662042 L64.9662707,11.6160678 C64.7501938,7.86565842 62.526104,4.43882908 59.1615725,2.68642887 C58.8762989,2.53893356 58.5955948,2.41093103 58.3103212,2.29267488 C58.1164396,2.21405403 57.9166828,2.14388005 57.7162732,2.07565535 C57.7162732,2.07565535 57.4721259,1.98728811 57.4114155,1.9684451 C56.3832554,1.65331195 55.3139689,1.49347122 54.236196,1.49347122 M54.236196,24.5157346 C52.5735143,24.5157346 50.9591397,24.1895555 49.4374627,23.5456443 C44.8397919,21.6321038 41.868246,17.1974982 41.868246,12.2482833 C41.868246,5.49793637 47.3857121,0.00552295209 54.1683048,0.00552295209 L54.236196,0.00292391581 C54.3256296,0.00292391581 54.4137576,0.00877174744 54.5018856,0.0146195791 L54.7414633,0.0269650014 C54.8929129,0.032812833 55.0443625,0.0386606646 55.1938537,0.051006087 C55.4549737,0.0711486181 55.7141354,0.102337053 55.9719914,0.138723561 L56.0673002,0.15366802 C59.852235,0.718958411 63.1110129,2.97882045 64.9662707,6.27244918 L64.9662707,0.470100687 L66.4350708,0.470100687 L66.4350708,0.481146591 L66.5173236,0.481146591 L66.5173236,11.6206161 L66.5297268,11.8031984 C66.5401716,11.9545922 66.5499636,12.1059861 66.5499636,12.2593292 C66.5499636,12.4126724 66.5401716,12.5640662 66.5297268,12.7148104 L66.5173236,12.9110376 L66.5173236,23.9036615 L65.0204531,23.9036615 L65.0204531,23.8926156 L64.9662707,23.648956 L64.9662707,18.2449098 C62.7976688,22.0849859 58.6902508,24.5157346 54.236196,24.5157346" id="Fill-35"></path>
                    <path d="M23.1052055,11.5139256 C22.8277654,7.4522817 20.2289684,3.84676862 16.4251024,2.28149902 C15.1332111,1.75844297 13.7675533,1.49334127 12.36795,1.49334127 C6.65529665,1.49334127 1.96427539,5.87466668 1.57716495,11.5139256 L23.1052055,11.5139256 Z M12.36795,24.5156046 C10.705921,24.5156046 9.09219929,24.1894256 7.57052234,23.5461641 C2.97219869,21.6326236 -1.27897692e-13,17.198018 -1.27897692e-13,12.2481534 C-1.27897692e-13,5.49780642 5.51811894,0.00604275935 12.299406,0.00604275935 L12.36795,0.002793964 C19.1577235,0.002793964 24.6817176,5.50105521 24.6817176,12.2591993 L24.6817176,13.0044729 L1.57716495,13.0044729 C1.96427539,18.6437319 6.65529665,23.0250573 12.36795,23.0250573 C12.5696652,23.0250573 12.7700748,23.0185597 12.9691789,23.0075138 C16.1339536,22.8184339 19.0487059,21.2544639 20.9640212,18.7171547 L21.1109013,18.522227 L21.1468053,18.5488671 L21.3641877,18.6710218 L22.365583,19.420194 L22.218703,19.6151217 C19.8673171,22.7294169 16.2769168,24.5156046 12.36795,24.5156046 L12.36795,24.5156046 Z" id="Fill-37"></path>
                    <path d="M75.3454653,23.907885 L75.3454653,23.9039864 L75.2364477,23.9039864 L75.2364477,0.480821712 L76.733971,0.480821712 L76.733971,0.485370025 L76.8142654,0.485370025 L76.8142654,4.25332287 C78.343776,1.88170227 80.857709,0.332676644 83.7006533,0.0526304846 L83.7678917,0.0454831349 C84.0485957,0.0201425312 84.3306053,0.00259903628 84.6178374,0.00259903628 L84.6857286,2.48689958e-14 C84.841095,2.48689958e-14 84.994503,0.00974638604 85.147911,0.0207922902 L85.3874887,0.0350869898 C88.834273,0.292391581 91.8417229,2.44439362 93.209339,5.58013089 C94.5443151,2.51976567 97.4675538,0.374910983 100.818377,0.0506812074 C101.136943,0.0201425312 101.426133,0.00259903628 101.719893,0.00259903628 L101.787785,2.48689958e-14 C106.916182,2.48689958e-14 111.087574,4.15196045 111.087574,9.25646771 L111.086922,23.9039864 L109.590051,23.9039864 L109.590051,23.8929405 L109.535869,23.6492809 L109.535869,9.2454218 C109.535869,6.12073044 107.665596,3.30922294 104.771081,2.08247782 C103.821257,1.69002334 102.81725,1.49054731 101.787785,1.49054731 C97.4975826,1.49054731 93.9979215,4.96545881 93.9868239,9.23632517 L93.9881295,23.9039864 L92.4906061,23.9039864 L92.4906061,23.8922907 L92.4364237,23.6492809 L92.4344653,9.24607156 C92.4344653,6.12138019 90.5635404,3.3098727 87.6690249,2.08312758 C86.7198536,1.69002334 85.7158471,1.49054731 84.6857286,1.49054731 C80.3837762,1.49054731 76.8834622,4.97390568 76.8834622,9.25646771 L76.8828094,23.9039864 L76.5694654,23.907885 L75.3454653,23.907885 Z" id="Fill-39"></path>
                    <path d="M31.272844,23.9037915 L31.272844,23.8927456 L31.2186616,23.6490859 L31.2186616,0.470230639 L32.6874617,0.470230639 L32.6874617,0.481276543 L32.7703674,0.481276543 L32.7703674,4.63713555 C34.1471227,1.97377313 36.3320445,0.361720874 39.0170112,0.0595829067 C39.3936768,0.0186480853 39.6685056,0.00305386763 39.9335425,0.00305386763 L40.1783425,0.00305386763 L40.2468865,0.243464723 L40.2468865,1.49035238 L40.0020865,1.49035238 C35.6093948,1.49035238 32.7703674,5.52925475 32.7703674,11.7805868 L32.7703674,23.9037915 L31.272844,23.9037915 Z" id="Fill-41"></path>
                </g>
                <path d="M74.2285316,53.4360917 C71.0990081,53.4360917 69.5009536,52.3041364 68.2691198,51.5051091 L67.6698494,45.6455757 L67.9694846,45.6455757 C70.7993729,51.6382803 72.4307203,53.1031637 74.2285316,53.1031637 C76.6921991,53.1031637 77.89074,51.5384019 77.89074,49.2079057 C77.89074,46.5111886 76.1595142,44.8132556 73.9621892,43.7478859 C70.9658369,42.2830026 68.069363,40.2188488 68.069363,36.456762 C68.069363,32.5615041 71.1655937,30.1311294 75.0275589,30.1311294 C77.9240328,30.1311294 79.755137,31.2630847 80.9536779,32.062112 L80.9536779,37.5887173 L80.6873355,37.5887173 C78.1570824,31.6958912 76.9918343,30.4640574 75.0275589,30.4640574 C73.829018,30.4640574 72.3308418,31.3962559 72.3308418,33.8266306 C72.3308418,36.0905412 73.49609,37.5887173 76.8586631,39.1867719 C79.5220873,40.4518984 82.0190476,42.9821515 82.0190476,46.4778958 C82.0190476,51.0723027 78.3568392,53.4360917 74.2285316,53.4360917 Z M89.909442,40.9512905 L89.9760276,40.9512905 C91.1079829,37.2890821 92.9723799,36.123834 95.1697049,36.123834 C97.3670299,36.123834 99.1315485,37.5221317 99.3645981,40.9512905 L99.4311837,40.9512905 C100.563139,37.2890821 102.460829,36.123834 104.658154,36.123834 C106.822186,36.123834 108.853047,37.7218886 108.853047,41.3840969 L108.853047,51.7714515 C108.853047,52.2708436 109.019511,52.537186 109.452317,52.6037716 L110.817322,52.7702356 L110.817322,53.1031637 L103.19327,53.1031637 L103.19327,52.7702356 L104.092176,52.6037716 C104.49169,52.5038932 104.524983,52.2708436 104.524983,51.7714515 L104.524983,41.3175113 C104.524983,39.7527496 103.959005,38.5875014 102.494122,38.5875014 C100.629725,38.5875014 99.3645981,40.9845833 99.3645981,43.4482507 L99.3645981,51.7714515 C99.3645981,52.2708436 99.5643549,52.537186 99.9638685,52.6037716 L101.362166,52.7702356 L101.362166,53.1031637 L93.7381143,53.1031637 L93.7381143,52.7702356 L94.6037272,52.6037716 C95.0365337,52.5038932 95.0698265,52.2708436 95.0698265,51.7714515 L95.0698265,41.3175113 C95.0698265,39.7527496 94.470556,38.5875014 93.0056727,38.5875014 C91.1412757,38.5875014 89.909442,40.9845833 89.909442,43.4482507 L89.909442,51.7714515 C89.909442,52.2708436 90.075906,52.537186 90.5087124,52.6037716 L91.8071317,52.7702356 L91.8071317,53.1031637 L83.6836877,53.1031637 L83.6836877,52.7702356 L85.0153999,52.6037716 C85.4149135,52.537186 85.5813775,52.2708436 85.5813775,51.7714515 L85.5813775,37.988231 C85.5813775,37.4888389 85.4149135,37.3223749 85.0153999,37.3223749 L83.6836877,37.3223749 L83.6836877,36.9894469 L89.909442,36.123834 L90.0426132,36.290298 C89.9760276,36.8562757 89.909442,38.0548166 89.909442,39.3865287 L89.909442,40.9512905 Z M113.380868,31.7624768 C113.380868,30.2975934 114.479531,29.4319805 115.844536,29.4319805 C117.242833,29.4319805 118.341496,30.2975934 118.341496,31.7624768 C118.341496,33.2273601 117.242833,34.1262658 115.844536,34.1262658 C114.479531,34.1262658 113.380868,33.2273601 113.380868,31.7624768 Z M118.008568,39.3865287 L118.008568,51.7714515 C118.008568,52.2708436 118.175032,52.537186 118.607838,52.6037716 L119.906258,52.7702356 L119.906258,53.1031637 L111.782814,53.1031637 L111.782814,52.7702356 L113.114526,52.6037716 C113.514039,52.537186 113.680503,52.2708436 113.680503,51.7714515 L113.680503,37.988231 C113.680503,37.4888389 113.514039,37.3223749 113.114526,37.3223749 L111.782814,37.3223749 L111.782814,36.9894469 L118.008568,36.123834 L118.141739,36.290298 C118.075154,36.8562757 118.008568,38.0548166 118.008568,39.3865287 Z M127.097503,32.7279681 L127.097503,51.7714515 C127.097503,52.2708436 127.263967,52.537186 127.696774,52.6037716 L128.995193,52.7702356 L128.995193,53.1031637 L120.871749,53.1031637 L120.871749,52.7702356 L122.203461,52.6037716 C122.602975,52.537186 122.769439,52.2708436 122.769439,51.7714515 L122.769439,31.3296703 C122.769439,30.8302783 122.602975,30.6638143 122.203461,30.6638143 L120.871749,30.6638143 L120.871749,30.3308862 L127.097503,29.4652734 L127.230674,29.6317374 C127.164089,30.197715 127.097503,31.3962559 127.097503,32.7279681 Z M138.117421,36.456762 C136.08656,36.456762 134.987898,39.2533575 134.788141,43.0820299 L140.348039,43.0820299 C140.914017,38.7539655 140.015111,36.456762 138.117421,36.456762 Z M144.143418,43.4482507 L134.788141,43.4482507 C134.621677,48.475464 136.552659,51.5716947 139.915232,51.5716947 C141.380116,51.5716947 142.645242,50.9724243 143.81049,49.8071761 L143.976954,49.9403474 C142.944878,51.6715731 140.780845,53.4360917 137.884371,53.4360917 C133.789357,53.4360917 130.227027,50.4730322 130.227027,44.9131341 C130.227027,39.0536007 134.42192,36.123834 138.117421,36.123834 C141.346823,36.123834 145.009031,37.5887173 144.143418,43.4482507 Z M160.024086,52.7702356 L162.121532,52.7702356 C167.08216,52.7702356 168.347286,46.9107023 168.347286,41.7836106 C168.347286,35.8241988 166.982281,30.7969855 161.821897,30.7969855 L160.024086,30.7969855 L160.024086,52.7702356 Z M162.654217,53.1031637 L152.966011,53.1031637 L152.966011,52.7702356 L154.564066,52.6037716 C154.996872,52.5704788 155.163336,52.2708436 155.163336,51.7714515 L155.163336,31.7957696 C155.163336,31.2963775 154.996872,30.9967423 154.564066,30.9634495 L152.966011,30.7969855 L152.966011,30.4640574 L162.654217,30.4640574 C169.046435,30.4640574 173.507671,34.6922435 173.507671,41.7836106 C173.507671,48.4421712 169.013142,53.1031637 162.654217,53.1031637 Z M183.728562,36.456762 C181.697701,36.456762 180.599038,39.2533575 180.399281,43.0820299 L185.959179,43.0820299 C186.525157,38.7539655 185.626251,36.456762 183.728562,36.456762 Z M189.754559,43.4482507 L180.399281,43.4482507 C180.232817,48.475464 182.1638,51.5716947 185.526373,51.5716947 C186.991256,51.5716947 188.256383,50.9724243 189.421631,49.8071761 L189.588095,49.9403474 C188.556018,51.6715731 186.391986,53.4360917 183.495512,53.4360917 C179.400497,53.4360917 175.838167,50.4730322 175.838167,44.9131341 C175.838167,39.0536007 180.03306,36.123834 183.728562,36.123834 C186.957963,36.123834 190.620172,37.5887173 189.754559,43.4482507 Z M197.212147,53.4360917 C195.780556,53.4360917 194.415551,53.2363349 192.284812,52.70365 L191.951884,48.2091216 L192.251519,48.2091216 C193.416767,50.9724243 194.681894,53.1031637 196.912512,53.1031637 C198.377395,53.1031637 199.409472,52.0045012 199.409472,50.2066898 C199.409472,48.4088784 198.344102,47.3435087 196.046899,46.2448462 C193.350182,44.9464269 191.985177,43.6147147 191.985177,40.9512905 C191.985177,38.2878662 193.882867,36.123834 197.61166,36.123834 C198.91008,36.123834 199.842278,36.3235908 202.106189,36.8562757 L202.23936,41.3508041 L201.939725,41.3508041 C200.774477,38.4210374 200.008742,36.456762 197.911296,36.456762 C196.41312,36.456762 195.647385,37.655303 195.647385,39.0536007 C195.647385,41.0511689 197.01239,41.7836106 198.177638,42.3495882 C201.573504,44.0142284 203.204851,45.2460621 203.204851,48.2091216 C203.204851,51.3719379 200.57472,53.4360917 197.212147,53.4360917 Z M206.500839,31.7624768 C206.500839,30.2975934 207.599501,29.4319805 208.964506,29.4319805 C210.362804,29.4319805 211.461467,30.2975934 211.461467,31.7624768 C211.461467,33.2273601 210.362804,34.1262658 208.964506,34.1262658 C207.599501,34.1262658 206.500839,33.2273601 206.500839,31.7624768 Z M211.128539,39.3865287 L211.128539,51.7714515 C211.128539,52.2708436 211.295003,52.537186 211.727809,52.6037716 L213.026228,52.7702356 L213.026228,53.1031637 L204.902784,53.1031637 L204.902784,52.7702356 L206.234497,52.6037716 C206.63401,52.537186 206.800474,52.2708436 206.800474,51.7714515 L206.800474,37.988231 C206.800474,37.4888389 206.63401,37.3223749 206.234497,37.3223749 L204.902784,37.3223749 L204.902784,36.9894469 L211.128539,36.123834 L211.26171,36.290298 C211.195124,36.8562757 211.128539,38.0548166 211.128539,39.3865287 Z M222.947484,54.1352406 L217.687221,53.8688981 C217.254414,54.3682902 217.021365,55.2339031 217.021365,56.0329303 C217.021365,57.5311065 217.720514,59.4287963 220.816744,59.4287963 C224.512245,59.4287963 225.777372,58.2302554 225.777372,56.1661016 C225.777372,54.6013398 224.21261,54.2018262 222.947484,54.1352406 Z M219.085519,47.6098511 L219.085519,47.5432655 C216.022581,46.611067 214.923918,44.1473996 214.923918,41.9500746 C214.923918,38.6207942 217.254414,36.123834 221.083087,36.123834 C222.181749,36.123834 223.147241,36.3235908 223.979561,36.7231045 C224.478953,36.456762 226.1103,35.5911491 227.342134,35.5911491 C228.60726,35.5911491 229.040067,36.3235908 229.040067,36.9894469 C229.040067,37.9549382 228.00799,38.2545734 227.308841,37.8883526 C226.077007,37.2224965 225.211394,36.8562757 224.379074,36.8895685 L224.379074,36.9561541 C226.210178,37.988231 227.242255,39.8859208 227.242255,41.9500746 C227.242255,45.2793549 224.878466,47.7763151 221.083087,47.7763151 C219.451739,47.7763151 218.253198,47.8429007 218.253198,48.9415633 C218.253198,49.8404689 219.118811,50.006933 220.05101,50.0402258 L223.879682,50.2066898 C227.075791,50.339861 229.239824,51.5051091 229.239824,54.3682902 C229.239824,58.2302554 224.645417,59.7617243 220.783452,59.7617243 C217.587342,59.7617243 214.191476,59.2956251 214.191476,56.6322008 C214.191476,54.6346326 216.222337,53.9687765 217.354293,53.7690197 L217.354293,53.7024341 C216.089166,53.2363349 215.390017,52.537186 215.390017,51.0390099 C215.390017,49.3410769 216.988072,47.976072 219.085519,47.6098511 Z M221.083087,47.4433871 C222.814313,47.4433871 223.213826,45.2793549 223.213826,41.9500746 C223.213826,38.6207942 222.814313,36.456762 221.083087,36.456762 C219.351861,36.456762 218.919055,38.6207942 218.919055,41.9500746 C218.919055,45.2793549 219.351861,47.4433871 221.083087,47.4433871 Z M236.297898,36.123834 L236.431069,36.290298 C236.364483,36.8562757 236.297898,38.0548166 236.297898,39.3865287 L236.297898,40.9512905 L236.364483,40.9512905 C237.496439,37.2890821 239.394129,36.123834 241.558161,36.123834 C243.755486,36.123834 245.753054,37.7218886 245.753054,41.3840969 L245.753054,51.7714515 C245.753054,52.2708436 245.952811,52.537186 246.352324,52.6037716 L247.750622,52.7702356 L247.750622,53.1031637 L240.12657,53.1031637 L240.12657,52.7702356 L240.992183,52.6037716 C241.42499,52.5038932 241.458282,52.2708436 241.458282,51.7714515 L241.458282,41.3175113 C241.458282,39.7527496 240.892305,38.5875014 239.394129,38.5875014 C237.563024,38.5875014 236.297898,40.9845833 236.297898,43.4482507 L236.297898,51.7714515 C236.297898,52.2708436 236.464362,52.537186 236.897168,52.6037716 L238.195588,52.7702356 L238.195588,53.1031637 L230.072144,53.1031637 L230.072144,52.7702356 L231.403856,52.6037716 C231.803369,52.537186 231.969833,52.2708436 231.969833,51.7714515 L231.969833,37.988231 C231.969833,37.4888389 231.803369,37.3223749 231.403856,37.3223749 L230.072144,37.3223749 L230.072144,36.9894469 L236.297898,36.123834 Z" id="SmileDesign" fill="#D66E48" fill-rule="nonzero"></path>
            </g>
        </g>
    </g>
</svg>