<?xml version="1.0" encoding="UTF-8"?>
<svg width="237px" height="63px" viewBox="0 0 237 63" version="1.1" xmlns="http://www.w3.org/2000/svg" xmlns:xlink="http://www.w3.org/1999/xlink">
    <!-- Generator: Sketch 57.1 (83088) - https://sketch.com -->
    <title>Group</title>
    <desc>Created with Sketch.</desc>
    <g id="Page-1" stroke="none" stroke-width="1" fill="none" fill-rule="evenodd">
        <g id="Group" transform="translate(-0.000000, 0.000000)" fill-rule="nonzero">
            <path d="M54.236196,1.49517763 C48.2722146,1.49517763 43.4199518,6.33035507 43.4199518,12.2733365 C43.4199518,18.216318 48.2722146,23.0514954 54.236196,23.0514954 C54.5541096,23.0514954 54.8876905,23.0345824 55.2565225,22.9994553 C60.4913262,22.4764521 64.6659826,18.1265488 64.9662707,12.8809049 L64.9662707,11.6293401 C64.7501938,7.87464557 62.526104,4.44390081 59.1615725,2.68949834 C58.8762989,2.5418345 58.5955948,2.41368571 58.3103212,2.29529444 C58.1164396,2.21658377 57.9166828,2.14632961 57.7162732,2.07802695 C57.7162732,2.07802695 57.4721259,1.98955875 57.4114155,1.97069421 C56.3832554,1.655201 55.3139689,1.49517763 54.236196,1.49517763 M54.236196,24.5437458 C52.5735143,24.5437458 50.9591397,24.217194 49.4374627,23.5725471 C44.8397919,21.6568203 41.868246,17.2171477 41.868246,12.262278 C41.868246,5.5042182 47.3857121,0.00552926251 54.1683048,0.00552926251 L54.236196,0.00292725662 C54.3256296,0.00292725662 54.4137576,0.00878176987 54.5018856,0.0146362831 L54.7414633,0.0269958111 C54.8929129,0.0328503243 55.0443625,0.0387048376 55.1938537,0.0510643655 C55.4549737,0.0712299112 55.7141354,0.102453982 55.9719914,0.138882064 L56.0673002,0.153843598 C59.852235,0.719779879 63.1110129,2.982224 64.9662707,6.27961596 L64.9662707,0.470637815 L66.4350708,0.470637815 L66.4350708,0.48169634 L66.5173236,0.48169634 L66.5173236,11.6338936 L66.5297268,11.8166845 C66.5401716,11.9682513 66.5499636,12.1198182 66.5499636,12.2733365 C66.5499636,12.4268549 66.5401716,12.5784217 66.5297268,12.7293381 L66.5173236,12.9257895 L66.5173236,23.9309734 L65.0204531,23.9309734 L65.0204531,23.9199149 L64.9662707,23.6759768 L64.9662707,18.2657561 C62.7976688,22.1102198 58.6902508,24.5437458 54.236196,24.5437458" id="Fill-35" fill="#FEFEFE"></path>
            <path d="M23.1052055,11.5270812 C22.8277654,7.46079653 20.2289684,3.85116386 16.4251024,2.28410582 C15.1332111,1.76045213 13.7675533,1.49504753 12.36795,1.49504753 C6.65529665,1.49504753 1.96427539,5.88137896 1.57716495,11.5270812 L23.1052055,11.5270812 Z M12.36795,24.5436157 C10.705921,24.5436157 9.09219929,24.2170639 7.57052234,23.5730675 C2.97219869,21.6573407 0,17.2176681 0,12.2621479 C0,5.5040881 5.51811894,0.00604966369 12.299406,0.00604966369 L12.36795,0.00279715633 C19.1577235,0.00279715633 24.6817176,5.50734061 24.6817176,12.2732064 L24.6817176,13.0193316 L1.57716495,13.0193316 C1.96427539,18.6650339 6.65529665,23.0513653 12.36795,23.0513653 C12.5696652,23.0513653 12.7700748,23.0448603 12.9691789,23.0338018 C16.1339536,22.8445058 19.0487059,21.2787488 20.9640212,18.7385406 L21.1109013,18.5433901 L21.1468053,18.5700607 L21.3641877,18.6923549 L22.365583,19.4423831 L22.218703,19.6375336 C19.8673171,22.7553871 16.2769168,24.5436157 12.36795,24.5436157 L12.36795,24.5436157 Z" id="Fill-37" fill="#FEFEFE"></path>
            <path d="M75.3454653,23.9352017 L75.3454653,23.9312987 L75.2364477,23.9312987 L75.2364477,0.481371089 L76.733971,0.481371089 L76.733971,0.4859246 L76.8142654,0.4859246 L76.8142654,4.25818264 C78.343776,1.88385226 80.857709,0.333056754 83.7006533,0.0526906192 L83.7678917,0.045535103 C84.0485957,0.0201655456 84.3306053,0.00260200589 84.6178374,0.00260200589 L84.6857286,0 C84.841095,0 84.994503,0.00975752208 85.147911,0.0208160471 L85.3874887,0.0351270795 C88.834273,0.292725662 91.8417229,2.44718654 93.209339,5.58650664 C94.5443151,2.52264471 97.4675538,0.375339349 100.818377,0.0507391148 C101.136943,0.0201655456 101.426133,0.00260200589 101.719893,0.00260200589 L101.787785,0 C106.916182,0 111.087574,4.15670441 111.087574,9.26704397 L111.086922,23.9312987 L109.590051,23.9312987 L109.590051,23.9202401 L109.535869,23.6763021 L109.535869,9.25598544 C109.535869,6.12772387 107.665596,3.313004 104.771081,2.08485722 C103.821257,1.69195433 102.81725,1.49225038 101.787785,1.49225038 C97.4975826,1.49225038 93.9979215,4.97113225 93.9868239,9.24687842 L93.9881295,23.9312987 L92.4906061,23.9312987 L92.4906061,23.9195896 L92.4364237,23.6763021 L92.4344653,9.25663595 C92.4344653,6.12837437 90.5635404,3.3136545 87.6690249,2.08550772 C86.7198536,1.69195433 85.7158471,1.49225038 84.6857286,1.49225038 C80.3837762,1.49225038 76.8834622,4.97958877 76.8834622,9.26704397 L76.8828094,23.9312987 L76.5694654,23.9352017 L75.3454653,23.9352017 Z" id="Fill-39" fill="#FEFEFE"></path>
            <path d="M31.272844,23.9311035 L31.272844,23.920045 L31.2186616,23.6761069 L31.2186616,0.470767915 L32.6874617,0.470767915 L32.6874617,0.48182644 L32.7703674,0.48182644 L32.7703674,4.64243385 C34.1471227,1.97602832 36.3320445,0.362134169 39.0170112,0.059650985 C39.3936768,0.0186693922 39.6685056,0.00305735692 39.9335425,0.00305735692 L40.1783425,0.00305735692 L40.2468865,0.243742902 L40.2468865,1.49205523 L40.0020865,1.49205523 C35.6093948,1.49205523 32.7703674,5.53557238 32.7703674,11.794047 L32.7703674,23.9311035 L31.272844,23.9311035 Z" id="Fill-41" fill="#FEFEFE"></path>
            <path d="M44.536,45.12 C44.536,38.112 49.848,33.92 55.864,33.92 C61.88,33.92 67.192,38.112 67.192,45.12 C67.192,52.16 61.88,56.32 55.864,56.32 C49.848,56.32 44.536,52.16 44.536,45.12 Z M49.688,45.12 C49.688,51.68 51.608,56 55.864,56 C60.12,56 62.04,51.68 62.04,45.12 C62.04,38.592 60.12,34.24 55.864,34.24 C51.608,34.24 49.688,38.592 49.688,45.12 Z M76.024,44.672 L76.088,44.672 C77.048,41.216 78.84,39.68 80.44,39.68 C81.496,39.68 82.616,40.384 82.616,41.76 C82.616,43.648 80.664,44.352 79.32,43.424 C77.336,42.144 76.024,44.544 76.024,46.72 L76.024,54.72 C76.024,55.2 76.216,55.488 76.664,55.52 L79.384,55.68 L79.384,56 L69.464,56 L69.464,55.68 L71.032,55.52 C71.48,55.456 71.672,55.2 71.672,54.72 L71.672,41.472 C71.672,40.992 71.48,40.832 71.032,40.832 L69.464,40.832 L69.464,40.512 L76.024,39.68 L76.184,39.84 C76.088,40.384 76.024,41.536 76.024,42.816 L76.024,44.672 Z M93.208,49.984 L93.208,47.168 L91.288,47.84 C89.528,48.544 88.696,49.792 88.696,51.456 C88.696,53.024 89.336,53.888 90.648,53.888 C92.088,53.888 93.208,52.544 93.208,49.984 Z M97.56,44.768 L97.56,54.72 C97.56,55.2 97.752,55.456 98.2,55.52 L99.768,55.68 L99.768,56 C97.72,56.16 95.896,56.32 94.648,56.32 C94.008,56.32 93.208,56.16 93.208,55.104 L93.208,52.416 L93.144,52.416 C92.28,55.072 90.456,56.32 88.088,56.32 C85.56,56.32 84.056,54.688 84.056,52.512 C84.056,50.144 85.72,48.896 88.632,48.096 L93.208,46.848 L93.208,44.896 C93.208,42.88 91.736,41.888 89.944,41.888 C88.344,41.888 87.032,42.112 85.464,43.072 L85.336,42.912 C86.2,41.664 88.248,39.68 91.704,39.68 C94.616,39.68 97.56,41.28 97.56,44.768 Z M107.416,36.416 L107.416,54.72 C107.416,55.2 107.608,55.456 108.056,55.52 L109.624,55.68 L109.624,56 L100.856,56 L100.856,55.68 L102.424,55.52 C102.872,55.456 103.064,55.2 103.064,54.72 L103.064,35.072 C103.064,34.592 102.872,34.432 102.424,34.432 L100.856,34.432 L100.856,34.112 L107.416,33.28 L107.576,33.44 C107.48,33.984 107.416,35.136 107.416,36.416 Z M125.496,56.32 C122.2,56.32 120.472,55.232 119.128,54.464 L118.488,48.832 L118.808,48.832 C121.688,54.624 123.448,56 125.496,56 C128.216,56 129.656,54.496 129.656,52.224 C129.656,49.504 127.576,48 125.176,47.008 C121.944,45.664 118.904,43.616 118.904,40 C118.904,36.256 122.104,33.92 126.296,33.92 C129.4,33.92 131.256,35.008 132.6,35.776 L132.6,41.088 L132.28,41.088 C129.784,35.456 128.536,34.24 126.296,34.24 C124.792,34.24 123.128,35.2 123.128,37.536 C123.128,39.712 124.504,41.088 128.12,42.624 C131.032,43.84 133.752,46.272 133.752,49.632 C133.752,54.048 129.944,56.32 125.496,56.32 Z M137.496,51.264 L137.496,41.472 C137.496,40.992 137.304,40.832 136.856,40.832 L135.288,40.832 L135.288,40.512 L141.848,39.68 L142.008,39.84 C141.912,40.384 141.848,41.536 141.848,42.816 L141.848,51.328 C141.848,52.832 142.488,53.952 144.216,53.952 C146.392,53.952 147.736,51.648 147.736,49.28 L147.736,41.472 C147.736,40.992 147.544,40.832 147.096,40.832 L144.888,40.832 L144.888,40.512 L152.088,39.68 L152.248,39.84 C152.152,40.384 152.088,41.536 152.088,42.816 L152.088,54.72 C152.088,55.2 152.28,55.456 152.728,55.52 L154.296,55.68 L154.296,56 C152.344,56.16 150.392,56.32 149.176,56.32 C148.536,56.32 147.736,56.16 147.736,55.104 L147.736,51.52 L147.672,51.52 C146.456,55.04 144.408,56.32 142.04,56.32 C139.704,56.32 137.496,54.784 137.496,51.264 Z M161.944,44.672 L162.008,44.672 C162.968,41.216 164.76,39.68 166.36,39.68 C167.416,39.68 168.536,40.384 168.536,41.76 C168.536,43.648 166.584,44.352 165.24,43.424 C163.256,42.144 161.944,44.544 161.944,46.72 L161.944,54.72 C161.944,55.2 162.136,55.488 162.584,55.52 L165.304,55.68 L165.304,56 L155.384,56 L155.384,55.68 L156.952,55.52 C157.4,55.456 157.592,55.2 157.592,54.72 L157.592,41.472 C157.592,40.992 157.4,40.832 156.952,40.832 L155.384,40.832 L155.384,40.512 L161.944,39.68 L162.104,39.84 C162.008,40.384 161.944,41.536 161.944,42.816 L161.944,44.672 Z M179.256,56.992 L173.528,56.736 C173.048,57.184 172.76,57.984 172.76,58.816 C172.76,60.256 173.432,62.08 176.824,62.08 C180.984,62.08 182.392,60.928 182.392,58.944 C182.392,57.44 180.728,57.056 179.256,56.992 Z M175.032,50.72 L175.032,50.656 C171.768,49.76 170.616,47.392 170.616,45.28 C170.616,42.08 173.112,39.68 177.144,39.68 C178.296,39.68 179.384,39.872 180.248,40.256 C180.824,40 182.552,39.168 183.864,39.168 C185.176,39.168 185.656,39.872 185.656,40.512 C185.656,41.44 184.632,41.728 183.896,41.376 C182.552,40.736 181.56,40.384 180.632,40.384 L180.632,40.448 C182.616,41.44 183.672,43.296 183.672,45.28 C183.672,48.48 181.176,50.88 177.144,50.88 C175.416,50.88 174.072,50.944 174.072,52 C174.072,52.864 175.032,53.024 176.056,53.056 L180.152,53.216 C183.608,53.344 185.848,54.464 185.848,57.216 C185.848,60.928 180.984,62.4 176.824,62.4 C173.368,62.4 169.816,61.952 169.816,59.392 C169.816,57.472 171.96,56.832 173.24,56.64 L173.24,56.576 C171.928,56.128 171.16,55.456 171.16,54.016 C171.16,52.384 172.792,51.072 175.032,50.72 Z M177.144,50.56 C179.096,50.56 179.672,48.48 179.672,45.28 C179.672,42.08 179.096,40 177.144,40 C175.192,40 174.616,42.08 174.616,45.28 C174.616,48.48 175.192,50.56 177.144,50.56 Z M195.512,40 C193.24,40 191.992,42.688 191.768,46.368 L198.104,46.368 C198.712,42.208 197.688,40 195.512,40 Z M201.944,46.72 L191.768,46.72 C191.576,51.552 193.72,54.528 197.336,54.528 C199,54.528 200.376,53.952 201.624,52.832 L201.784,52.96 C200.664,54.624 198.424,56.32 195.288,56.32 C190.808,56.32 187.128,53.472 187.128,48.128 C187.128,42.496 191.544,39.68 195.544,39.68 C198.968,39.68 202.84,41.088 201.944,46.72 Z M210.488,44.672 L210.552,44.672 C211.512,41.216 213.304,39.68 214.904,39.68 C215.96,39.68 217.08,40.384 217.08,41.76 C217.08,43.648 215.128,44.352 213.784,43.424 C211.8,42.144 210.488,44.544 210.488,46.72 L210.488,54.72 C210.488,55.2 210.68,55.488 211.128,55.52 L213.848,55.68 L213.848,56 L203.928,56 L203.928,55.68 L205.496,55.52 C205.944,55.456 206.136,55.2 206.136,54.72 L206.136,41.472 C206.136,40.992 205.944,40.832 205.496,40.832 L203.928,40.832 L203.928,40.512 L210.488,39.68 L210.648,39.84 C210.552,40.384 210.488,41.536 210.488,42.816 L210.488,44.672 Z M227,58.848 L219.64,41.408 C219.416,40.928 219.16,40.576 218.712,40.48 L217.816,40.32 L217.816,40 L226.712,40 L226.712,40.32 L225.176,40.48 C224.376,40.576 224.44,41.216 224.632,41.664 L229.176,52.704 L229.24,52.704 L232.6,42.432 C232.824,41.824 232.472,41.248 231.736,40.992 L229.848,40.32 L229.848,40 L236.44,40 L236.44,40.32 L234.488,40.992 C233.816,41.216 233.176,41.92 232.952,42.56 L228.696,55.52 C227.384,59.456 226.52,62.4 222.584,62.4 C221.144,62.4 219.736,61.952 219.736,60.672 C219.736,59.264 221.4,59.008 222.36,60.288 C222.872,60.832 223.576,61.536 224.44,61.536 C225.432,61.536 226.296,60.704 227,58.848 Z" id="OralSurgery" fill="#D66E48"></path>
        </g>
    </g>
</svg>