<?xml version="1.0" encoding="UTF-8"?>
<svg width="238px" height="54px" viewBox="0 0 238 54" version="1.1" xmlns="http://www.w3.org/2000/svg" xmlns:xlink="http://www.w3.org/1999/xlink">
    <!-- Generator: Sketch 57.1 (83088) - https://sketch.com -->
    <title>eramKids Copy</title>
    <desc>Created with Sketch.</desc>
    <g id="Welcome" stroke="none" stroke-width="1" fill="none" fill-rule="evenodd">
        <g id="Desktop-HD" transform="translate(-767.000000, -2173.000000)">
            <g id="eramKids-Copy" transform="translate(767.000000, 2173.000000)">
                <g id="Group-4-Copy" fill="#FEFEFE">
                    <path d="M54.236196,1.49517763 C48.2722146,1.49517763 43.4199518,6.33035507 43.4199518,12.2733365 C43.4199518,18.216318 48.2722146,23.0514954 54.236196,23.0514954 C54.5541096,23.0514954 54.8876905,23.0345824 55.2565225,22.9994553 C60.4913262,22.4764521 64.6659826,18.1265488 64.9662707,12.8809049 L64.9662707,11.6293401 C64.7501938,7.87464557 62.526104,4.44390081 59.1615725,2.68949834 C58.8762989,2.5418345 58.5955948,2.41368571 58.3103212,2.29529444 C58.1164396,2.21658377 57.9166828,2.14632961 57.7162732,2.07802695 C57.7162732,2.07802695 57.4721259,1.98955875 57.4114155,1.97069421 C56.3832554,1.655201 55.3139689,1.49517763 54.236196,1.49517763 M54.236196,24.5437458 C52.5735143,24.5437458 50.9591397,24.217194 49.4374627,23.5725471 C44.8397919,21.6568203 41.868246,17.2171477 41.868246,12.262278 C41.868246,5.5042182 47.3857121,0.00552926251 54.1683048,0.00552926251 L54.236196,0.00292725662 C54.3256296,0.00292725662 54.4137576,0.00878176987 54.5018856,0.0146362831 L54.7414633,0.0269958111 C54.8929129,0.0328503243 55.0443625,0.0387048376 55.1938537,0.0510643655 C55.4549737,0.0712299112 55.7141354,0.102453982 55.9719914,0.138882064 L56.0673002,0.153843598 C59.852235,0.719779879 63.1110129,2.982224 64.9662707,6.27961596 L64.9662707,0.470637815 L66.4350708,0.470637815 L66.4350708,0.48169634 L66.5173236,0.48169634 L66.5173236,11.6338936 L66.5297268,11.8166845 C66.5401716,11.9682513 66.5499636,12.1198182 66.5499636,12.2733365 C66.5499636,12.4268549 66.5401716,12.5784217 66.5297268,12.7293381 L66.5173236,12.9257895 L66.5173236,23.9309734 L65.0204531,23.9309734 L65.0204531,23.9199149 L64.9662707,23.6759768 L64.9662707,18.2657561 C62.7976688,22.1102198 58.6902508,24.5437458 54.236196,24.5437458" id="Fill-35"></path>
                    <path d="M23.1052055,11.5270812 C22.8277654,7.46079653 20.2289684,3.85116386 16.4251024,2.28410582 C15.1332111,1.76045213 13.7675533,1.49504753 12.36795,1.49504753 C6.65529665,1.49504753 1.96427539,5.88137896 1.57716495,11.5270812 L23.1052055,11.5270812 Z M12.36795,24.5436157 C10.705921,24.5436157 9.09219929,24.2170639 7.57052234,23.5730675 C2.97219869,21.6573407 -1.27897692e-13,17.2176681 -1.27897692e-13,12.2621479 C-1.27897692e-13,5.5040881 5.51811894,0.00604966369 12.299406,0.00604966369 L12.36795,0.00279715633 C19.1577235,0.00279715633 24.6817176,5.50734061 24.6817176,12.2732064 L24.6817176,13.0193316 L1.57716495,13.0193316 C1.96427539,18.6650339 6.65529665,23.0513653 12.36795,23.0513653 C12.5696652,23.0513653 12.7700748,23.0448603 12.9691789,23.0338018 C16.1339536,22.8445058 19.0487059,21.2787488 20.9640212,18.7385406 L21.1109013,18.5433901 L21.1468053,18.5700607 L21.3641877,18.6923549 L22.365583,19.4423831 L22.218703,19.6375336 C19.8673171,22.7553871 16.2769168,24.5436157 12.36795,24.5436157 L12.36795,24.5436157 Z" id="Fill-37"></path>
                    <path d="M75.3454653,23.9352017 L75.3454653,23.9312987 L75.2364477,23.9312987 L75.2364477,0.481371089 L76.733971,0.481371089 L76.733971,0.4859246 L76.8142654,0.4859246 L76.8142654,4.25818264 C78.343776,1.88385226 80.857709,0.333056754 83.7006533,0.0526906192 L83.7678917,0.045535103 C84.0485957,0.0201655456 84.3306053,0.00260200589 84.6178374,0.00260200589 L84.6857286,2.48689958e-14 C84.841095,2.48689958e-14 84.994503,0.00975752208 85.147911,0.0208160471 L85.3874887,0.0351270795 C88.834273,0.292725662 91.8417229,2.44718654 93.209339,5.58650664 C94.5443151,2.52264471 97.4675538,0.375339349 100.818377,0.0507391148 C101.136943,0.0201655456 101.426133,0.00260200589 101.719893,0.00260200589 L101.787785,2.48689958e-14 C106.916182,2.48689958e-14 111.087574,4.15670441 111.087574,9.26704397 L111.086922,23.9312987 L109.590051,23.9312987 L109.590051,23.9202401 L109.535869,23.6763021 L109.535869,9.25598544 C109.535869,6.12772387 107.665596,3.313004 104.771081,2.08485722 C103.821257,1.69195433 102.81725,1.49225038 101.787785,1.49225038 C97.4975826,1.49225038 93.9979215,4.97113225 93.9868239,9.24687842 L93.9881295,23.9312987 L92.4906061,23.9312987 L92.4906061,23.9195896 L92.4364237,23.6763021 L92.4344653,9.25663595 C92.4344653,6.12837437 90.5635404,3.3136545 87.6690249,2.08550772 C86.7198536,1.69195433 85.7158471,1.49225038 84.6857286,1.49225038 C80.3837762,1.49225038 76.8834622,4.97958877 76.8834622,9.26704397 L76.8828094,23.9312987 L76.5694654,23.9352017 L75.3454653,23.9352017 Z" id="Fill-39"></path>
                    <path d="M31.272844,23.9311035 L31.272844,23.920045 L31.2186616,23.6761069 L31.2186616,0.470767915 L32.6874617,0.470767915 L32.6874617,0.48182644 L32.7703674,0.48182644 L32.7703674,4.64243385 C34.1471227,1.97602832 36.3320445,0.362134169 39.0170112,0.059650985 C39.3936768,0.0186693922 39.6685056,0.00305735692 39.9335425,0.00305735692 L40.1783425,0.00305735692 L40.2468865,0.243742902 L40.2468865,1.49205523 L40.0020865,1.49205523 C35.6093948,1.49205523 32.7703674,5.53557238 32.7703674,11.794047 L32.7703674,23.9311035 L31.272844,23.9311035 Z" id="Fill-41"></path>
                </g>
                <path d="M54.5446695,41.8310313 C54.5446695,34.5399074 59.5052972,30.1785501 65.0651953,30.1785501 C70.6583862,30.1785501 75.6855995,34.5399074 75.6855995,41.8310313 C75.6855995,49.155448 70.6583862,53.4835124 65.0651953,53.4835124 C59.5052972,53.4835124 54.5446695,49.155448 54.5446695,41.8310313 Z M59.705054,41.8310313 C59.705054,48.6560559 61.1699373,53.1505844 65.0651953,53.1505844 C68.9604533,53.1505844 70.525215,48.6560559 70.525215,41.8310313 C70.525215,35.0392994 68.9604533,30.5114782 65.0651953,30.5114782 C61.1699373,30.5114782 59.705054,35.0392994 59.705054,41.8310313 Z M83.9755075,41.198468 L84.0420932,41.198468 C84.9409988,37.6028453 86.605639,36.1712547 88.0705223,36.1712547 C89.0693064,36.1712547 90.2012618,36.9036964 90.2012618,38.3352869 C90.2012618,40.2995623 88.2036936,41.0652968 86.8719814,40.0665127 C85.1074629,38.7680934 83.9755075,41.2317608 83.9755075,43.4956714 L83.9755075,51.8188723 C83.9755075,52.3182643 84.1419716,52.6178995 84.574778,52.6511923 L87.0051526,52.8176564 L87.0051526,53.1505844 L77.7497533,53.1505844 L77.7497533,52.8176564 L79.0814655,52.6511923 C79.4809791,52.5846067 79.6474431,52.3182643 79.6474431,51.8188723 L79.6474431,38.0356517 C79.6474431,37.5362597 79.4809791,37.3697956 79.0814655,37.3697956 L77.7497533,37.3697956 L77.7497533,37.0368676 L83.9755075,36.1712547 L84.1086788,36.3377187 C84.0420932,36.9036964 83.9755075,38.1022373 83.9755075,39.4339494 L83.9755075,41.198468 Z M90.833825,36.6706468 L92.4984652,36.47089 C93.2309069,36.4043043 93.6637133,36.0713763 94.1631053,35.5053987 L96.759944,32.5090464 L96.9929936,32.5090464 L96.9929936,36.5041828 L100.455445,36.5041828 L100.455445,36.9036964 L96.9929936,36.9036964 L96.9929936,50.0876465 C96.9929936,52.2849715 97.8586065,52.5513139 98.790805,52.5513139 C99.3900755,52.5513139 99.9227603,52.3515571 100.621909,52.0186291 L100.688495,52.3182643 C99.5232467,52.9841204 97.9917777,53.4835124 96.2605519,53.4835124 C93.9633485,53.4835124 92.6649292,52.6844851 92.6649292,49.9544753 L92.6649292,36.9036964 L90.833825,36.9036964 L90.833825,36.6706468 Z M108.046204,29.5126941 L108.179376,29.6791581 C108.11279,30.2451357 108.046204,31.4436767 108.046204,32.7753888 L108.046204,40.9987112 L108.11279,40.9987112 C109.244745,37.3365028 111.142435,36.1712547 113.306467,36.1712547 C115.503792,36.1712547 117.50136,37.7693093 117.50136,41.4315176 L117.50136,51.8188723 C117.50136,52.3182643 117.701117,52.5846067 118.100631,52.6511923 L119.498929,52.8176564 L119.498929,53.1505844 L111.874877,53.1505844 L111.874877,52.8176564 L112.74049,52.6511923 C113.173296,52.5513139 113.206589,52.3182643 113.206589,51.8188723 L113.206589,41.364932 C113.206589,39.8001703 112.640611,38.6349222 111.142435,38.6349222 C109.311331,38.6349222 108.046204,41.032004 108.046204,43.4956714 L108.046204,51.8188723 C108.046204,52.3182643 108.212668,52.5846067 108.645475,52.6511923 L109.977187,52.8176564 L109.977187,53.1505844 L101.82045,53.1505844 L101.82045,52.8176564 L103.152162,52.6511923 C103.551676,52.5846067 103.71814,52.3182643 103.71814,51.8188723 L103.71814,31.3770911 C103.71814,30.877699 103.551676,30.711235 103.152162,30.711235 L101.82045,30.711235 L101.82045,30.378307 L108.046204,29.5126941 Z M128.321521,36.5041828 C126.224075,36.5041828 125.258584,39.7002919 125.258584,44.8273836 C125.258584,49.9544753 126.224075,53.1505844 128.321521,53.1505844 C130.418968,53.1505844 131.284581,49.9544753 131.284581,44.8273836 C131.284581,39.7002919 130.418968,36.5041828 128.321521,36.5041828 Z M128.321521,53.4835124 C123.960164,53.4835124 120.69747,49.8878897 120.69747,44.8273836 C120.69747,39.7668775 123.960164,36.1712547 128.321521,36.1712547 C132.649586,36.1712547 135.845695,39.7668775 135.845695,44.8273836 C135.845695,49.8878897 132.649586,53.4835124 128.321521,53.4835124 Z M152.458804,32.7753888 L152.458804,51.8188723 C152.458804,52.3182643 152.658561,52.5846067 153.058074,52.6511923 L154.456372,52.8176564 L154.456372,53.1505844 C152.658561,53.3170484 150.694285,53.4835124 149.56233,53.4835124 C148.963059,53.4835124 148.164032,53.3170484 148.164032,52.2183859 L148.164032,49.321912 L148.097447,49.321912 C147.365005,52.4181427 145.40073,53.4835124 143.702797,53.4835124 C139.974003,53.4835124 137.710092,50.1542321 137.710092,44.8273836 C137.710092,39.8334631 140.440102,36.1712547 144.268774,36.1712547 C145.500608,36.1712547 146.732442,36.6040612 148.097447,37.7693093 L148.164032,37.7693093 L148.164032,31.3770911 C148.164032,30.877699 147.997568,30.711235 147.564762,30.711235 L146.23305,30.711235 L146.23305,30.378307 L152.458804,29.5126941 L152.625268,29.6791581 C152.525389,30.2451357 152.458804,31.4436767 152.458804,32.7753888 Z M148.164032,46.6251949 L148.164032,38.1688229 C147.631347,37.8358949 146.699149,37.6028453 145.866829,37.6028453 C143.969139,37.6028453 142.271206,39.334071 142.271206,44.8273836 C142.271206,49.8545969 143.636211,51.3860658 145.40073,51.3860658 C146.532685,51.3860658 148.164032,50.1875249 148.164032,46.6251949 Z M163.278965,36.5041828 C161.181518,36.5041828 160.216027,39.7002919 160.216027,44.8273836 C160.216027,49.9544753 161.181518,53.1505844 163.278965,53.1505844 C165.376411,53.1505844 166.242024,49.9544753 166.242024,44.8273836 C166.242024,39.7002919 165.376411,36.5041828 163.278965,36.5041828 Z M163.278965,53.4835124 C158.917608,53.4835124 155.654913,49.8878897 155.654913,44.8273836 C155.654913,39.7668775 158.917608,36.1712547 163.278965,36.1712547 C167.607029,36.1712547 170.803138,39.7668775 170.803138,44.8273836 C170.803138,49.8878897 167.607029,53.4835124 163.278965,53.4835124 Z M178.626947,36.1712547 L178.760118,36.3377187 C178.693533,36.9036964 178.626947,38.1022373 178.626947,39.4339494 L178.626947,40.9987112 L178.693533,40.9987112 C179.825488,37.3365028 181.723178,36.1712547 183.88721,36.1712547 C186.084535,36.1712547 188.082103,37.7693093 188.082103,41.4315176 L188.082103,51.8188723 C188.082103,52.3182643 188.28186,52.5846067 188.681374,52.6511923 L190.079672,52.8176564 L190.079672,53.1505844 L182.45562,53.1505844 L182.45562,52.8176564 L183.321232,52.6511923 C183.754039,52.5513139 183.787332,52.3182643 183.787332,51.8188723 L183.787332,41.364932 C183.787332,39.8001703 183.221354,38.6349222 181.723178,38.6349222 C179.892074,38.6349222 178.626947,41.032004 178.626947,43.4956714 L178.626947,51.8188723 C178.626947,52.3182643 178.793411,52.5846067 179.226218,52.6511923 L180.524637,52.8176564 L180.524637,53.1505844 L172.401193,53.1505844 L172.401193,52.8176564 L173.732905,52.6511923 C174.132419,52.5846067 174.298883,52.3182643 174.298883,51.8188723 L174.298883,38.0356517 C174.298883,37.5362597 174.132419,37.3697956 173.732905,37.3697956 L172.401193,37.3697956 L172.401193,37.0368676 L178.626947,36.1712547 Z M190.712235,36.6706468 L192.376875,36.47089 C193.109317,36.4043043 193.542123,36.0713763 194.041515,35.5053987 L196.638354,32.5090464 L196.871403,32.5090464 L196.871403,36.5041828 L200.333855,36.5041828 L200.333855,36.9036964 L196.871403,36.9036964 L196.871403,50.0876465 C196.871403,52.2849715 197.737016,52.5513139 198.669215,52.5513139 C199.268485,52.5513139 199.80117,52.3515571 200.500319,52.0186291 L200.566905,52.3182643 C199.401656,52.9841204 197.870187,53.4835124 196.138962,53.4835124 C193.841758,53.4835124 192.543339,52.6844851 192.543339,49.9544753 L192.543339,36.9036964 L190.712235,36.9036964 L190.712235,36.6706468 Z M203.296914,31.8098975 C203.296914,30.3450142 204.395577,29.4794013 205.760582,29.4794013 C207.15888,29.4794013 208.257542,30.3450142 208.257542,31.8098975 C208.257542,33.2747808 207.15888,34.1736865 205.760582,34.1736865 C204.395577,34.1736865 203.296914,33.2747808 203.296914,31.8098975 Z M207.924614,39.4339494 L207.924614,51.8188723 C207.924614,52.3182643 208.091078,52.5846067 208.523885,52.6511923 L209.822304,52.8176564 L209.822304,53.1505844 L201.69886,53.1505844 L201.69886,52.8176564 L203.030572,52.6511923 C203.430086,52.5846067 203.59655,52.3182643 203.59655,51.8188723 L203.59655,38.0356517 C203.59655,37.5362597 203.430086,37.3697956 203.030572,37.3697956 L201.69886,37.3697956 L201.69886,37.0368676 L207.924614,36.1712547 L208.057785,36.3377187 C207.9912,36.9036964 207.924614,38.1022373 207.924614,39.4339494 Z M218.711482,53.4835124 C214.616467,53.4835124 211.054138,50.5204529 211.054138,44.9605548 C211.054138,39.3007782 215.149152,36.1712547 219.244167,36.1712547 C222.806497,36.1712547 224.770772,37.5029669 224.770772,38.9345574 C224.770772,40.4327335 223.239304,40.86554 222.506862,39.9333415 C221.275028,38.5350438 221.408199,36.5041828 219.244167,36.5041828 C216.713914,36.5041828 215.615252,39.6669991 215.615252,43.8951851 C215.615252,48.5894703 217.37977,51.6191154 220.742343,51.6191154 C222.207227,51.6191154 223.472353,50.9865522 224.670894,49.8545969 L224.770772,49.9877681 C223.738696,51.7189938 221.607956,53.4835124 218.711482,53.4835124 Z M231.828847,53.4835124 C230.397256,53.4835124 229.032251,53.2837556 226.901512,52.7510707 L226.568584,48.2565423 L226.868219,48.2565423 C228.033467,51.019845 229.298594,53.1505844 231.529212,53.1505844 C232.994095,53.1505844 234.026172,52.0519219 234.026172,50.2541105 C234.026172,48.4562991 232.960802,47.3909294 230.663599,46.2922669 C227.966882,44.9938476 226.601877,43.6621355 226.601877,40.9987112 C226.601877,38.3352869 228.499566,36.1712547 232.22836,36.1712547 C233.52678,36.1712547 234.458978,36.3710115 236.722889,36.9036964 L236.85606,41.3982248 L236.556425,41.3982248 C235.391177,38.4684581 234.625442,36.5041828 232.527996,36.5041828 C231.029819,36.5041828 230.264085,37.7027237 230.264085,39.1010214 C230.264085,41.0985896 231.62909,41.8310313 232.794338,42.3970089 C236.190204,44.0616491 237.821551,45.2934828 237.821551,48.2565423 C237.821551,51.4193586 235.19142,53.4835124 231.828847,53.4835124 Z" id="Orthodontics" fill="#D66E48" fill-rule="nonzero"></path>
            </g>
        </g>
    </g>
</svg>