<?xml version="1.0" encoding="UTF-8"?>
<svg width="389px" height="337px" viewBox="0 0 389 337" version="1.1" xmlns="http://www.w3.org/2000/svg" xmlns:xlink="http://www.w3.org/1999/xlink">
    <!-- Generator: Sketch 57.1 (83088) - https://sketch.com -->
    <title>first-aid-kit</title>
    <desc>Created with Sketch.</desc>
    <g id="Page-1" stroke="none" stroke-width="1" fill="none" fill-rule="evenodd">
        <g id="first-aid-kit" fill="#FFFFFF" fill-rule="nonzero">
            <path d="M145.215375,0.199082666 L145.6,0.215999728 L243.2,0.215999728 C243.854,0.183891 244.509,0.175999728 245.164,0.196999728 C257.8855,0.607849728 267.893103,11.1519536 267.689309,23.8311367 L267.68,24.2159997 L267.68,52.3759997 L333.6,52.3759997 C358.8648,52.3759997 388.206816,66.5678477 388.79113,106.36226 L388.8,107.576 L388.8,281.416 C388.8,321.7288 359.632224,336.323776 334.364462,336.611644 L333.6,336.616 L55.2,336.616 C30.0144,336.616 0.594768,322.424152 0.00889392,282.62974 L0,281.416 L0,107.416 C0,67.1031997 29.167776,52.5082237 54.4355381,52.2203555 L55.2,52.2159997 L121.12,52.2159997 L121.12,24.2159997 C121.098,23.5609997 121.105,22.9059997 121.139,22.2519997 C121.8023,9.54138973 132.542008,-0.255382972 145.215375,0.199082666 Z M218,112.216 L170.88,112.216 C164.297,112.216 158.96,117.553 158.96,124.136 L158.96,156.776 L126.4,156.776 C119.817,156.732 114.444,162.032 114.4,168.615 L114.4,215.736 C114.4,222.319 119.737,227.656 126.32,227.656 L158.96,227.656 L158.96,260.216 C158.916,266.799 164.217,272.172 170.8,272.216 L217.84,272.216 C224.321723,272.216 229.59549,267.041952 229.756225,260.598931 L229.76,260.296 L229.76,227.656 L262.4,227.656 C268.983,227.7 274.356,222.399 274.4,215.816 L274.4,168.776 C274.4,162.193 269.064,156.856 262.48,156.856 L229.84,156.856 L229.84,124.216 C229.884,117.633 224.583,112.26 218,112.216 Z M243.2,15.6559997 L145.68,15.6559997 C137.476667,15.6559997 137.134861,21.386833 137.120619,23.906318 L137.12,52.2159997 L251.76,52.2159997 L251.76,24.2159997 C251.76,21.8159997 251.76,15.6559997 243.2,15.6559997 L243.2,15.6559997 Z" id="Shape"></path>
        </g>
    </g>
</svg>