<?xml version="1.0" encoding="UTF-8"?>
<svg width="134px" height="105px" viewBox="0 0 134 105" version="1.1" xmlns="http://www.w3.org/2000/svg" xmlns:xlink="http://www.w3.org/1999/xlink">
    <!-- Generator: Sketch 57.1 (83088) - https://sketch.com -->
    <title>logo_black</title>
    <desc>Created with Sketch.</desc>
    <g id="Page-1" stroke="none" stroke-width="1" fill="none" fill-rule="evenodd">
        <g id="logo_black" fill-rule="nonzero">
            <path d="M17.1,63.6 C19.6,63.6 20.6,61.5 20.6,59.5 C20.6,57.2 19.5,55.4 17,55.4 L15.6,55.4 L15.6,63.6 C15.6,63.6 17.1,63.6 17.1,63.6 Z M13,64 L13,63.7 L14,63.6 C14.2,63.6 14.3,63.5 14.3,63.3 L14.3,55.8 C14.3,55.6 14.2,55.5 14,55.5 L13,55.4 L13,55 L17.2,55 C20.1,55 22,56.7 22,59.5 C22,62.1 20.1,64 17.2,64 L13,64 Z" id="Fill-1" fill="#333333"></path>
            <path d="M26.3,59.7 L29.9,59.7 C30.1,58.2 29.5,57.4 28.4,57.4 C27.2,57.4 26.4,58.4 26.3,59.7 L26.3,59.7 Z M26.3,60.1 C26.2,62.1 27.2,63.3 28.8,63.3 C29.6,63.3 30.2,62.9 30.7,62.5 L30.9,62.8 C30.4,63.4 29.6,64 28.3,64 C26.3,64 25,62.5 25,60.5 C25,58.3 26.7,57 28.4,57 C29.8,57 31.3,57.8 31,60.1 L26.3,60.1 L26.3,60.1 Z" id="Fill-3" fill="#333333"></path>
            <path d="M36.5,57.1 C36.4,57.4 36.4,57.8 36.4,58.3 L36.4,59 L36.4,59 C37,57.6 37.9,57 38.9,57 C39.9,57 40.8,57.6 40.8,59.1 L40.8,63.2 C40.8,63.4 40.9,63.5 41.1,63.5 L42,63.6 L42,64 L38.7,64 L38.7,63.6 L39.4,63.5 C39.6,63.5 39.6,63.4 39.6,63.2 L39.6,59.2 C39.6,58.4 39.3,57.8 38.3,57.8 C37,57.8 36.4,59.2 36.4,60.4 L36.4,63.2 C36.4,63.4 36.5,63.5 36.7,63.5 L37.6,63.6 L37.6,64 L34,64 L34,63.6 L34.9,63.5 C35.1,63.5 35.2,63.4 35.2,63.2 L35.2,57.9 C35.2,57.7 35.1,57.6 34.9,57.6 L34,57.6 L34,57.2 L36.4,56.9 L36.5,57.1 Z" id="Fill-5" fill="#333333"></path>
            <path d="M44.8,57.5 C45,57.5 45.2,57.3 45.3,57.1 L45.9,55.9 L46.2,55.9 L46.2,57.4 L48,57.4 L48,57.8 L46.2,57.8 L46.2,62.4 C46.2,63.1 46.5,63.3 47.1,63.3 C47.3,63.3 47.7,63.2 48,63.1 L48.1,63.4 C47.7,63.6 47.1,63.8 46.5,63.8 C45.7,63.8 45.1,63.6 45.1,62.6 L45.1,57.8 L44.1,57.8 L44.1,57.5 L44.8,57.5 L44.8,57.5 Z" id="Fill-7" fill="#333333"></path>
            <path d="M54.8,60.3 L53.4,60.7 C52.4,61 52.2,61.5 52.2,62.1 C52.2,62.8 52.6,63.2 53.3,63.2 C54.2,63.2 54.8,62.4 54.8,61.2 C54.8,61.2 54.8,60.3 54.8,60.3 Z M55.9,63.1 C55.9,63.3 56,63.4 56.2,63.4 L57,63.5 L57,63.8 C56.3,63.9 55.8,63.9 55.4,63.9 C55,63.9 54.8,63.8 54.8,63.4 L54.8,62.4 L54.8,62.4 C54.4,63.4 53.6,63.9 52.8,63.9 C51.7,63.9 51.1,63.2 51.1,62.3 C51.1,61.3 51.7,60.7 53.1,60.3 L54.9,59.8 L54.9,59 C54.9,58.3 54.5,57.7 53.6,57.7 C52.9,57.7 52.3,58 51.8,58.3 L51.6,58.1 C51.9,57.7 52.7,57 54,57 C55.2,57 56.1,57.7 56.1,58.8 L56.1,63.1 L55.9,63.1 L55.9,63.1 Z" id="Fill-9" fill="#333333"></path>
            <path d="M61.7,63.2 C61.7,63.4 61.8,63.5 62,63.6 L63,63.7 L63,64 L59,64 L59,63.6 L60,63.5 C60.2,63.5 60.3,63.4 60.3,63.1 L60.3,55 C60.3,54.8 60.2,54.7 60,54.7 L59,54.7 L59,54.3 L61.7,54 L61.8,54.1 C61.7,54.4 61.7,54.8 61.7,55.3 L61.7,63.2 Z" id="Fill-11" fill="#333333"></path>
            <path d="M72.6,63.2 C72.6,63.4 72.7,63.5 72.9,63.5 L73.9,63.6 L73.9,64 L70,64 L70,63.7 L71,63.6 C71.2,63.6 71.3,63.5 71.3,63.3 L71.3,55.8 C71.3,55.6 71.2,55.5 71,55.5 L70,55.4 L70,55 L73.9,55 L73.9,55.3 L72.9,55.4 C72.7,55.4 72.6,55.5 72.6,55.7 L72.6,59.2 L77.3,59.2 L77.3,55.7 C77.3,55.5 77.2,55.4 77,55.4 L76,55.3 L76,55 L80,55 L80,55.3 L79,55.4 C78.8,55.4 78.7,55.5 78.7,55.7 L78.7,63.2 C78.7,63.4 78.8,63.5 79,63.5 L80,63.6 L80,64 L76.1,64 L76.1,63.7 L77.1,63.6 C77.3,63.6 77.4,63.5 77.4,63.3 L77.4,59.7 L72.7,59.7 L72.7,63.2 L72.6,63.2 Z" id="Fill-13" fill="#333333"></path>
            <path d="M84.3,59.7 L87.9,59.7 C88.1,58.2 87.5,57.4 86.4,57.4 C85.2,57.4 84.4,58.4 84.3,59.7 L84.3,59.7 Z M84.3,60.1 C84.2,62.1 85.2,63.3 86.8,63.3 C87.6,63.3 88.2,62.9 88.7,62.5 L88.9,62.8 C88.4,63.4 87.6,64 86.3,64 C84.3,64 83,62.5 83,60.5 C83,58.3 84.7,57 86.4,57 C87.8,57 89.3,57.8 89,60.1 L84.3,60.1 L84.3,60.1 Z" id="Fill-15" fill="#333333"></path>
            <path d="M95.8,60.3 L94.4,60.7 C93.4,61 93.2,61.5 93.2,62.1 C93.2,62.8 93.6,63.2 94.3,63.2 C95.2,63.2 95.8,62.4 95.8,61.2 L95.8,60.3 L95.8,60.3 Z M96.9,63.1 C96.9,63.3 97,63.4 97.2,63.4 L98,63.5 L98,63.8 C97.3,63.9 96.8,63.9 96.4,63.9 C96,63.9 95.8,63.8 95.8,63.4 L95.8,62.4 L95.8,62.4 C95.4,63.4 94.6,63.9 93.8,63.9 C92.7,63.9 92.1,63.2 92.1,62.3 C92.1,61.3 92.7,60.7 94.1,60.3 L95.9,59.8 L95.9,59 C95.9,58.3 95.5,57.7 94.6,57.7 C93.9,57.7 93.3,58 92.8,58.3 L92.6,58.1 C92.9,57.7 93.7,57 95,57 C96.2,57 97.1,57.7 97.1,58.8 L97.1,63.1 L96.9,63.1 L96.9,63.1 Z" id="Fill-17" fill="#333333"></path>
            <path d="M102.7,63.2 C102.7,63.4 102.8,63.5 103,63.6 L104,63.7 L104,64 L100,64 L100,63.6 L101,63.5 C101.2,63.5 101.3,63.4 101.3,63.1 L101.3,55 C101.3,54.8 101.2,54.7 101,54.7 L100,54.7 L100,54.3 L102.7,54 L102.8,54.1 C102.7,54.4 102.7,54.8 102.7,55.3 L102.7,63.2 Z" id="Fill-19" fill="#333333"></path>
            <path d="M106.8,57.5 C107,57.5 107.2,57.3 107.3,57.1 L107.9,55.9 L108.2,55.9 L108.2,57.4 L110,57.4 L110,57.8 L108.2,57.8 L108.2,62.4 C108.2,63.1 108.5,63.3 109.1,63.3 C109.3,63.3 109.7,63.2 110,63.1 L110.1,63.4 C109.7,63.6 109.1,63.8 108.5,63.8 C107.7,63.8 107.1,63.6 107.1,62.6 L107.1,57.8 L106.1,57.8 L106.1,57.5 L106.8,57.5 L106.8,57.5 Z" id="Fill-21" fill="#333333"></path>
            <path d="M115.5,54.1 C115.4,54.4 115.4,54.8 115.4,55.3 L115.4,58.8 L115.4,58.8 C116,57.3 116.9,56.8 117.9,56.8 C118.9,56.8 119.8,57.4 119.8,59 L119.8,63.2 C119.8,63.4 119.9,63.5 120.1,63.6 L121,63.7 L121,64 L117.7,64 L117.7,63.6 L118.4,63.5 C118.6,63.5 118.6,63.4 118.6,63.1 L118.6,59 C118.6,58.2 118.3,57.5 117.3,57.5 C116,57.5 115.4,59 115.4,60.1 L115.4,63 C115.4,63.2 115.5,63.3 115.7,63.4 L116.6,63.5 L116.6,64 L113,64 L113,63.6 L113.9,63.5 C114.1,63.5 114.2,63.4 114.2,63.1 L114.2,55 C114.2,54.8 114.1,54.7 113.9,54.7 L113,54.7 L113,54.3 L115.5,54.1 L115.5,54.1 Z" id="Fill-23" fill="#333333"></path>
            <polygon id="Fill-25" fill="#333333" points="1 78 35 78 35 77 1 77"></polygon>
            <polygon id="Fill-27" fill="#333333" points="98 78 133 78 133 77 98 77"></polygon>
            <path d="M53,79.2 C52.5,81.3 51,82 49.5,82 C46.8,82 45,80.1 45,77.5 C45,74.9 47,73 49.6,73 C51,73 52.1,73.4 52.7,73.7 L52.7,75.7 L52.3,75.7 C51.9,73.8 50.9,73.4 49.6,73.4 C47.7,73.4 46.4,74.9 46.4,77.5 C46.4,80.2 47.8,81.6 49.6,81.6 C50.9,81.6 52.1,81 52.6,79.2 L53,79.2 Z" id="Fill-28" fill="#333333"></path>
            <path d="M57,81.3 C57,81.5 57.1,81.6 57.2,81.6 L58,81.7 L58,82 L55,82 L55,81.7 L55.8,81.6 C56,81.6 56,81.5 56,81.3 L56,73.9 C56,73.7 55.9,73.6 55.8,73.6 L55,73.6 L55,73.3 L57,73 L57.1,73.1 C57,73.4 57,73.7 57,74.2 L57,81.3 Z" id="Fill-29" fill="#333333"></path>
            <path d="M62.5,73 C62.9,73 63.1,73.3 63.1,73.7 C63.1,74.1 62.8,74.4 62.5,74.4 C62.2,74.4 61.9,74.1 61.9,73.7 C61.9,73.3 62.1,73 62.5,73 L62.5,73 Z M63,81.3 C63,81.5 63.1,81.6 63.2,81.6 L64,81.7 L64,82 L61,82 L61,81.7 L61.8,81.6 C62,81.6 62,81.5 62,81.3 L62,76.3 C62,76.1 61.9,76 61.8,76 L61,76 L61,75.7 L63,75.4 L63.1,75.5 C63,75.7 63,76.1 63,76.6 L63,81.3 Z" id="Fill-30" fill="#333333"></path>
            <path d="M69.5,75.2 C69.4,75.5 69.4,75.9 69.4,76.4 L69.4,77.1 L69.4,77.1 C70,75.7 70.9,75.1 71.9,75.1 C72.9,75.1 73.8,75.7 73.8,77.2 L73.8,81.3 C73.8,81.5 73.9,81.6 74.1,81.6 L75,81.7 L75,82.1 L71.7,82.1 L71.7,81.7 L72.4,81.6 C72.6,81.6 72.6,81.5 72.6,81.3 L72.6,77.3 C72.6,76.5 72.3,75.9 71.3,75.9 C70,75.9 69.4,77.3 69.4,78.5 L69.4,81.3 C69.4,81.5 69.5,81.6 69.7,81.6 L70.6,81.7 L70.6,82.1 L67,82.1 L67,81.7 L67.9,81.6 C68.1,81.6 68.2,81.5 68.2,81.3 L68.2,76 C68.2,75.8 68.1,75.7 67.9,75.7 L67,75.7 L67,75.3 L69.4,75 L69.5,75.2 Z" id="Fill-31" fill="#333333"></path>
            <path d="M78.5,73 C78.9,73 79.1,73.3 79.1,73.7 C79.1,74.1 78.8,74.4 78.5,74.4 C78.2,74.4 77.9,74.1 77.9,73.7 C77.9,73.3 78.1,73 78.5,73 L78.5,73 Z M79,81.3 C79,81.5 79.1,81.6 79.2,81.6 L80,81.7 L80,82 L77,82 L77,81.7 L77.8,81.6 C78,81.6 78,81.5 78,81.3 L78,76.3 C78,76.1 77.9,76 77.8,76 L77,76 L77,75.7 L79,75.4 L79.1,75.5 C79,75.7 79,76.1 79,76.6 L79,81.3 Z" id="Fill-32" fill="#333333"></path>
            <path d="M83,78.5 C83,76.2 84.8,75 86.5,75 C87.9,75 88.9,75.5 88.9,76 C88.9,76.5 88.3,76.6 88.1,76.3 C87.7,75.9 87.4,75.3 86.5,75.3 C85,75.3 84.3,76.6 84.3,78.1 C84.3,80.2 85.3,81.2 86.9,81.2 C87.7,81.2 88.3,80.8 88.8,80.4 L89,80.7 C88.5,81.3 87.6,81.9 86.4,81.9 C84.3,82 83,80.5 83,78.5" id="Fill-33" fill="#333333"></path>
            <polygon id="Fill-34" fill="#333333" points="1 43 133 43 133 42 1 42"></polygon>
            <path d="M65,2.8 C57.8,2.8 51.9,8.7 51.9,16 C51.9,23.3 57.8,29.2 65,29.2 C65.4,29.2 65.8,29.2 66.2,29.1 C72.6,28.5 77.6,23.1 78,16.7 L78,15.2 C77.7,10.6 75,6.4 70.9,4.3 C70.6,4.1 70.2,4 69.9,3.8 C69.7,3.7 69.4,3.6 69.2,3.5 C69.2,3.5 68.9,3.4 68.8,3.4 C67.6,3 66.3,2.8 65,2.8 M65,31 C63,31 61,30.6 59.2,29.8 C53.6,27.5 50,22 50,16 C50,7.7 56.7,1 65,1 L65,1 C65.1,1 65.2,1 65.3,1 L65.6,1 C65.8,1 66,1 66.1,1 C66.4,1 66.7,1.1 67,1.1 L67.1,1.1 C71.7,1.8 75.7,4.6 77.9,8.6 L77.9,1.6 L79.7,1.6 L79.7,1.6 L80,1.6 L80,15.2 L80,15.4 C80,15.6 80,15.8 80,16 C80,16.2 80,16.4 80,16.6 L80,16.8 L80,30.3 L78.2,30.3 L78.2,30.3 L78.1,30 L78.1,23.4 C75.4,28 70.4,31 65,31" id="Fill-35" fill="#333333"></path>
            <path d="M28.1,15.1 C27.8,10.1 24.6,5.7 20,3.8 C18.4,3.2 16.8,2.8 15.1,2.8 C8.1,2.8 2.4,8.2 1.9,15.1 L28.1,15.1 Z M15,31 C13,31 11,30.6 9.2,29.8 C3.6,27.5 0,22 0,16 C0,7.7 6.7,1 14.9,1 L15,1 C23.3,1 30,7.7 30,16 L30,16.9 L1.9,16.9 C2.4,23.8 8.1,29.2 15,29.2 C15.2,29.2 15.5,29.2 15.7,29.2 C19.5,29 23.1,27.1 25.4,23.9 L25.6,23.7 L25.6,23.7 L25.9,23.8 L27.1,24.7 L27,25 C24.1,28.8 19.8,31 15,31 L15,31 Z" id="Fill-37" fill="#333333"></path>
            <path d="M91.1,30 L91.1,30 L91.1,30 L91,1.6 L92.8,1.6 L92.8,1.6 L92.9,1.6 L92.9,6.2 C94.7,3.3 97.7,1.4 101.2,1.1 L101.3,1.1 C101.6,1.1 102,1 102.3,1 L102.4,1 C102.6,1 102.8,1 103,1 L103.3,1 C107.4,1.3 111,3.9 112.7,7.7 C114.3,4 117.8,1.4 121.8,1 C122.2,1 122.5,0.9 122.9,0.9 L123,0.9 C129,1 134,6 134,12.2 L134,30 L132.2,30 L132.2,30 L132.1,29.7 L132.1,12.2 C132.1,8.4 129.9,5 126.4,3.5 C125.3,3 124.1,2.8 122.8,2.8 C117.7,2.8 113.5,7 113.4,12.2 L113.4,30 L111.6,30 L111.6,30 L111.5,29.7 L111.5,12.2 C111.5,8.4 109.3,5 105.8,3.5 C104.7,3 103.5,2.8 102.2,2.8 C97.2,2.8 93,7 93,12.2 L93,30 L92.6,30 L91.1,30 Z" id="Fill-39" fill="#333333"></path>
            <path d="M38.1,30 L38.1,30 L38,29.7 L38,1.6 L39.8,1.6 L39.8,1.6 L39.9,1.6 L39.9,6.6 C41.6,3.4 44.2,1.4 47.5,1 C48,1 48.3,1 48.6,1 L48.9,1 L49,1.3 L49,2.8 L48.7,2.8 C43.3,2.8 39.9,7.7 39.9,15.3 L39.9,30 L38.1,30 Z" id="Fill-41" fill="#333333"></path>
            <path d="M70.9,100.6 L68.6,100.6 L68.6,102.9 L66.5,102.9 L66.5,100.6 L64.1,100.6 L64.1,98.5 L66.5,98.5 L66.5,96.2 L68.6,96.2 L68.6,98.5 L70.9,98.5 L70.9,100.6 Z M62,105 L73,105 L73,94 L62,94 L62,105 Z" id="Fill-43" fill="#E02B20"></path>
            <polygon id="Fill-44" fill="#FEFEFE" points="68.6 96 66.5 96 66.5 98.4 64 98.4 64 100.6 66.5 100.6 66.5 103 68.6 103 68.6 100.6 71 100.6 71 98.4 68.6 98.4"></polygon>
        </g>
    </g>
</svg>