<?xml version="1.0" encoding="UTF-8"?>
<svg width="281px" height="57px" viewBox="0 0 281 57" version="1.1" xmlns="http://www.w3.org/2000/svg" xmlns:xlink="http://www.w3.org/1999/xlink">
    <!-- Generator: Sketch 57.1 (83088) - https://sketch.com -->
    <title>eramKids</title>
    <desc>Created with Sketch.</desc>
    <g id="Welcome" stroke="none" stroke-width="1" fill="none" fill-rule="evenodd">
        <g id="Desktop-HD" transform="translate(-126.000000, -2642.000000)">
            <g id="eramKids" transform="translate(126.000000, 2642.000000)">
                <g id="Group-4-Copy" fill="#FEFEFE">
                    <path d="M54.236196,1.49517763 C48.2722146,1.49517763 43.4199518,6.33035507 43.4199518,12.2733365 C43.4199518,18.216318 48.2722146,23.0514954 54.236196,23.0514954 C54.5541096,23.0514954 54.8876905,23.0345824 55.2565225,22.9994553 C60.4913262,22.4764521 64.6659826,18.1265488 64.9662707,12.8809049 L64.9662707,11.6293401 C64.7501938,7.87464557 62.526104,4.44390081 59.1615725,2.68949834 C58.8762989,2.5418345 58.5955948,2.41368571 58.3103212,2.29529444 C58.1164396,2.21658377 57.9166828,2.14632961 57.7162732,2.07802695 C57.7162732,2.07802695 57.4721259,1.98955875 57.4114155,1.97069421 C56.3832554,1.655201 55.3139689,1.49517763 54.236196,1.49517763 M54.236196,24.5437458 C52.5735143,24.5437458 50.9591397,24.217194 49.4374627,23.5725471 C44.8397919,21.6568203 41.868246,17.2171477 41.868246,12.262278 C41.868246,5.5042182 47.3857121,0.00552926251 54.1683048,0.00552926251 L54.236196,0.00292725662 C54.3256296,0.00292725662 54.4137576,0.00878176987 54.5018856,0.0146362831 L54.7414633,0.0269958111 C54.8929129,0.0328503243 55.0443625,0.0387048376 55.1938537,0.0510643655 C55.4549737,0.0712299112 55.7141354,0.102453982 55.9719914,0.138882064 L56.0673002,0.153843598 C59.852235,0.719779879 63.1110129,2.982224 64.9662707,6.27961596 L64.9662707,0.470637815 L66.4350708,0.470637815 L66.4350708,0.48169634 L66.5173236,0.48169634 L66.5173236,11.6338936 L66.5297268,11.8166845 C66.5401716,11.9682513 66.5499636,12.1198182 66.5499636,12.2733365 C66.5499636,12.4268549 66.5401716,12.5784217 66.5297268,12.7293381 L66.5173236,12.9257895 L66.5173236,23.9309734 L65.0204531,23.9309734 L65.0204531,23.9199149 L64.9662707,23.6759768 L64.9662707,18.2657561 C62.7976688,22.1102198 58.6902508,24.5437458 54.236196,24.5437458" id="Fill-35"></path>
                    <path d="M23.1052055,11.5270812 C22.8277654,7.46079653 20.2289684,3.85116386 16.4251024,2.28410582 C15.1332111,1.76045213 13.7675533,1.49504753 12.36795,1.49504753 C6.65529665,1.49504753 1.96427539,5.88137896 1.57716495,11.5270812 L23.1052055,11.5270812 Z M12.36795,24.5436157 C10.705921,24.5436157 9.09219929,24.2170639 7.57052234,23.5730675 C2.97219869,21.6573407 -1.27897692e-13,17.2176681 -1.27897692e-13,12.2621479 C-1.27897692e-13,5.5040881 5.51811894,0.00604966369 12.299406,0.00604966369 L12.36795,0.00279715633 C19.1577235,0.00279715633 24.6817176,5.50734061 24.6817176,12.2732064 L24.6817176,13.0193316 L1.57716495,13.0193316 C1.96427539,18.6650339 6.65529665,23.0513653 12.36795,23.0513653 C12.5696652,23.0513653 12.7700748,23.0448603 12.9691789,23.0338018 C16.1339536,22.8445058 19.0487059,21.2787488 20.9640212,18.7385406 L21.1109013,18.5433901 L21.1468053,18.5700607 L21.3641877,18.6923549 L22.365583,19.4423831 L22.218703,19.6375336 C19.8673171,22.7553871 16.2769168,24.5436157 12.36795,24.5436157 L12.36795,24.5436157 Z" id="Fill-37"></path>
                    <path d="M75.3454653,23.9352017 L75.3454653,23.9312987 L75.2364477,23.9312987 L75.2364477,0.481371089 L76.733971,0.481371089 L76.733971,0.4859246 L76.8142654,0.4859246 L76.8142654,4.25818264 C78.343776,1.88385226 80.857709,0.333056754 83.7006533,0.0526906192 L83.7678917,0.045535103 C84.0485957,0.0201655456 84.3306053,0.00260200589 84.6178374,0.00260200589 L84.6857286,2.48689958e-14 C84.841095,2.48689958e-14 84.994503,0.00975752208 85.147911,0.0208160471 L85.3874887,0.0351270795 C88.834273,0.292725662 91.8417229,2.44718654 93.209339,5.58650664 C94.5443151,2.52264471 97.4675538,0.375339349 100.818377,0.0507391148 C101.136943,0.0201655456 101.426133,0.00260200589 101.719893,0.00260200589 L101.787785,2.48689958e-14 C106.916182,2.48689958e-14 111.087574,4.15670441 111.087574,9.26704397 L111.086922,23.9312987 L109.590051,23.9312987 L109.590051,23.9202401 L109.535869,23.6763021 L109.535869,9.25598544 C109.535869,6.12772387 107.665596,3.313004 104.771081,2.08485722 C103.821257,1.69195433 102.81725,1.49225038 101.787785,1.49225038 C97.4975826,1.49225038 93.9979215,4.97113225 93.9868239,9.24687842 L93.9881295,23.9312987 L92.4906061,23.9312987 L92.4906061,23.9195896 L92.4364237,23.6763021 L92.4344653,9.25663595 C92.4344653,6.12837437 90.5635404,3.3136545 87.6690249,2.08550772 C86.7198536,1.69195433 85.7158471,1.49225038 84.6857286,1.49225038 C80.3837762,1.49225038 76.8834622,4.97958877 76.8834622,9.26704397 L76.8828094,23.9312987 L76.5694654,23.9352017 L75.3454653,23.9352017 Z" id="Fill-39"></path>
                    <path d="M31.272844,23.9311035 L31.272844,23.920045 L31.2186616,23.6761069 L31.2186616,0.470767915 L32.6874617,0.470767915 L32.6874617,0.48182644 L32.7703674,0.48182644 L32.7703674,4.64243385 C34.1471227,1.97602832 36.3320445,0.362134169 39.0170112,0.059650985 C39.3936768,0.0186693922 39.6685056,0.00305735692 39.9335425,0.00305735692 L40.1783425,0.00305735692 L40.2468865,0.243742902 L40.2468865,1.49205523 L40.0020865,1.49205523 C35.6093948,1.49205523 32.7703674,5.53557238 32.7703674,11.794047 L32.7703674,23.9311035 L31.272844,23.9311035 Z" id="Fill-41"></path>
                </g>
                <path d="M51.8183335,45.1639593 L51.8183335,54.8188723 C51.8183335,55.3182643 52.0180903,55.6178995 52.417604,55.6511923 L54.4151722,55.8176564 L54.4151722,56.1505844 L44.0944032,56.1505844 L44.0944032,55.8176564 L45.4927009,55.6511923 C45.8922145,55.6178995 46.0919714,55.3182643 46.0919714,54.8188723 L46.0919714,34.8431903 C46.0919714,34.3437983 45.8922145,34.044163 45.4927009,34.0108702 L44.0944032,33.8444062 L44.0944032,33.5114782 L60.4078768,33.5114782 L60.4078768,39.5041828 L60.1082415,39.5041828 L57.2117676,34.3437983 C56.978718,33.9109918 56.7789612,33.8444062 56.312862,33.8444062 L51.8183335,33.8444062 L51.8183335,44.8310313 L53.3498025,44.8310313 C53.8159017,44.8310313 54.0156585,44.7644457 54.2487082,44.3316392 L56.1796907,40.8358949 L56.479326,40.8358949 L56.479326,49.1590957 L56.1796907,49.1590957 L54.2487082,45.6633514 C54.0156585,45.2305449 53.8159017,45.1639593 53.3498025,45.1639593 L51.8183335,45.1639593 Z M69.9629113,49.9914158 L69.9629113,46.9950635 L69.0972984,47.4278699 C67.7988791,48.1270188 66.966559,49.3255597 66.966559,51.1566639 C66.966559,52.65484 67.3993654,53.4871601 68.3315639,53.4871601 C69.3636408,53.4871601 69.9629113,52.321912 69.9629113,49.9914158 Z M75.0234174,44.8310313 L75.0234174,54.8188723 C75.0234174,55.3182643 75.2231742,55.5846067 75.6226878,55.6511923 L76.787936,55.8176564 L76.787936,56.1505844 C74.8902462,56.3170484 72.7595068,56.4835124 71.527673,56.4835124 C70.9284026,56.4835124 69.9629113,56.3503412 69.9629113,55.1518003 L69.9629113,52.65484 L69.8963257,52.65484 C69.163884,55.3182643 67.4992439,56.4835124 65.3352116,56.4835124 C63.0380082,56.4835124 61.6397105,54.8188723 61.6397105,52.488376 C61.6397105,49.9914158 63.3376434,48.7262893 65.7347253,47.9938476 L69.9629113,46.6621355 L69.9629113,44.8310313 C69.9629113,42.6669991 68.3648567,41.834679 67.0331446,41.834679 C65.6681397,41.834679 64.436306,42.001143 63.0380082,42.9999271 L62.904837,42.8334631 C63.8370355,41.3352869 65.7014325,39.1712547 69.0972984,39.1712547 C71.8273083,39.1712547 75.0234174,40.8358949 75.0234174,44.8310313 Z M85.7104072,56.4835124 C81.7485636,56.4835124 77.8533057,53.8200882 77.8533057,47.9938476 C77.8533057,42.334071 82.1147845,39.1712547 86.3429705,39.1712547 C90.1383501,39.1712547 92.0693326,40.5695525 92.0693326,42.167607 C92.0693326,43.8988328 90.3048141,44.3982248 89.4392012,43.2995623 C88.1740747,41.7348006 88.5735883,39.5041828 86.3429705,39.5041828 C84.0790599,39.5041828 83.1801542,42.4672422 83.1801542,46.8285995 C83.1801542,51.1899567 84.7116231,54.3194802 88.1074891,54.3194802 C89.4392012,54.3194802 90.7043277,53.7867954 91.9694542,52.6215472 L92.0693326,52.7547185 C91.0372557,54.5858226 88.7400523,56.4835124 85.7104072,56.4835124 Z M94.5995857,34.8431903 C94.5995857,33.1785501 95.8647122,32.179766 97.4627668,32.179766 C99.0275285,32.179766 100.292655,33.1785501 100.292655,34.8431903 C100.292655,36.5078305 99.0275285,37.5066146 97.4627668,37.5066146 C95.8647122,37.5066146 94.5995857,36.5078305 94.5995857,34.8431903 Z M99.9930198,42.5005351 L99.9930198,54.8188723 C99.9930198,55.3182643 100.159484,55.5846067 100.59229,55.6511923 L101.65766,55.8176564 L101.65766,56.1505844 L93.2345808,56.1505844 L93.2345808,55.8176564 L94.2999505,55.6511923 C94.7327569,55.5846067 94.8992209,55.3182643 94.8992209,54.8188723 L94.8992209,41.1688229 C94.8992209,40.6694309 94.7327569,40.5029669 94.2999505,40.5029669 L93.2345808,40.5029669 L93.2345808,40.1700388 L99.9930198,39.1712547 L100.126191,39.3377187 C100.059605,39.9036964 99.9930198,41.1688229 99.9930198,42.5005351 Z M111.046231,49.9914158 L111.046231,46.9950635 L110.180618,47.4278699 C108.882198,48.1270188 108.049878,49.3255597 108.049878,51.1566639 C108.049878,52.65484 108.482685,53.4871601 109.414883,53.4871601 C110.44696,53.4871601 111.046231,52.321912 111.046231,49.9914158 Z M116.106737,44.8310313 L116.106737,54.8188723 C116.106737,55.3182643 116.306493,55.5846067 116.706007,55.6511923 L117.871255,55.8176564 L117.871255,56.1505844 C115.973565,56.3170484 113.842826,56.4835124 112.610992,56.4835124 C112.011722,56.4835124 111.046231,56.3503412 111.046231,55.1518003 L111.046231,52.65484 L110.979645,52.65484 C110.247203,55.3182643 108.582563,56.4835124 106.418531,56.4835124 C104.121327,56.4835124 102.72303,54.8188723 102.72303,52.488376 C102.72303,49.9914158 104.420963,48.7262893 106.818044,47.9938476 L111.046231,46.6621355 L111.046231,44.8310313 C111.046231,42.6669991 109.448176,41.834679 108.116464,41.834679 C106.751459,41.834679 105.519625,42.001143 104.121327,42.9999271 L103.988156,42.8334631 C104.920355,41.3352869 106.784752,39.1712547 110.180618,39.1712547 C112.910627,39.1712547 116.106737,40.8358949 116.106737,44.8310313 Z M125.428722,35.8419744 L125.428722,54.8188723 C125.428722,55.3182643 125.595186,55.5846067 126.027992,55.6511923 L127.093362,55.8176564 L127.093362,56.1505844 L118.670282,56.1505844 L118.670282,55.8176564 L119.735652,55.6511923 C120.168459,55.5846067 120.334923,55.3182643 120.334923,54.8188723 L120.334923,34.5102623 C120.334923,34.0108702 120.168459,33.8444062 119.735652,33.8444062 L118.670282,33.8444062 L118.670282,33.5114782 L125.428722,32.5126941 L125.561893,32.6791581 C125.495307,33.2451357 125.428722,34.5102623 125.428722,35.8419744 Z M145.470989,47.8273836 L140.010969,47.8273836 L138.579379,53.1542321 C138.412915,53.8200882 138.745843,54.3194802 139.444992,54.6524082 L141.975245,55.8176564 L141.975245,56.1505844 L134.384486,56.1505844 L134.384486,55.8176564 L136.81486,54.6524082 C137.480716,54.3194802 138.079987,53.6536241 138.246451,52.9877681 L143.506714,33.3450142 L146.969165,33.3450142 L153.960654,54.6524082 C154.093825,55.1185075 154.426753,55.5846067 154.85956,55.6511923 L155.791758,55.8176564 L155.791758,56.1505844 L145.704039,56.1505844 L145.704039,55.8176564 L146.969165,55.6511923 C147.768192,55.5513139 147.601728,54.8188723 147.435264,54.352773 L145.470989,47.8273836 Z M140.077555,47.4944555 L145.404403,47.4944555 L142.641101,38.0725922 L142.574515,38.0725922 L140.077555,47.4944555 Z M165.047157,39.5041828 C163.18276,39.5041828 162.317148,42.3007782 162.183976,46.1294506 L166.811676,46.1294506 C167.410946,41.8013862 166.74509,39.5041828 165.047157,39.5041828 Z M171.272912,46.4956714 L162.183976,46.4956714 C162.050805,51.1566639 163.715445,54.3194802 167.111311,54.3194802 C168.443023,54.3194802 169.741443,53.8200882 170.939984,52.6215472 L171.106448,52.7547185 C170.041078,54.5858226 167.743874,56.4835124 164.714229,56.4835124 C160.752386,56.4835124 156.857128,53.8200882 156.857128,47.9938476 C156.857128,42.001143 161.285071,39.1712547 165.047157,39.1712547 C168.376438,39.1712547 172.171817,40.5029669 171.272912,46.4956714 Z M178.663914,56.4835124 C177.232323,56.4835124 175.834026,56.3170484 173.503529,55.8176564 L173.237187,51.1566639 L173.536822,51.1566639 C174.93512,54.186309 176.166954,56.1505844 178.2644,56.1505844 C179.529527,56.1505844 180.461725,55.1518003 180.461725,53.4871601 C180.461725,51.988984 179.862455,50.8903215 177.332202,49.6584877 C174.402435,48.26019 173.237187,46.8285995 173.237187,44.1651752 C173.237187,41.501751 175.068291,39.1712547 179.063428,39.1712547 C180.428432,39.1712547 181.294045,39.3377187 183.757713,39.8371108 L183.890884,44.4981032 L183.591249,44.4981032 C182.259537,41.6349222 181.626973,39.5041828 179.496234,39.5041828 C178.131229,39.5041828 177.465373,40.6361381 177.465373,41.9012646 C177.465373,43.8322472 178.630621,44.4981032 179.662698,44.9974953 C183.49137,46.9950635 184.889668,48.1603116 184.889668,51.1566639 C184.889668,54.3194802 182.159658,56.4835124 178.663914,56.4835124 Z M186.121502,39.6706468 L187.652971,39.5041828 C188.418705,39.4375972 188.95139,39.1046691 189.550661,38.5053987 L192.613598,35.5090464 L192.846648,35.5090464 L192.846648,39.5041828 L196.109343,39.5041828 L196.109343,39.9036964 L192.846648,39.9036964 L192.846648,52.9877681 C192.846648,55.2516787 193.745554,55.4847283 194.611167,55.4847283 C195.210437,55.4847283 195.676536,55.2849715 196.275807,54.9853363 L196.342392,55.3182643 C195.143852,55.9841204 193.445919,56.4835124 191.614814,56.4835124 C189.18444,56.4835124 187.786142,55.6511923 187.786142,52.8213041 L187.786142,39.9036964 L186.121502,39.9036964 L186.121502,39.6706468 Z M204.099616,32.5126941 L204.232787,32.6791581 C204.166201,33.2451357 204.099616,34.5102623 204.099616,35.8419744 L204.099616,43.8322472 L204.166201,43.8322472 C205.298156,40.1700388 207.162553,39.1712547 209.326586,39.1712547 C211.590496,39.1712547 213.65465,40.8358949 213.65465,44.4981032 L213.65465,54.8188723 C213.65465,55.3182643 213.854407,55.5846067 214.253921,55.6511923 L215.419169,55.8176564 L215.419169,56.1505844 L207.495482,56.1505844 L207.495482,55.8176564 L208.161338,55.6511923 C208.560851,55.5513139 208.594144,55.3182643 208.594144,54.8188723 L208.594144,44.3316392 C208.594144,42.9999271 208.028166,42.001143 206.796333,42.001143 C205.298156,42.001143 204.099616,43.8322472 204.099616,46.1627434 L204.099616,54.8188723 C204.099616,55.3182643 204.26608,55.5846067 204.698886,55.6511923 L205.764256,55.8176564 L205.764256,56.1505844 L197.341177,56.1505844 L197.341177,55.8176564 L198.406546,55.6511923 C198.839353,55.5846067 199.005817,55.3182643 199.005817,54.8188723 L199.005817,34.5102623 C199.005817,34.0108702 198.839353,33.8444062 198.406546,33.8444062 L197.341177,33.8444062 L197.341177,33.5114782 L204.099616,32.5126941 Z M224.674568,39.5041828 C222.810171,39.5041828 221.944558,42.3007782 221.811387,46.1294506 L226.439087,46.1294506 C227.038357,41.8013862 226.372501,39.5041828 224.674568,39.5041828 Z M230.900322,46.4956714 L221.811387,46.4956714 C221.678216,51.1566639 223.342856,54.3194802 226.738722,54.3194802 C228.070434,54.3194802 229.368853,53.8200882 230.567394,52.6215472 L230.733858,52.7547185 C229.668488,54.5858226 227.371285,56.4835124 224.34164,56.4835124 C220.379796,56.4835124 216.484538,53.8200882 216.484538,47.9938476 C216.484538,42.001143 220.912481,39.1712547 224.674568,39.1712547 C228.003848,39.1712547 231.799228,40.5029669 230.900322,46.4956714 Z M232.198742,39.6706468 L233.73021,39.5041828 C234.495945,39.4375972 235.02863,39.1046691 235.6279,38.5053987 L238.690838,35.5090464 L238.923888,35.5090464 L238.923888,39.5041828 L242.186582,39.5041828 L242.186582,39.9036964 L238.923888,39.9036964 L238.923888,52.9877681 C238.923888,55.2516787 239.822793,55.4847283 240.688406,55.4847283 C241.287677,55.4847283 241.753776,55.2849715 242.353047,54.9853363 L242.419632,55.3182643 C241.221091,55.9841204 239.523158,56.4835124 237.692054,56.4835124 C235.261679,56.4835124 233.863382,55.6511923 233.863382,52.8213041 L233.863382,39.9036964 L232.198742,39.9036964 L232.198742,39.6706468 Z M244.783421,34.8431903 C244.783421,33.1785501 246.048548,32.179766 247.646602,32.179766 C249.211364,32.179766 250.476491,33.1785501 250.476491,34.8431903 C250.476491,36.5078305 249.211364,37.5066146 247.646602,37.5066146 C246.048548,37.5066146 244.783421,36.5078305 244.783421,34.8431903 Z M250.176855,42.5005351 L250.176855,54.8188723 C250.176855,55.3182643 250.343319,55.5846067 250.776126,55.6511923 L251.841495,55.8176564 L251.841495,56.1505844 L243.418416,56.1505844 L243.418416,55.8176564 L244.483786,55.6511923 C244.916592,55.5846067 245.083056,55.3182643 245.083056,54.8188723 L245.083056,41.1688229 C245.083056,40.6694309 244.916592,40.5029669 244.483786,40.5029669 L243.418416,40.5029669 L243.418416,40.1700388 L250.176855,39.1712547 L250.310026,39.3377187 C250.243441,39.9036964 250.176855,41.1688229 250.176855,42.5005351 Z M260.763967,56.4835124 C256.802123,56.4835124 252.906865,53.8200882 252.906865,47.9938476 C252.906865,42.334071 257.168344,39.1712547 261.39653,39.1712547 C265.19191,39.1712547 267.122892,40.5695525 267.122892,42.167607 C267.122892,43.8988328 265.358374,44.3982248 264.492761,43.2995623 C263.227634,41.7348006 263.627148,39.5041828 261.39653,39.5041828 C259.132619,39.5041828 258.233714,42.4672422 258.233714,46.8285995 C258.233714,51.1899567 259.765183,54.3194802 263.161049,54.3194802 C264.492761,54.3194802 265.757887,53.7867954 267.023014,52.6215472 L267.122892,52.7547185 C266.090815,54.5858226 263.793612,56.4835124 260.763967,56.4835124 Z M274.147674,56.4835124 C272.716083,56.4835124 271.317785,56.3170484 268.987289,55.8176564 L268.720947,51.1566639 L269.020582,51.1566639 C270.41888,54.186309 271.650713,56.1505844 273.74816,56.1505844 C275.013287,56.1505844 275.945485,55.1518003 275.945485,53.4871601 C275.945485,51.988984 275.346215,50.8903215 272.815961,49.6584877 C269.886195,48.26019 268.720947,46.8285995 268.720947,44.1651752 C268.720947,41.501751 270.552051,39.1712547 274.547187,39.1712547 C275.912192,39.1712547 276.777805,39.3377187 279.241473,39.8371108 L279.374644,44.4981032 L279.075008,44.4981032 C277.743296,41.6349222 277.110733,39.5041828 274.979994,39.5041828 C273.614989,39.5041828 272.949133,40.6361381 272.949133,41.9012646 C272.949133,43.8322472 274.114381,44.4981032 275.146458,44.9974953 C278.97513,46.9950635 280.373428,48.1603116 280.373428,51.1566639 C280.373428,54.3194802 277.643418,56.4835124 274.147674,56.4835124 Z" id="FacialAesthetics" fill="#D66E48" fill-rule="nonzero"></path>
            </g>
        </g>
    </g>
</svg>